<svg width="1016" height="430" viewBox="0 0 1016 430" fill="none" xmlns="http://www.w3.org/2000/svg">
<path d="M159 355.596C202.976 320.536 355.543 243.852 614 217.596" stroke="url(#paint0_linear_26_1330)" stroke-width="6.69845" stroke-linecap="round"/>
<path d="M519.157 194.594V179.502H528.619V181.462H521.435V186.06H528.126V188.013H521.435V192.634H528.708V194.594H519.157ZM533.016 183.275L535.514 187.682L538.034 183.275H540.444L536.914 188.934L540.473 194.594H538.064L535.514 190.364L532.972 194.594H530.554L534.077 188.934L530.599 183.275H533.016ZM542.499 198.838V183.275H544.65V185.11H544.835C544.962 184.874 545.147 184.601 545.387 184.292C545.628 183.982 545.962 183.712 546.39 183.481C546.817 183.245 547.382 183.127 548.084 183.127C548.998 183.127 549.814 183.358 550.531 183.82C551.248 184.282 551.811 184.948 552.219 185.817C552.631 186.687 552.838 187.733 552.838 188.956C552.838 190.18 552.634 191.229 552.226 192.103C551.818 192.973 551.258 193.643 550.546 194.115C549.833 194.581 549.02 194.815 548.107 194.815C547.419 194.815 546.856 194.699 546.419 194.468C545.987 194.238 545.648 193.967 545.402 193.658C545.156 193.348 544.967 193.073 544.835 192.833H544.702V198.838H542.499ZM544.658 188.934C544.658 189.73 544.773 190.428 545.004 191.027C545.235 191.626 545.569 192.096 546.006 192.435C546.444 192.769 546.979 192.936 547.613 192.936C548.271 192.936 548.821 192.761 549.264 192.412C549.706 192.059 550.04 191.58 550.266 190.976C550.497 190.371 550.612 189.691 550.612 188.934C550.612 188.188 550.499 187.517 550.273 186.922C550.052 186.328 549.718 185.859 549.271 185.515C548.829 185.171 548.276 184.999 547.613 184.999C546.974 184.999 546.434 185.164 545.992 185.493C545.554 185.822 545.223 186.281 544.997 186.871C544.771 187.46 544.658 188.148 544.658 188.934ZM559.977 194.822C558.862 194.822 557.901 194.584 557.096 194.107C556.295 193.626 555.676 192.95 555.239 192.081C554.806 191.206 554.59 190.182 554.59 189.008C554.59 187.849 554.806 186.827 555.239 185.942C555.676 185.058 556.285 184.368 557.066 183.872C557.852 183.375 558.771 183.127 559.822 183.127C560.461 183.127 561.08 183.233 561.679 183.444C562.279 183.655 562.817 183.987 563.293 184.439C563.77 184.891 564.146 185.478 564.421 186.2C564.696 186.918 564.833 187.79 564.833 188.816V189.597H555.836V187.947H562.674C562.674 187.367 562.556 186.854 562.32 186.407C562.085 185.955 561.753 185.598 561.326 185.338C560.903 185.078 560.407 184.948 559.837 184.948C559.218 184.948 558.678 185.1 558.216 185.404C557.759 185.704 557.405 186.097 557.155 186.584C556.909 187.065 556.786 187.588 556.786 188.153V189.443C556.786 190.199 556.919 190.843 557.184 191.373C557.454 191.904 557.83 192.309 558.312 192.589C558.793 192.864 559.356 193.002 559.999 193.002C560.417 193.002 560.797 192.943 561.141 192.825C561.485 192.702 561.783 192.521 562.033 192.28C562.284 192.039 562.475 191.742 562.608 191.388L564.693 191.764C564.526 192.378 564.227 192.916 563.794 193.378C563.367 193.835 562.829 194.191 562.18 194.446C561.537 194.697 560.802 194.822 559.977 194.822ZM571.838 194.822C570.743 194.822 569.8 194.574 569.009 194.078C568.223 193.577 567.618 192.887 567.196 192.007C566.773 191.128 566.562 190.121 566.562 188.986C566.562 187.836 566.778 186.822 567.211 185.942C567.643 185.058 568.252 184.368 569.038 183.872C569.824 183.375 570.75 183.127 571.816 183.127C572.676 183.127 573.442 183.287 574.115 183.606C574.788 183.921 575.331 184.363 575.744 184.933C576.162 185.503 576.41 186.168 576.488 186.93H574.344C574.226 186.399 573.956 185.942 573.533 185.559C573.116 185.176 572.556 184.984 571.853 184.984C571.239 184.984 570.701 185.147 570.239 185.471C569.782 185.79 569.426 186.247 569.171 186.841C568.915 187.431 568.788 188.129 568.788 188.934C568.788 189.76 568.913 190.472 569.163 191.071C569.414 191.671 569.768 192.135 570.225 192.464C570.686 192.793 571.229 192.958 571.853 192.958C572.271 192.958 572.649 192.882 572.988 192.729C573.332 192.572 573.619 192.349 573.85 192.059C574.086 191.769 574.251 191.42 574.344 191.012H576.488C576.41 191.744 576.171 192.398 575.773 192.973C575.376 193.547 574.843 193.999 574.174 194.328C573.511 194.658 572.732 194.822 571.838 194.822ZM583.921 183.275V185.043H577.738V183.275H583.921ZM579.396 180.563H581.599V191.27C581.599 191.698 581.663 192.019 581.791 192.236C581.919 192.447 582.083 192.592 582.285 192.67C582.491 192.744 582.715 192.781 582.955 192.781C583.132 192.781 583.287 192.769 583.42 192.744C583.552 192.72 583.655 192.7 583.729 192.685L584.127 194.505C583.999 194.554 583.818 194.604 583.582 194.653C583.346 194.707 583.051 194.736 582.697 194.741C582.118 194.751 581.577 194.648 581.076 194.432C580.575 194.215 580.17 193.881 579.86 193.429C579.551 192.977 579.396 192.41 579.396 191.727V180.563ZM590.907 194.822C589.792 194.822 588.832 194.584 588.026 194.107C587.225 193.626 586.606 192.95 586.169 192.081C585.737 191.206 585.52 190.182 585.52 189.008C585.52 187.849 585.737 186.827 586.169 185.942C586.606 185.058 587.215 184.368 587.997 183.872C588.783 183.375 589.701 183.127 590.753 183.127C591.391 183.127 592.01 183.233 592.61 183.444C593.209 183.655 593.747 183.987 594.223 184.439C594.7 184.891 595.076 185.478 595.351 186.2C595.626 186.918 595.764 187.79 595.764 188.816V189.597H586.766V187.947H593.604C593.604 187.367 593.487 186.854 593.251 186.407C593.015 185.955 592.683 185.598 592.256 185.338C591.833 185.078 591.337 184.948 590.767 184.948C590.148 184.948 589.608 185.1 589.146 185.404C588.689 185.704 588.335 186.097 588.085 186.584C587.839 187.065 587.716 187.588 587.716 188.153V189.443C587.716 190.199 587.849 190.843 588.114 191.373C588.385 191.904 588.76 192.309 589.242 192.589C589.723 192.864 590.286 193.002 590.929 193.002C591.347 193.002 591.728 192.943 592.072 192.825C592.416 192.702 592.713 192.521 592.963 192.28C593.214 192.039 593.405 191.742 593.538 191.388L595.624 191.764C595.457 192.378 595.157 192.916 594.725 193.378C594.297 193.835 593.759 194.191 593.111 194.446C592.467 194.697 591.733 194.822 590.907 194.822ZM602.238 194.815C601.324 194.815 600.509 194.581 599.791 194.115C599.079 193.643 598.519 192.973 598.111 192.103C597.708 191.229 597.507 190.18 597.507 188.956C597.507 187.733 597.711 186.687 598.119 185.817C598.531 184.948 599.096 184.282 599.814 183.82C600.531 183.358 601.344 183.127 602.253 183.127C602.955 183.127 603.52 183.245 603.948 183.481C604.38 183.712 604.714 183.982 604.95 184.292C605.191 184.601 605.377 184.874 605.51 185.11H605.643V179.502H607.846V194.594H605.694V192.833H605.51C605.377 193.073 605.186 193.348 604.935 193.658C604.689 193.967 604.351 194.238 603.918 194.468C603.486 194.699 602.926 194.815 602.238 194.815ZM602.724 192.936C603.358 192.936 603.894 192.769 604.331 192.435C604.773 192.096 605.107 191.626 605.333 191.027C605.564 190.428 605.679 189.73 605.679 188.934C605.679 188.148 605.566 187.46 605.34 186.871C605.114 186.281 604.783 185.822 604.346 185.493C603.908 185.164 603.368 184.999 602.724 184.999C602.061 184.999 601.508 185.171 601.066 185.515C600.624 185.859 600.29 186.328 600.064 186.922C599.843 187.517 599.733 188.188 599.733 188.934C599.733 189.691 599.846 190.371 600.071 190.976C600.297 191.58 600.632 192.059 601.074 192.412C601.521 192.761 602.071 192.936 602.724 192.936ZM620.835 194.822C619.774 194.822 618.848 194.579 618.057 194.093C617.266 193.606 616.652 192.926 616.215 192.051C615.778 191.177 615.559 190.155 615.559 188.986C615.559 187.812 615.778 186.785 616.215 185.906C616.652 185.026 617.266 184.343 618.057 183.857C618.848 183.371 619.774 183.127 620.835 183.127C621.897 183.127 622.823 183.371 623.614 183.857C624.404 184.343 625.019 185.026 625.456 185.906C625.893 186.785 626.112 187.812 626.112 188.986C626.112 190.155 625.893 191.177 625.456 192.051C625.019 192.926 624.404 193.606 623.614 194.093C622.823 194.579 621.897 194.822 620.835 194.822ZM620.843 192.973C621.531 192.973 622.1 192.791 622.552 192.427C623.004 192.064 623.338 191.58 623.555 190.976C623.776 190.371 623.886 189.706 623.886 188.978C623.886 188.256 623.776 187.593 623.555 186.989C623.338 186.38 623.004 185.891 622.552 185.522C622.1 185.154 621.531 184.97 620.843 184.97C620.15 184.97 619.575 185.154 619.118 185.522C618.666 185.891 618.33 186.38 618.109 186.989C617.893 187.593 617.785 188.256 617.785 188.978C617.785 189.706 617.893 190.371 618.109 190.976C618.33 191.58 618.666 192.064 619.118 192.427C619.575 192.791 620.15 192.973 620.843 192.973ZM635.534 189.9V183.275H637.744V194.594H635.578V192.634H635.46C635.2 193.238 634.782 193.741 634.207 194.144C633.637 194.542 632.928 194.741 632.078 194.741C631.351 194.741 630.707 194.581 630.147 194.262C629.592 193.938 629.155 193.459 628.835 192.825C628.521 192.191 628.364 191.408 628.364 190.474V183.275H630.567V190.209C630.567 190.98 630.781 191.595 631.208 192.051C631.635 192.508 632.191 192.737 632.873 192.737C633.286 192.737 633.696 192.634 634.104 192.427C634.517 192.221 634.858 191.909 635.128 191.491C635.404 191.074 635.539 190.543 635.534 189.9ZM645.781 183.275V185.043H639.599V183.275H645.781ZM641.257 180.563H643.46V191.27C643.46 191.698 643.524 192.019 643.652 192.236C643.779 192.447 643.944 192.592 644.145 192.67C644.352 192.744 644.575 192.781 644.816 192.781C644.993 192.781 645.147 192.769 645.28 192.744C645.413 192.72 645.516 192.7 645.59 192.685L645.988 194.505C645.86 194.554 645.678 194.604 645.442 194.653C645.206 194.707 644.912 194.736 644.558 194.741C643.978 194.751 643.438 194.648 642.937 194.432C642.436 194.215 642.03 193.881 641.721 193.429C641.411 192.977 641.257 192.41 641.257 191.727V180.563ZM652.657 194.822C651.562 194.822 650.618 194.574 649.828 194.078C649.041 193.577 648.437 192.887 648.015 192.007C647.592 191.128 647.381 190.121 647.381 188.986C647.381 187.836 647.597 186.822 648.029 185.942C648.462 185.058 649.071 184.368 649.857 183.872C650.643 183.375 651.569 183.127 652.635 183.127C653.495 183.127 654.261 183.287 654.934 183.606C655.607 183.921 656.15 184.363 656.563 184.933C656.981 185.503 657.229 186.168 657.307 186.93H655.163C655.045 186.399 654.775 185.942 654.352 185.559C653.935 185.176 653.375 184.984 652.672 184.984C652.058 184.984 651.52 185.147 651.058 185.471C650.601 185.79 650.245 186.247 649.99 186.841C649.734 187.431 649.606 188.129 649.606 188.934C649.606 189.76 649.732 190.472 649.982 191.071C650.233 191.671 650.587 192.135 651.043 192.464C651.505 192.793 652.048 192.958 652.672 192.958C653.09 192.958 653.468 192.882 653.807 192.729C654.151 192.572 654.438 192.349 654.669 192.059C654.905 191.769 655.069 191.42 655.163 191.012H657.307C657.229 191.744 656.99 192.398 656.592 192.973C656.194 193.547 655.661 193.999 654.993 194.328C654.33 194.658 653.551 194.822 652.657 194.822ZM664.224 194.822C663.163 194.822 662.237 194.579 661.446 194.093C660.655 193.606 660.041 192.926 659.603 192.051C659.166 191.177 658.947 190.155 658.947 188.986C658.947 187.812 659.166 186.785 659.603 185.906C660.041 185.026 660.655 184.343 661.446 183.857C662.237 183.371 663.163 183.127 664.224 183.127C665.285 183.127 666.211 183.371 667.002 183.857C667.793 184.343 668.407 185.026 668.844 185.906C669.281 186.785 669.5 187.812 669.5 188.986C669.5 190.155 669.281 191.177 668.844 192.051C668.407 192.926 667.793 193.606 667.002 194.093C666.211 194.579 665.285 194.822 664.224 194.822ZM664.231 192.973C664.919 192.973 665.489 192.791 665.941 192.427C666.393 192.064 666.727 191.58 666.943 190.976C667.164 190.371 667.275 189.706 667.275 188.978C667.275 188.256 667.164 187.593 666.943 186.989C666.727 186.38 666.393 185.891 665.941 185.522C665.489 185.154 664.919 184.97 664.231 184.97C663.538 184.97 662.964 185.154 662.507 185.522C662.055 185.891 661.718 186.38 661.497 186.989C661.281 187.593 661.173 188.256 661.173 188.978C661.173 189.706 661.281 190.371 661.497 190.976C661.718 191.58 662.055 192.064 662.507 192.427C662.964 192.791 663.538 192.973 664.231 192.973ZM671.752 194.594V183.275H673.867V185.117H674.007C674.243 184.493 674.628 184.007 675.164 183.658C675.699 183.304 676.341 183.127 677.087 183.127C677.844 183.127 678.478 183.304 678.989 183.658C679.504 184.012 679.885 184.498 680.131 185.117H680.249C680.519 184.513 680.949 184.031 681.538 183.673C682.128 183.309 682.83 183.127 683.646 183.127C684.673 183.127 685.51 183.449 686.159 184.093C686.812 184.736 687.139 185.707 687.139 187.004V194.594H684.935V187.21C684.935 186.443 684.727 185.888 684.309 185.544C683.891 185.201 683.393 185.029 682.813 185.029C682.096 185.029 681.538 185.25 681.14 185.692C680.742 186.129 680.543 186.692 680.543 187.379V194.594H678.347V187.07C678.347 186.456 678.156 185.962 677.773 185.589C677.389 185.215 676.891 185.029 676.277 185.029C675.859 185.029 675.473 185.139 675.12 185.36C674.771 185.576 674.488 185.879 674.272 186.267C674.061 186.655 673.955 187.104 673.955 187.615V194.594H671.752ZM694.763 194.822C693.648 194.822 692.687 194.584 691.881 194.107C691.081 193.626 690.462 192.95 690.024 192.081C689.592 191.206 689.376 190.182 689.376 189.008C689.376 187.849 689.592 186.827 690.024 185.942C690.462 185.058 691.071 184.368 691.852 183.872C692.638 183.375 693.557 183.127 694.608 183.127C695.247 183.127 695.866 183.233 696.465 183.444C697.064 183.655 697.602 183.987 698.079 184.439C698.555 184.891 698.931 185.478 699.206 186.2C699.482 186.918 699.619 187.79 699.619 188.816V189.597H690.621V187.947H697.46C697.46 187.367 697.342 186.854 697.106 186.407C696.87 185.955 696.539 185.598 696.111 185.338C695.689 185.078 695.193 184.948 694.623 184.948C694.004 184.948 693.463 185.1 693.002 185.404C692.545 185.704 692.191 186.097 691.94 186.584C691.695 187.065 691.572 187.588 691.572 188.153V189.443C691.572 190.199 691.705 190.843 691.97 191.373C692.24 191.904 692.616 192.309 693.097 192.589C693.579 192.864 694.141 193.002 694.785 193.002C695.202 193.002 695.583 192.943 695.927 192.825C696.271 192.702 696.568 192.521 696.819 192.28C697.069 192.039 697.261 191.742 697.394 191.388L699.479 191.764C699.312 192.378 699.012 192.916 698.58 193.378C698.153 193.835 697.615 194.191 696.966 194.446C696.323 194.697 695.588 194.822 694.763 194.822ZM710.338 186.038L708.341 186.392C708.258 186.136 708.125 185.893 707.943 185.662C707.766 185.431 707.526 185.242 707.221 185.095C706.916 184.948 706.536 184.874 706.079 184.874C705.455 184.874 704.934 185.014 704.517 185.294C704.099 185.569 703.89 185.925 703.89 186.362C703.89 186.741 704.03 187.045 704.31 187.276C704.59 187.507 705.042 187.696 705.666 187.844L707.464 188.256C708.506 188.497 709.282 188.868 709.793 189.369C710.304 189.87 710.559 190.521 710.559 191.322C710.559 192 710.363 192.604 709.97 193.135C709.582 193.66 709.039 194.073 708.341 194.373C707.648 194.672 706.845 194.822 705.931 194.822C704.664 194.822 703.63 194.552 702.829 194.012C702.028 193.466 701.537 192.693 701.355 191.69L703.485 191.366C703.617 191.921 703.89 192.341 704.303 192.626C704.715 192.906 705.253 193.046 705.917 193.046C706.639 193.046 707.216 192.896 707.648 192.597C708.081 192.292 708.297 191.921 708.297 191.484C708.297 191.13 708.164 190.833 707.899 190.592C707.639 190.352 707.238 190.17 706.698 190.047L704.782 189.627C703.726 189.386 702.944 189.003 702.438 188.477C701.937 187.952 701.687 187.286 701.687 186.48C701.687 185.812 701.873 185.228 702.247 184.726C702.62 184.225 703.136 183.835 703.794 183.555C704.453 183.27 705.207 183.127 706.057 183.127C707.28 183.127 708.243 183.393 708.945 183.923C709.648 184.449 710.112 185.154 710.338 186.038Z" fill="url(#paint1_linear_26_1330)"/>
<rect x="602.449" y="205.781" width="24.1045" height="24.1045" rx="12.0523" fill="#A6A7A8"/>
<rect x="609.68" y="213.012" width="9.64182" height="9.64182" rx="4.82091" fill="#F8F9FC"/>
<defs>
<linearGradient id="paint0_linear_26_1330" x1="675.276" y1="182.913" x2="280.26" y2="591.546" gradientUnits="userSpaceOnUse">
<stop offset="0.114962" stop-color="#A6A7A8"/>
<stop offset="0.971315" stop-color="#A7A7A7" stop-opacity="0"/>
</linearGradient>
<linearGradient id="paint1_linear_26_1330" x1="730.131" y1="273.01" x2="791.967" y2="161.643" gradientUnits="userSpaceOnUse">
<stop stop-color="#131313"/>
<stop offset="1" stop-color="#D4D4D4"/>
</linearGradient>
</defs>
</svg>
