<svg width="1016" height="434" viewBox="0 0 1016 434" fill="none" xmlns="http://www.w3.org/2000/svg">
<path d="M76.9951 397.212V412.579H74.669V399.538H74.579L70.9023 401.939V399.718L74.7366 397.212H76.9951ZM86.502 412.834C85.3165 412.829 84.3035 412.517 83.4631 411.896C82.6227 411.276 81.9799 410.373 81.5347 409.188C81.0895 408.002 80.8669 406.574 80.8669 404.903C80.8669 403.237 81.0895 401.814 81.5347 400.634C81.9849 399.453 82.6302 398.553 83.4706 397.932C84.316 397.312 85.3265 397.002 86.502 397.002C87.6775 397.002 88.6855 397.315 89.5259 397.94C90.3663 398.56 91.0091 399.461 91.4543 400.641C91.9045 401.817 92.1296 403.237 92.1296 404.903C92.1296 406.579 91.907 408.009 91.4618 409.195C91.0166 410.376 90.3738 411.279 89.5334 411.904C88.693 412.524 87.6825 412.834 86.502 412.834ZM86.502 410.831C87.5425 410.831 88.3554 410.323 88.9406 409.308C89.5309 408.292 89.826 406.824 89.826 404.903C89.826 403.627 89.691 402.549 89.4208 401.669C89.1557 400.784 88.773 400.113 88.2728 399.658C87.7776 399.198 87.1873 398.968 86.502 398.968C85.4665 398.968 84.6536 399.478 84.0634 400.499C83.4731 401.519 83.1755 402.987 83.1705 404.903C83.1705 406.184 83.303 407.267 83.5681 408.152C83.8383 409.032 84.2209 409.7 84.7162 410.155C85.2114 410.606 85.8067 410.831 86.502 410.831Z" fill="#131313"/>
<path d="M282.679 412.579V410.898L287.879 405.511C288.434 404.926 288.892 404.413 289.252 403.973C289.617 403.527 289.89 403.105 290.07 402.705C290.25 402.304 290.34 401.879 290.34 401.429C290.34 400.919 290.22 400.479 289.98 400.108C289.74 399.733 289.412 399.446 288.997 399.245C288.582 399.04 288.114 398.938 287.594 398.938C287.044 398.938 286.564 399.05 286.153 399.275C285.743 399.501 285.428 399.818 285.208 400.228C284.988 400.639 284.878 401.119 284.878 401.669H282.664C282.664 400.734 282.879 399.916 283.31 399.215C283.74 398.515 284.33 397.972 285.08 397.587C285.831 397.197 286.684 397.002 287.639 397.002C288.604 397.002 289.455 397.194 290.19 397.58C290.931 397.96 291.508 398.48 291.923 399.14C292.339 399.796 292.546 400.536 292.546 401.361C292.546 401.932 292.439 402.489 292.224 403.035C292.014 403.58 291.646 404.188 291.121 404.858C290.595 405.523 289.865 406.331 288.93 407.282L285.876 410.478V410.591H292.794V412.579H282.679ZM300.988 412.834C299.802 412.829 298.789 412.517 297.949 411.896C297.108 411.276 296.466 410.373 296.02 409.188C295.575 408.002 295.353 406.574 295.353 404.903C295.353 403.237 295.575 401.814 296.02 400.634C296.471 399.453 297.116 398.553 297.956 397.932C298.802 397.312 299.812 397.002 300.988 397.002C302.163 397.002 303.171 397.315 304.012 397.94C304.852 398.56 305.495 399.461 305.94 400.641C306.39 401.817 306.615 403.237 306.615 404.903C306.615 406.579 306.393 408.009 305.947 409.195C305.502 410.376 304.859 411.279 304.019 411.904C303.179 412.524 302.168 412.834 300.988 412.834ZM300.988 410.831C302.028 410.831 302.841 410.323 303.426 409.308C304.017 408.292 304.312 406.824 304.312 404.903C304.312 403.627 304.177 402.549 303.907 401.669C303.641 400.784 303.259 400.113 302.759 399.658C302.263 399.198 301.673 398.968 300.988 398.968C299.952 398.968 299.139 399.478 298.549 400.499C297.959 401.519 297.661 402.987 297.656 404.903C297.656 406.184 297.789 407.267 298.054 408.152C298.324 409.032 298.707 409.7 299.202 410.155C299.697 410.606 300.292 410.831 300.988 410.831Z" fill="#131313"/>
<path d="M494.923 409.578V407.702L501.564 397.212H503.042V399.973H502.104L497.354 407.492V407.612H506.456V409.578H494.923ZM502.209 412.579V409.007L502.224 408.152V397.212H504.423V412.579H502.209ZM514.421 412.834C513.235 412.829 512.222 412.517 511.382 411.896C510.542 411.276 509.899 410.373 509.454 409.188C509.009 408.002 508.786 406.574 508.786 404.903C508.786 403.237 509.009 401.814 509.454 400.634C509.904 399.453 510.549 398.553 511.39 397.932C512.235 397.312 513.245 397.002 514.421 397.002C515.597 397.002 516.605 397.315 517.445 397.94C518.285 398.56 518.928 399.461 519.373 400.641C519.824 401.817 520.049 403.237 520.049 404.903C520.049 406.579 519.826 408.009 519.381 409.195C518.936 410.376 518.293 411.279 517.452 411.904C516.612 412.524 515.602 412.834 514.421 412.834ZM514.421 410.831C515.461 410.831 516.274 410.323 516.86 409.308C517.45 408.292 517.745 406.824 517.745 404.903C517.745 403.627 517.61 402.549 517.34 401.669C517.075 400.784 516.692 400.113 516.192 399.658C515.697 399.198 515.106 398.968 514.421 398.968C513.386 398.968 512.573 399.478 511.982 400.499C511.392 401.519 511.094 402.987 511.089 404.903C511.089 406.184 511.222 407.267 511.487 408.152C511.757 409.032 512.14 409.7 512.635 410.155C513.13 410.606 513.726 410.831 514.421 410.831Z" fill="#131313"/>
<path d="M713.807 412.789C713.122 412.779 712.446 412.654 711.781 412.414C711.121 412.174 710.52 411.774 709.98 411.213C709.44 410.653 709.007 409.9 708.682 408.955C708.362 408.009 708.202 406.829 708.202 405.413C708.202 404.073 708.334 402.882 708.6 401.842C708.87 400.801 709.257 399.923 709.763 399.208C710.268 398.488 710.878 397.94 711.593 397.565C712.309 397.189 713.112 397.002 714.002 397.002C714.917 397.002 715.73 397.182 716.441 397.542C717.151 397.902 717.726 398.4 718.166 399.035C718.612 399.671 718.894 400.393 719.014 401.204H716.726C716.571 400.564 716.263 400.041 715.803 399.636C715.343 399.23 714.742 399.028 714.002 399.028C712.876 399.028 711.999 399.518 711.368 400.499C710.743 401.479 710.428 402.842 710.423 404.588H710.535C710.801 404.153 711.126 403.783 711.511 403.477C711.901 403.167 712.336 402.93 712.816 402.765C713.302 402.594 713.812 402.509 714.347 402.509C715.238 402.509 716.043 402.727 716.763 403.162C717.489 403.592 718.066 404.188 718.497 404.948C718.927 405.708 719.142 406.579 719.142 407.559C719.142 408.54 718.919 409.428 718.474 410.223C718.034 411.018 717.414 411.649 716.613 412.114C715.813 412.574 714.877 412.799 713.807 412.789ZM713.799 410.838C714.39 410.838 714.917 410.693 715.383 410.403C715.848 410.113 716.216 409.723 716.486 409.233C716.756 408.742 716.891 408.195 716.891 407.589C716.891 406.999 716.758 406.461 716.493 405.976C716.233 405.491 715.873 405.106 715.413 404.821C714.957 404.535 714.437 404.393 713.852 404.393C713.407 404.393 712.994 404.478 712.614 404.648C712.239 404.818 711.909 405.053 711.623 405.353C711.338 405.653 711.113 405.999 710.948 406.389C710.788 406.774 710.708 407.182 710.708 407.612C710.708 408.187 710.841 408.72 711.106 409.21C711.376 409.7 711.743 410.095 712.209 410.396C712.679 410.691 713.209 410.838 713.799 410.838ZM727.225 412.834C726.039 412.829 725.026 412.517 724.186 411.896C723.346 411.276 722.703 410.373 722.258 409.188C721.812 408.002 721.59 406.574 721.59 404.903C721.59 403.237 721.812 401.814 722.258 400.634C722.708 399.453 723.353 398.553 724.194 397.932C725.039 397.312 726.049 397.002 727.225 397.002C728.401 397.002 729.408 397.315 730.249 397.94C731.089 398.56 731.732 399.461 732.177 400.641C732.627 401.817 732.853 403.237 732.853 404.903C732.853 406.579 732.63 408.009 732.185 409.195C731.74 410.376 731.097 411.279 730.256 411.904C729.416 412.524 728.406 412.834 727.225 412.834ZM727.225 410.831C728.265 410.831 729.078 410.323 729.664 409.308C730.254 408.292 730.549 406.824 730.549 404.903C730.549 403.627 730.414 402.549 730.144 401.669C729.879 400.784 729.496 400.113 728.996 399.658C728.501 399.198 727.91 398.968 727.225 398.968C726.19 398.968 725.377 399.478 724.786 400.499C724.196 401.519 723.898 402.987 723.893 404.903C723.893 406.184 724.026 407.267 724.291 408.152C724.561 409.032 724.944 409.7 725.439 410.155C725.934 410.606 726.53 410.831 727.225 410.831Z" fill="#131313"/>
<path d="M925.076 397.754C926.083 397.754 926.999 397.917 927.824 398.244C928.65 398.561 929.398 398.983 930.069 399.509C930.75 400.026 931.362 400.589 931.906 401.196C932.188 401.469 932.451 401.754 932.696 402.054C932.941 402.344 933.176 402.63 933.403 402.911C933.594 402.639 933.793 402.376 934.002 402.122C934.22 401.859 934.483 401.577 934.791 401.278C935.617 400.353 936.592 399.536 937.717 398.829C938.842 398.112 940.17 397.754 941.704 397.754C943.019 397.754 944.207 398.071 945.269 398.706C946.339 399.341 947.187 400.199 947.813 401.278C948.448 402.358 948.766 403.56 948.766 404.884C948.766 405.891 948.584 406.83 948.221 407.701C947.858 408.572 947.355 409.334 946.711 409.987C946.067 410.64 945.318 411.152 944.466 411.524C943.613 411.887 942.692 412.069 941.704 412.069C940.669 412.069 939.726 411.896 938.873 411.551C938.03 411.207 937.259 410.762 936.56 410.218C935.871 409.665 935.245 409.08 934.682 408.463C934.437 408.2 934.206 407.937 933.988 407.673C933.771 407.41 933.576 407.156 933.403 406.911C933.195 407.175 932.977 407.442 932.75 407.714C932.523 407.977 932.278 408.25 932.015 408.531C931.462 409.139 930.841 409.715 930.151 410.259C929.471 410.794 928.709 411.229 927.865 411.565C927.031 411.901 926.105 412.069 925.089 412.069C923.756 412.069 922.554 411.751 921.483 411.116C920.413 410.472 919.565 409.61 918.939 408.531C918.313 407.442 918 406.227 918 404.884C918 403.886 918.181 402.956 918.544 402.095C918.907 401.233 919.411 400.48 920.055 399.836C920.699 399.183 921.452 398.675 922.313 398.312C923.175 397.94 924.096 397.754 925.076 397.754ZM920.354 404.884C920.354 405.764 920.567 406.571 920.994 407.306C921.42 408.032 921.991 408.617 922.708 409.061C923.425 409.497 924.218 409.715 925.089 409.715C926.169 409.715 927.13 409.438 927.974 408.885C928.818 408.322 929.598 407.646 930.314 406.857C930.641 406.512 930.931 406.177 931.185 405.85C931.448 405.524 931.689 405.206 931.906 404.898C931.671 404.58 931.417 404.249 931.144 403.904C930.881 403.551 930.568 403.192 930.206 402.829C929.516 402.067 928.75 401.423 927.906 400.897C927.071 400.371 926.128 400.108 925.076 400.108C924.223 400.108 923.438 400.33 922.722 400.775C922.005 401.21 921.429 401.791 920.994 402.516C920.567 403.233 920.354 404.022 920.354 404.884ZM946.412 404.884C946.412 404.022 946.194 403.233 945.758 402.516C945.332 401.791 944.761 401.21 944.044 400.775C943.336 400.33 942.556 400.108 941.704 400.108C940.987 400.108 940.32 400.235 939.703 400.489C939.086 400.734 938.51 401.07 937.975 401.496C937.449 401.922 936.95 402.394 936.478 402.911C936.097 403.301 935.766 403.682 935.485 404.054C935.213 404.426 935 404.707 934.846 404.898C935.054 405.188 935.281 405.487 935.526 405.796C935.771 406.104 936.052 406.426 936.37 406.762C937.095 407.569 937.884 408.263 938.737 408.844C939.599 409.424 940.588 409.715 941.704 409.715C942.556 409.715 943.336 409.497 944.044 409.061C944.761 408.617 945.332 408.032 945.758 407.306C946.194 406.571 946.412 405.764 946.412 404.884Z" fill="#131313"/>
<rect width="2.75606" height="361.043" transform="matrix(1 0 0 -1 82 376.579)" fill="url(#paint0_linear_26_1250)"/>
<rect width="1.83737" height="361.043" transform="matrix(1 0 0 -1 294.961 376.579)" fill="url(#paint1_linear_26_1250)"/>
<rect width="1.83737" height="361.043" transform="matrix(1 0 0 -1 507 376.579)" fill="url(#paint2_linear_26_1250)"/>
<rect width="3" height="238" transform="matrix(1 0 0 -1 719.039 376.579)" fill="url(#paint3_linear_26_1250)"/>
<rect width="2.75606" height="361.043" transform="matrix(1 0 0 -1 932.242 376.579)" fill="url(#paint4_linear_26_1250)"/>
<rect x="15" y="375.502" width="986" height="2" fill="#9E9E9E"/>
<defs>
<linearGradient id="paint0_linear_26_1250" x1="1.37803" y1="0" x2="1.37803" y2="361.043" gradientUnits="userSpaceOnUse">
<stop stop-color="#9E9E9E"/>
<stop offset="1" stop-color="#9E9E9E" stop-opacity="0"/>
</linearGradient>
<linearGradient id="paint1_linear_26_1250" x1="0.918686" y1="0" x2="0.918686" y2="361.043" gradientUnits="userSpaceOnUse">
<stop stop-color="#9E9E9E"/>
<stop offset="1" stop-color="#9E9E9E" stop-opacity="0"/>
</linearGradient>
<linearGradient id="paint2_linear_26_1250" x1="0.918686" y1="0" x2="0.918686" y2="361.043" gradientUnits="userSpaceOnUse">
<stop stop-color="#9E9E9E"/>
<stop offset="1" stop-color="#9E9E9E" stop-opacity="0"/>
</linearGradient>
<linearGradient id="paint3_linear_26_1250" x1="1.5" y1="0" x2="1.5" y2="238" gradientUnits="userSpaceOnUse">
<stop stop-color="#9E9E9E"/>
<stop offset="0.614583" stop-color="#9E9E9E" stop-opacity="0"/>
</linearGradient>
<linearGradient id="paint4_linear_26_1250" x1="1.37803" y1="0" x2="1.37803" y2="361.043" gradientUnits="userSpaceOnUse">
<stop stop-color="#9E9E9E"/>
<stop offset="1" stop-color="#9E9E9E" stop-opacity="0"/>
</linearGradient>
</defs>
</svg>
