<svg width="1016" height="430" viewBox="0 0 1016 430" fill="none" xmlns="http://www.w3.org/2000/svg">
<path d="M107 355.596C174.463 284.459 408.511 128.869 805 75.5957" stroke="url(#paint0_radial_26_1306)" stroke-width="6.69845" stroke-linecap="round"/>
<path d="M707.655 6.52577V3.39711H724.093V6.52577H717.725V24H714.023V6.52577H707.655ZM730.459 14.946V24H726.817V3.39711H730.379V11.1735H730.56C730.922 10.3016 731.482 9.61419 732.24 9.11119C733.004 8.60149 733.977 8.34663 735.157 8.34663C736.23 8.34663 737.166 8.57131 737.964 9.02065C738.762 9.47 739.379 10.1273 739.815 10.9924C740.258 11.8576 740.479 12.9139 740.479 14.1613V24H736.837V14.7247C736.837 13.6851 736.569 12.877 736.032 12.3002C735.503 11.7167 734.758 11.425 733.799 11.425C733.155 11.425 732.578 11.5658 732.069 11.8475C731.566 12.1225 731.17 12.5215 730.882 13.0447C730.6 13.5678 730.459 14.2016 730.459 14.946ZM750.749 24.3018C749.199 24.3018 747.861 23.9799 746.735 23.336C745.615 22.6855 744.753 21.7667 744.149 20.5796C743.546 19.3858 743.244 17.9808 743.244 16.3645C743.244 14.775 743.546 13.38 744.149 12.1795C744.76 10.9723 745.611 10.0334 746.704 9.36269C747.798 8.68532 749.082 8.34663 750.557 8.34663C751.51 8.34663 752.409 8.50089 753.254 8.80939C754.105 9.11119 754.856 9.58066 755.507 10.2178C756.164 10.8549 756.681 11.6664 757.056 12.6523C757.432 13.6315 757.62 14.7984 757.62 16.1532V17.2699H744.954V14.8152H754.129C754.122 14.1177 753.971 13.4974 753.676 12.9541C753.381 12.4042 752.969 11.9716 752.439 11.6564C751.916 11.3412 751.305 11.1836 750.608 11.1836C749.863 11.1836 749.209 11.3646 748.646 11.7268C748.083 12.0822 747.643 12.5517 747.328 13.1352C747.02 13.712 746.862 14.3457 746.855 15.0365V17.1793C746.855 18.078 747.02 18.8493 747.348 19.4931C747.677 20.1303 748.136 20.6198 748.727 20.9619C749.317 21.2972 750.008 21.4649 750.799 21.4649C751.329 21.4649 751.808 21.3911 752.237 21.2436C752.667 21.0893 753.039 20.8646 753.354 20.5695C753.669 20.2744 753.907 19.9089 754.068 19.473L757.469 19.8553C757.254 20.754 756.845 21.5387 756.241 22.2093C755.644 22.8733 754.88 23.3897 753.948 23.7586C753.015 24.1207 751.949 24.3018 750.749 24.3018ZM767.161 24V8.54783H770.692V11.1232H770.853C771.135 10.2312 771.617 9.54377 772.301 9.06089C772.992 8.57131 773.78 8.32651 774.666 8.32651C774.867 8.32651 775.091 8.33657 775.34 8.35669C775.594 8.3701 775.806 8.39358 775.973 8.42711V11.7771C775.819 11.7234 775.574 11.6765 775.239 11.6363C774.91 11.5893 774.592 11.5658 774.283 11.5658C773.619 11.5658 773.022 11.71 772.493 11.9984C771.969 12.2801 771.557 12.6724 771.255 13.1754C770.953 13.6784 770.803 14.2586 770.803 14.9158V24H767.161ZM784.314 24.3018C782.765 24.3018 781.427 23.9799 780.3 23.336C779.18 22.6855 778.318 21.7667 777.715 20.5796C777.111 19.3858 776.809 17.9808 776.809 16.3645C776.809 14.775 777.111 13.38 777.715 12.1795C778.325 10.9723 779.177 10.0334 780.27 9.36269C781.363 8.68532 782.647 8.34663 784.123 8.34663C785.075 8.34663 785.974 8.50089 786.819 8.80939C787.671 9.11119 788.422 9.58066 789.072 10.2178C789.73 10.8549 790.246 11.6664 790.622 12.6523C790.997 13.6315 791.185 14.7984 791.185 16.1532V17.2699H778.519V14.8152H787.694C787.687 14.1177 787.537 13.4974 787.241 12.9541C786.946 12.4042 786.534 11.9716 786.004 11.6564C785.481 11.3412 784.871 11.1836 784.173 11.1836C783.429 11.1836 782.775 11.3646 782.211 11.7268C781.648 12.0822 781.209 12.5517 780.894 13.1352C780.585 13.712 780.427 14.3457 780.421 15.0365V17.1793C780.421 18.078 780.585 18.8493 780.914 19.4931C781.242 20.1303 781.702 20.6198 782.292 20.9619C782.882 21.2972 783.573 21.4649 784.364 21.4649C784.894 21.4649 785.374 21.3911 785.803 21.2436C786.232 21.0893 786.604 20.8646 786.92 20.5695C787.235 20.2744 787.473 19.9089 787.634 19.473L791.034 19.8553C790.819 20.754 790.41 21.5387 789.807 22.2093C789.21 22.8733 788.445 23.3897 787.513 23.7586C786.581 24.1207 785.515 24.3018 784.314 24.3018ZM806.195 12.6322L802.876 12.9944C802.782 12.659 802.617 12.3438 802.383 12.0487C802.155 11.7536 801.846 11.5155 801.457 11.3345C801.068 11.1534 800.592 11.0628 800.029 11.0628C799.271 11.0628 798.634 11.2271 798.117 11.5558C797.608 11.8844 797.356 12.3103 797.363 12.8334C797.356 13.2827 797.52 13.6483 797.856 13.9299C798.198 14.2116 798.761 14.443 799.546 14.6241L802.181 15.1874C803.644 15.5026 804.73 16.0023 805.441 16.6864C806.159 17.3705 806.521 18.2658 806.527 19.3724C806.521 20.3449 806.236 21.2033 805.672 21.9478C805.116 22.6855 804.341 23.2623 803.348 23.6781C802.356 24.0939 801.216 24.3018 799.928 24.3018C798.037 24.3018 796.514 23.9061 795.361 23.1147C794.207 22.3166 793.52 21.2067 793.299 19.7849L796.85 19.4428C797.011 20.1403 797.353 20.6668 797.876 21.0222C798.399 21.3777 799.08 21.5554 799.918 21.5554C800.783 21.5554 801.477 21.3777 802 21.0222C802.53 20.6668 802.795 20.2275 802.795 19.7044C802.795 19.2617 802.624 18.8962 802.282 18.6078C801.947 18.3195 801.424 18.0981 800.713 17.9439L798.077 17.3906C796.595 17.0821 795.498 16.5623 794.787 15.8313C794.076 15.0935 793.724 14.1613 793.731 13.0346C793.724 12.0822 793.983 11.2573 794.506 10.5598C795.036 9.85563 795.77 9.31239 796.709 8.93011C797.654 8.54113 798.744 8.34663 799.978 8.34663C801.789 8.34663 803.214 8.73227 804.254 9.50353C805.3 10.2748 805.947 11.3177 806.195 12.6322ZM819.096 17.5012V8.54783H822.738V24H819.206V21.2536H819.045C818.697 22.1188 818.123 22.8263 817.325 23.3763C816.534 23.9262 815.558 24.2012 814.398 24.2012C813.385 24.2012 812.49 23.9765 811.712 23.5272C810.94 23.0711 810.337 22.4105 809.901 21.5454C809.465 20.6735 809.247 19.6205 809.247 18.3865V8.54783H812.889V17.8232C812.889 18.8023 813.157 19.5803 813.694 20.1571C814.23 20.7339 814.934 21.0222 815.806 21.0222C816.343 21.0222 816.862 20.8915 817.365 20.6299C817.868 20.3683 818.281 19.9794 818.603 19.4629C818.931 18.9398 819.096 18.2859 819.096 17.5012ZM829.841 3.39711V24H826.199V3.39711H829.841ZM841.018 8.54783V11.3646H832.135V8.54783H841.018ZM834.328 4.84575H837.97V19.3523C837.97 19.8419 838.044 20.2174 838.191 20.479C838.346 20.7339 838.547 20.9082 838.795 21.0021C839.043 21.096 839.318 21.143 839.62 21.143C839.848 21.143 840.056 21.1262 840.244 21.0927C840.438 21.0591 840.586 21.0289 840.686 21.0021L841.3 23.8491C841.106 23.9162 840.827 23.9899 840.465 24.0704C840.11 24.1509 839.674 24.1978 839.157 24.2113C838.245 24.2381 837.424 24.1006 836.693 23.7988C835.962 23.4903 835.381 23.0141 834.952 22.3703C834.53 21.7264 834.322 20.9216 834.328 19.9559V4.84575ZM855.772 12.6322L852.452 12.9944C852.359 12.659 852.194 12.3438 851.959 12.0487C851.731 11.7536 851.423 11.5155 851.034 11.3345C850.645 11.1534 850.169 11.0628 849.605 11.0628C848.848 11.0628 848.21 11.2271 847.694 11.5558C847.184 11.8844 846.933 12.3103 846.94 12.8334C846.933 13.2827 847.097 13.6483 847.432 13.9299C847.775 14.2116 848.338 14.443 849.123 14.6241L851.758 15.1874C853.22 15.5026 854.307 16.0023 855.018 16.6864C855.735 17.3705 856.098 18.2658 856.104 19.3724C856.098 20.3449 855.812 21.2033 855.249 21.9478C854.692 22.6855 853.918 23.2623 852.925 23.6781C851.933 24.0939 850.793 24.3018 849.505 24.3018C847.614 24.3018 846.091 23.9061 844.938 23.1147C843.784 22.3166 843.097 21.2067 842.875 19.7849L846.426 19.4428C846.587 20.1403 846.929 20.6668 847.453 21.0222C847.976 21.3777 848.656 21.5554 849.495 21.5554C850.36 21.5554 851.054 21.3777 851.577 21.0222C852.107 20.6668 852.372 20.2275 852.372 19.7044C852.372 19.2617 852.201 18.8962 851.859 18.6078C851.524 18.3195 851 18.0981 850.29 17.9439L847.654 17.3906C846.172 17.0821 845.075 16.5623 844.364 15.8313C843.653 15.0935 843.301 14.1613 843.308 13.0346C843.301 12.0822 843.559 11.2573 844.083 10.5598C844.612 9.85563 845.347 9.31239 846.286 8.93011C847.231 8.54113 848.321 8.34663 849.555 8.34663C851.366 8.34663 852.791 8.73227 853.831 9.50353C854.877 10.2748 855.524 11.3177 855.772 12.6322ZM868.756 24L864.39 8.54783H868.103L870.819 19.4126H870.96L873.736 8.54783H877.408L880.185 19.3523H880.336L883.012 8.54783H886.734L882.358 24H878.565L875.668 13.5577H875.456L872.559 24H868.756ZM895.391 24.3018C893.842 24.3018 892.504 23.9799 891.377 23.336C890.257 22.6855 889.395 21.7667 888.792 20.5796C888.188 19.3858 887.886 17.9808 887.886 16.3645C887.886 14.775 888.188 13.38 888.792 12.1795C889.402 10.9723 890.254 10.0334 891.347 9.36269C892.44 8.68532 893.725 8.34663 895.2 8.34663C896.152 8.34663 897.051 8.50089 897.896 8.80939C898.748 9.11119 899.499 9.58066 900.15 10.2178C900.807 10.8549 901.323 11.6664 901.699 12.6523C902.074 13.6315 902.262 14.7984 902.262 16.1532V17.2699H889.597V14.8152H898.771C898.765 14.1177 898.614 13.4974 898.319 12.9541C898.024 12.4042 897.611 11.9716 897.081 11.6564C896.558 11.3412 895.948 11.1836 895.25 11.1836C894.506 11.1836 893.852 11.3646 893.289 11.7268C892.725 12.0822 892.286 12.5517 891.971 13.1352C891.662 13.712 891.505 14.3457 891.498 15.0365V17.1793C891.498 18.078 891.662 18.8493 891.991 19.4931C892.32 20.1303 892.779 20.6198 893.369 20.9619C893.959 21.2972 894.65 21.4649 895.442 21.4649C895.971 21.4649 896.451 21.3911 896.88 21.2436C897.309 21.0893 897.682 20.8646 897.997 20.5695C898.312 20.2744 898.55 19.9089 898.711 19.473L902.111 19.8553C901.897 20.754 901.488 21.5387 900.884 22.2093C900.287 22.8733 899.523 23.3897 898.59 23.7586C897.658 24.1207 896.592 24.3018 895.391 24.3018ZM710.485 51L706.119 35.5478H709.831L712.547 46.4126H712.688L715.465 35.5478H719.137L721.913 46.3523H722.064L724.74 35.5478H728.462L724.086 51H720.293L717.396 40.5577H717.185L714.288 51H710.485ZM735.168 51.3119C734.189 51.3119 733.307 51.1375 732.522 50.7887C731.744 50.4333 731.127 49.9102 730.671 49.2194C730.222 48.5286 729.997 47.6768 729.997 46.6641C729.997 45.7923 730.158 45.0713 730.48 44.5012C730.802 43.9312 731.241 43.4751 731.798 43.1331C732.355 42.791 732.982 42.5328 733.679 42.3585C734.383 42.1774 735.111 42.0466 735.862 41.9661C736.768 41.8722 737.502 41.7884 738.065 41.7146C738.629 41.6341 739.038 41.5134 739.293 41.3525C739.554 41.1848 739.685 40.9266 739.685 40.5778V40.5175C739.685 39.7596 739.46 39.1728 739.011 38.757C738.562 38.3412 737.914 38.1333 737.069 38.1333C736.177 38.1333 735.47 38.3277 734.947 38.7167C734.43 39.1057 734.082 39.5651 733.901 40.095L730.5 39.6121C730.769 38.6731 731.211 37.8885 731.828 37.258C732.445 36.6209 733.2 36.1447 734.092 35.8295C734.984 35.5076 735.97 35.3466 737.049 35.3466C737.794 35.3466 738.535 35.4338 739.273 35.6082C740.01 35.7826 740.684 36.071 741.295 36.4734C741.905 36.869 742.395 37.4089 742.763 38.093C743.139 38.7771 743.327 39.6322 743.327 40.6583V51H739.826V48.8773H739.705C739.484 49.3066 739.172 49.709 738.77 50.0845C738.374 50.4534 737.874 50.7519 737.271 50.9799C736.674 51.2012 735.973 51.3119 735.168 51.3119ZM736.114 48.6359C736.845 48.6359 737.479 48.4917 738.015 48.2033C738.552 47.9082 738.964 47.5192 739.252 47.0364C739.548 46.5535 739.695 46.027 739.695 45.4569V43.6361C739.581 43.73 739.387 43.8172 739.112 43.8976C738.843 43.9781 738.542 44.0485 738.206 44.1089C737.871 44.1693 737.539 44.2229 737.21 44.2699C736.882 44.3168 736.597 44.357 736.355 44.3906C735.812 44.4643 735.326 44.5851 734.896 44.7527C734.467 44.9204 734.129 45.1551 733.88 45.4569C733.632 45.752 733.508 46.1343 733.508 46.6038C733.508 47.2744 733.753 47.7808 734.243 48.1228C734.732 48.4649 735.356 48.6359 736.114 48.6359ZM750.347 41.946V51H746.705V35.5478H750.186V38.1735H750.367C750.723 37.3083 751.289 36.6209 752.067 36.1112C752.852 35.6015 753.821 35.3466 754.975 35.3466C756.041 35.3466 756.97 35.5747 757.761 36.0307C758.559 36.4868 759.176 37.1474 759.612 38.0125C760.055 38.8777 760.273 39.9273 760.266 41.1613V51H756.624V41.7247C756.624 40.6918 756.356 39.8837 755.82 39.3002C755.29 38.7167 754.555 38.425 753.617 38.425C752.979 38.425 752.413 38.5658 751.916 38.8475C751.427 39.1225 751.041 39.5215 750.759 40.0447C750.485 40.5678 750.347 41.2016 750.347 41.946ZM771.401 35.5478V38.3646H762.518V35.5478H771.401ZM764.711 31.8458H768.353V46.3523C768.353 46.8419 768.427 47.2174 768.574 47.479C768.728 47.7339 768.93 47.9082 769.178 48.0021C769.426 48.096 769.701 48.143 770.003 48.143C770.231 48.143 770.439 48.1262 770.626 48.0927C770.821 48.0591 770.968 48.0289 771.069 48.0021L771.683 50.8491C771.488 50.9162 771.21 50.9899 770.848 51.0704C770.492 51.1509 770.056 51.1978 769.54 51.2113C768.628 51.2381 767.806 51.1006 767.075 50.7988C766.344 50.4903 765.764 50.0141 765.335 49.3703C764.912 48.7264 764.704 47.9216 764.711 46.9559V31.8458ZM788.623 35.5478V38.3646H779.74V35.5478H788.623ZM781.933 31.8458H785.575V46.3523C785.575 46.8419 785.649 47.2174 785.796 47.479C785.95 47.7339 786.152 47.9082 786.4 48.0021C786.648 48.096 786.923 48.143 787.225 48.143C787.453 48.143 787.661 48.1262 787.848 48.0927C788.043 48.0591 788.19 48.0289 788.291 48.0021L788.905 50.8491C788.71 50.9162 788.432 50.9899 788.07 51.0704C787.714 51.1509 787.278 51.1978 786.762 51.2113C785.85 51.2381 785.028 51.1006 784.297 50.7988C783.566 50.4903 782.986 50.0141 782.557 49.3703C782.134 48.7264 781.926 47.9216 781.933 46.9559V31.8458ZM797.96 51.3018C796.451 51.3018 795.143 50.9698 794.036 50.3059C792.93 49.6419 792.071 48.713 791.461 47.5192C790.857 46.3255 790.555 44.9305 790.555 43.3343C790.555 41.7381 790.857 40.3397 791.461 39.1393C792.071 37.9388 792.93 37.0065 794.036 36.3426C795.143 35.6786 796.451 35.3466 797.96 35.3466C799.469 35.3466 800.776 35.6786 801.883 36.3426C802.99 37.0065 803.845 37.9388 804.448 39.1393C805.059 40.3397 805.364 41.7381 805.364 43.3343C805.364 44.9305 805.059 46.3255 804.448 47.5192C803.845 48.713 802.99 49.6419 801.883 50.3059C800.776 50.9698 799.469 51.3018 797.96 51.3018ZM797.98 48.3844C798.798 48.3844 799.482 48.1597 800.032 47.7104C800.582 47.2543 800.991 46.644 801.259 45.8795C801.534 45.1149 801.672 44.2631 801.672 43.3242C801.672 42.3786 801.534 41.5235 801.259 40.7589C800.991 39.9876 800.582 39.374 800.032 38.9179C799.482 38.4619 798.798 38.2339 797.98 38.2339C797.141 38.2339 796.444 38.4619 795.887 38.9179C795.337 39.374 794.925 39.9876 794.65 40.7589C794.382 41.5235 794.247 42.3786 794.247 43.3242C794.247 44.2631 794.382 45.1149 794.65 45.8795C794.925 46.644 795.337 47.2543 795.887 47.7104C796.444 48.1597 797.141 48.3844 797.98 48.3844ZM820.649 51.2716C819.435 51.2716 818.349 50.9598 817.39 50.336C816.431 49.7123 815.673 48.8069 815.116 47.6198C814.56 46.4328 814.281 44.9908 814.281 43.294C814.281 41.5771 814.563 40.1285 815.126 38.9481C815.696 37.761 816.464 36.8657 817.43 36.2621C818.396 35.6518 819.472 35.3466 820.659 35.3466C821.565 35.3466 822.309 35.5009 822.893 35.8094C823.476 36.1112 823.939 36.4767 824.281 36.9059C824.623 37.3285 824.888 37.7275 825.076 38.1031H825.227V30.3971H828.878V51H825.297V48.5655H825.076C824.888 48.9411 824.616 49.3401 824.261 49.7626C823.905 50.1784 823.436 50.5339 822.852 50.829C822.269 51.1241 821.535 51.2716 820.649 51.2716ZM821.665 48.2838C822.437 48.2838 823.094 48.0759 823.637 47.6601C824.18 47.2376 824.593 46.6507 824.874 45.8996C825.156 45.1484 825.297 44.2732 825.297 43.2739C825.297 42.2746 825.156 41.4061 824.874 40.6684C824.599 39.9306 824.19 39.3572 823.647 38.9481C823.111 38.539 822.45 38.3345 821.665 38.3345C820.854 38.3345 820.176 38.5457 819.633 38.9682C819.09 39.3908 818.681 39.9742 818.406 40.7187C818.131 41.4631 817.993 42.3149 817.993 43.2739C817.993 44.2397 818.131 45.1015 818.406 45.8593C818.688 46.6105 819.1 47.204 819.643 47.64C820.193 48.0692 820.867 48.2838 821.665 48.2838ZM839.316 51.3018C837.767 51.3018 836.429 50.9799 835.303 50.336C834.183 49.6855 833.321 48.7667 832.717 47.5796C832.114 46.3858 831.812 44.9808 831.812 43.3645C831.812 41.775 832.114 40.38 832.717 39.1795C833.327 37.9723 834.179 37.0334 835.272 36.3627C836.366 35.6853 837.65 35.3466 839.125 35.3466C840.078 35.3466 840.976 35.5009 841.821 35.8094C842.673 36.1112 843.424 36.5807 844.075 37.2178C844.732 37.8549 845.249 38.6664 845.624 39.6523C846 40.6315 846.187 41.7984 846.187 43.1532V44.2699H833.522V41.8152H842.697C842.69 41.1177 842.539 40.4974 842.244 39.9541C841.949 39.4042 841.536 38.9716 841.007 38.6564C840.483 38.3412 839.873 38.1836 839.176 38.1836C838.431 38.1836 837.777 38.3646 837.214 38.7268C836.651 39.0822 836.211 39.5517 835.896 40.1352C835.588 40.712 835.43 41.3457 835.423 42.0365V44.1793C835.423 45.078 835.588 45.8493 835.916 46.4931C836.245 47.1303 836.704 47.6198 837.294 47.9619C837.885 48.2972 838.575 48.4649 839.367 48.4649C839.897 48.4649 840.376 48.3911 840.805 48.2436C841.235 48.0893 841.607 47.8646 841.922 47.5695C842.237 47.2744 842.475 46.9089 842.636 46.473L846.037 46.8553C845.822 47.754 845.413 48.5387 844.809 49.2093C844.212 49.8733 843.448 50.3897 842.516 50.7586C841.583 51.1207 840.517 51.3018 839.316 51.3018ZM852.627 30.3971V51H848.985V30.3971H852.627ZM856.088 51V35.5478H859.73V51H856.088ZM857.919 33.3548C857.342 33.3548 856.846 33.1636 856.43 32.7813C856.015 32.3923 855.807 31.9262 855.807 31.383C855.807 30.833 856.015 30.3669 856.43 29.9846C856.846 29.5957 857.342 29.4012 857.919 29.4012C858.503 29.4012 858.999 29.5957 859.408 29.9846C859.824 30.3669 860.032 30.833 860.032 31.383C860.032 31.9262 859.824 32.3923 859.408 32.7813C858.999 33.1636 858.503 33.3548 857.919 33.3548ZM876.994 35.5478L871.491 51H867.467L861.964 35.5478H865.847L869.399 47.0263H869.56L873.121 35.5478H876.994ZM885.546 51.3018C883.997 51.3018 882.659 50.9799 881.532 50.336C880.412 49.6855 879.55 48.7667 878.946 47.5796C878.343 46.3858 878.041 44.9808 878.041 43.3645C878.041 41.775 878.343 40.38 878.946 39.1795C879.557 37.9723 880.409 37.0334 881.502 36.3627C882.595 35.6853 883.879 35.3466 885.355 35.3466C886.307 35.3466 887.206 35.5009 888.051 35.8094C888.903 36.1112 889.654 36.5807 890.304 37.2178C890.961 37.8549 891.478 38.6664 891.853 39.6523C892.229 40.6315 892.417 41.7984 892.417 43.1532V44.2699H879.751V41.8152H888.926C888.919 41.1177 888.768 40.4974 888.473 39.9541C888.178 39.4042 887.766 38.9716 887.236 38.6564C886.713 38.3412 886.102 38.1836 885.405 38.1836C884.661 38.1836 884.007 38.3646 883.443 38.7268C882.88 39.0822 882.441 39.5517 882.125 40.1352C881.817 40.712 881.659 41.3457 881.653 42.0365V44.1793C881.653 45.078 881.817 45.8493 882.146 46.4931C882.474 47.1303 882.934 47.6198 883.524 47.9619C884.114 48.2972 884.805 48.4649 885.596 48.4649C886.126 48.4649 886.605 48.3911 887.035 48.2436C887.464 48.0893 887.836 47.8646 888.151 47.5695C888.467 47.2744 888.705 46.9089 888.866 46.473L892.266 46.8553C892.051 47.754 891.642 48.5387 891.039 49.2093C890.442 49.8733 889.677 50.3897 888.745 50.7586C887.813 51.1207 886.746 51.3018 885.546 51.3018ZM895.214 51V35.5478H898.745V38.1232H898.906C899.188 37.2312 899.671 36.5438 900.355 36.0609C901.046 35.5713 901.834 35.3265 902.719 35.3265C902.92 35.3265 903.145 35.3366 903.393 35.3567C903.648 35.3701 903.859 35.3936 904.027 35.4271V38.7771C903.873 38.7234 903.628 38.6765 903.293 38.6363C902.964 38.5893 902.645 38.5658 902.337 38.5658C901.673 38.5658 901.076 38.71 900.546 38.9984C900.023 39.2801 899.611 39.6724 899.309 40.1754C899.007 40.6784 898.856 41.2586 898.856 41.9158V51H895.214Z" fill="url(#paint1_radial_26_1306)"/>
<rect x="792.949" y="63.1875" width="24.1045" height="24.1045" rx="12.0523" fill="#131313"/>
<rect x="800.18" y="70.418" width="9.64182" height="9.64182" rx="4.82091" fill="#F8F9FC"/>
<defs>
<radialGradient id="paint0_radial_26_1306" cx="0" cy="0" r="1" gradientUnits="userSpaceOnUse" gradientTransform="translate(860.517 29.9628) rotate(162.36) scale(988.314 750.501)">
<stop offset="0.0758171"/>
<stop offset="0.982928" stop-opacity="0"/>
</radialGradient>
<radialGradient id="paint1_radial_26_1306" cx="0" cy="0" r="1" gradientUnits="userSpaceOnUse" gradientTransform="translate(926.008 37.7069) rotate(173.901) scale(312.538 146.295)">
<stop/>
<stop offset="1" stop-opacity="0"/>
</radialGradient>
</defs>
</svg>
