<?xml version="1.0" encoding="utf-8"?>
<!-- Generator: Adobe Illustrator 27.0.0, SVG Export Plug-In . SVG Version: 6.00 Build 0)  -->
<svg version="1.1" id="Layer_1" xmlns="http://www.w3.org/2000/svg" xmlns:xlink="http://www.w3.org/1999/xlink" x="0px" y="0px"
	 viewBox="0 0 164 31" style="enable-background:new 0 0 164 31;" xml:space="preserve">
<style type="text/css">
	.st0{fill:#F7F8F9;}
	.st1{fill-rule:evenodd;clip-rule:evenodd;fill:#F7F8F9;}
</style>
<path class="st0" d="M12,20.2L12,20.2c-1.5,1.7-3.2,3-5.3,3c-3.3,0-5.9-2.9-5.9-7c0-5.5,4.2-7.9,7.6-7.9c1.5,0,2.5,0.2,3.6,0.7h0.1
	V3.1c0-0.9-0.2-1.3-1.3-1.5L9.5,1.4V1.3L14.8,0v20.7c0,0.8,0.1,0.9,0.5,1l1.6,0.3v0.1l-4.9,1V20.2L12,20.2z M12,19.6V12
	c-0.8-2-2.5-3.4-4.2-3.4c-2.6,0-3.9,3-3.9,6.7c0,3.3,1.8,6.1,4.6,6.1C10,21.3,11.1,20.5,12,19.6L12,19.6z"/>
<path class="st0" d="M18.5,15.9c0-4.3,3-7.9,7.3-7.9c3.4,0,5.5,1.9,5.5,4.6c0,0.2,0,0.2-0.1,0.5h-9.5c-0.1,0.5-0.1,1.3-0.1,1.8
	c0,3.9,2.3,6.3,5.2,6.3c1.9,0,3.3-0.5,4.6-2.7l0.2,0.1c-1.6,2.9-3.6,4.5-6.3,4.5C21.3,23.1,18.5,20,18.5,15.9L18.5,15.9z M28.2,12.7
	c0-2.2-0.7-4.3-2.7-4.3c-1.9,0-3.4,2.2-3.8,4.4L28.2,12.7z"/>
<path class="st0" d="M34.5,22.3l-0.3-4.2h0.2l0.7,1.5c0.8,1.9,2.2,3.2,4,3.2c2,0,3.2-1.3,3.2-2.8c0-1.7-1.5-2.7-3.6-3.4
	c-2.1-0.7-4-1.7-4-4.3c0-2.7,2.2-4.2,5-4.2c1.2,0,2.2,0.2,3.1,0.6l1.1-0.4l0.2,4h-0.2l-1.9-3c-0.5-0.4-1.3-1-2.3-1
	c-1.8,0-2.8,1-2.8,2.5c0,1.7,1.4,2.3,3.5,3c2.4,0.9,4.3,1.9,4.3,4.6c0,2.4-2.1,4.7-5.8,4.7C37.1,23.1,35.8,22.8,34.5,22.3L34.5,22.3
	z"/>
<path class="st0" d="M47,22.5h0.6c1-0.1,1.4-0.1,1.4-0.5v-9.6c0-2.1-0.2-2.4-1.4-2.6l-0.8-0.2V9.5l4.9-1.3V22c0,0.3,0.2,0.3,1.7,0.4
	h0.5l0.1,0.2h-7.2L47,22.5L47,22.5z M48.2,3.4c0-0.8,0.6-1.9,1.9-1.9c1.3,0,1.9,1.1,1.9,1.9s-0.6,1.9-1.9,1.9
	C48.8,5.2,48.2,4.1,48.2,3.4z"/>
<path class="st0" d="M55.8,27.5c0-1.9,2.3-3.4,4.1-4.1v-0.1c-2.3-0.2-3.8-1.2-3.8-2.6c0-1.8,2.1-3,3.8-3.3v-0.1
	c-1.6-0.6-3-2.1-3-4.2c0-2.9,2.5-5,5.7-5c1.6,0,2.9,0.6,3.9,1.3l4.1-0.8l-0.3,1.7L67,9.8v0.1c0.7,0.6,1.3,1.8,1.3,2.9
	c0,2.8-2.5,4.9-5.8,4.9c-0.7,0-1.7-0.2-2-0.2c-1.2,0.2-2,0.8-2,1.7c0,1.1,1,1.4,2.8,1.4c0.9,0,2.5-0.1,3.7-0.1
	c3.2,0,4.9,1.4,4.9,3.8c0,3.8-3.4,6.6-8.7,6.6C57.8,31,55.8,29.7,55.8,27.5z M68.2,26.2c0-1.7-1.2-2.8-4.4-2.9
	c-0.9,0-2.5,0.1-3.5,0.2c-1.1,0.4-2.2,1.8-2.2,3.2c0,2.2,2.2,3.7,5,3.7C65.9,30.4,68.2,28.4,68.2,26.2L68.2,26.2z M65.4,13.2
	c0-2.8-0.6-4.9-2.9-4.9c-1.7,0-2.7,1.8-2.7,4.4c0,2.9,1,4.7,2.7,4.7C64.3,17.5,65.4,15.8,65.4,13.2L65.4,13.2z"/>
<path class="st0" d="M72.7,22.5h0.6c1-0.1,1.4-0.1,1.4-0.5v-9.6c0-2.1-0.2-2.4-1.4-2.7l-0.8-0.2V9.4l5-1.3l-0.1,2.8h0.1
	C78.9,9.8,80.8,8,83.2,8c1.1,0,2,0.3,2.6,1c0.8,0.7,1,1.9,1,3.4V22c0,0.2,0,0.3,1.7,0.5h0.4l0.1,0.2h-7l0.1-0.2h0.6
	c1.2-0.1,1.3-0.2,1.3-0.5v-9.1c0-2-0.9-2.9-3-2.9c-1.5,0-2.7,0.6-3.5,1.4V22c0,0.3,0.2,0.3,1.7,0.4h0.5l0.1,0.2h-7.2L72.7,22.5
	L72.7,22.5z"/>
<path class="st0" d="M100.2,22.3l-0.3-4.2h0.2l0.7,1.5c0.8,1.9,2.2,3.2,4,3.2c2,0,3.2-1.3,3.2-2.8c0-1.7-1.4-2.7-3.6-3.4
	c-2.1-0.7-4-1.7-4-4.3c0-2.7,2.1-4.2,4.9-4.2c1.2,0,2.2,0.2,3.1,0.6l1.1-0.4l0.2,4h-0.2l-1.9-3c-0.5-0.4-1.3-1-2.3-1
	c-1.8,0-2.7,1-2.7,2.5c0,1.7,1.3,2.3,3.4,3c2.4,0.9,4.3,1.9,4.3,4.6c0,2.4-2,4.7-5.7,4.7C102.7,23.1,101.4,22.8,100.2,22.3
	L100.2,22.3z"/>
<path class="st0" d="M114.6,19.6l0.2-9.8h-2.7l0.1-0.4l1.7-1.2l3.7-2.9h0.1v3.1h5.1l-0.6,1.3h-4.5l-0.2,9.7c0,1.2,0.7,2,2.3,2
	c1.2,0,2.2-0.4,2.9-1.1l0.2,0.1c-1.3,1.3-3,2.6-4.7,2.6C115.7,23.1,114.5,22,114.6,19.6L114.6,19.6z"/>
<path class="st0" d="M124.1,15.6c0-4.2,3.3-7.6,7.7-7.6c4.5,0,7.7,3.3,7.7,7.5s-3.3,7.6-7.7,7.6C127.3,23.1,124.1,19.9,124.1,15.6z
	 M136.1,15.8c0-2.6-0.6-5.1-1.8-6.4c-0.6-0.6-1.4-1.1-2.6-1.1c-3,0-4.3,3.6-4.3,6.9c0,2.8,0.5,5.2,1.8,6.5c0.7,0.7,1.6,1.2,2.6,1.2
	C134.6,22.8,136.1,19.3,136.1,15.8z"/>
<path class="st0" d="M141.7,22.5h0.6c1-0.1,1.4-0.1,1.4-0.5v-9.6c0-2.1-0.2-2.4-1.4-2.6l-0.8-0.2V9.5l4.9-1.3V22
	c0,0.3,0.2,0.3,1.7,0.4h0.5l0.1,0.2h-7.2L141.7,22.5L141.7,22.5z M142.9,3.4c0-0.8,0.6-1.9,1.9-1.9c1.3,0,1.9,1.1,1.9,1.9
	s-0.6,1.9-1.9,1.9C143.5,5.2,142.9,4.1,142.9,3.4z"/>
<path class="st0" d="M150.4,15.9c0-4.3,3-7.9,7.5-7.9c2.7,0,5,1.1,5,3.1c0,0.9-0.8,1.8-1.7,1.8c-1,0-1.7-0.8-1.7-1.6
	c0-1.1,0.7-1.6,0.7-1.8c0-0.4-1.1-1.1-2.2-1.1c-2.6,0-4.6,2.7-4.6,6.6c0,3.8,2.3,6.3,5.2,6.3c1.9,0,3.1-0.5,4.4-2.7l0.3,0.1
	c-1.6,2.9-3.4,4.5-6.2,4.5C153.2,23.1,150.4,20,150.4,15.9z"/>
<path class="st1" d="M131.8,18.4c0-1.6-1.3-2.9-2.9-2.9c1.6,0,2.9-1.3,2.9-2.9c0,1.6,1.3,2.9,2.9,2.9
	C133.1,15.5,131.8,16.8,131.8,18.4z"/>
</svg>
