<svg width="164" height="31" viewBox="0 0 164 31" fill="none" xmlns="http://www.w3.org/2000/svg">
<path d="M11.9567 20.1586L11.8898 20.1252C10.4394 21.8764 8.79519 23.1196 6.64298 23.1196C3.30771 23.1196 0.714355 20.2589 0.714355 16.1216C0.714355 10.6675 4.91853 8.1811 8.32064 8.1811C9.77104 8.1811 10.8472 8.34819 11.8898 8.85617C11.8898 8.85617 11.9567 8.82275 11.9567 8.85617V3.09465C11.9567 2.18564 11.7227 1.81802 10.6132 1.61082L9.50369 1.4103L9.53711 1.27663L14.7907 0V20.7335C14.7907 21.5088 14.9243 21.6091 15.332 21.7093L16.9496 22.0435L16.9161 22.1772L12.0035 23.2199L11.97 20.1586H11.9567ZM11.9567 19.5504V11.9441C11.2482 10.0259 9.53042 8.57545 7.78592 8.57545C5.22599 8.57545 3.84911 11.6033 3.84911 15.2393C3.84911 18.5345 5.60029 21.2949 8.42758 21.2949C10.0117 21.2949 11.1212 20.5196 11.9634 19.5437L11.9567 19.5504Z" fill="white"/>
<path d="M18.5132 15.8878C18.5132 11.5432 21.4742 7.98071 25.8188 7.98071C29.2543 7.98071 31.2728 9.83215 31.2728 12.5926C31.2728 12.7597 31.2394 12.8265 31.206 13.0672L21.6814 13.0337C21.6146 13.5016 21.5812 14.3772 21.5812 14.8518C21.5812 18.7217 23.8336 21.148 26.7612 21.148C28.6795 21.148 30.0898 20.6066 31.3731 18.4878L31.607 18.6215C29.9895 21.4822 28.0378 23.1331 25.2774 23.1331C21.3405 23.1331 18.5132 20.0051 18.5132 15.8945V15.8878ZM28.2049 12.6594C28.2049 10.5072 27.5298 8.31491 25.5447 8.31491C23.6933 8.31491 22.1426 10.4671 21.7416 12.7263L28.2049 12.6594Z" fill="white"/>
<path d="M34.5357 22.3442L34.2349 18.14L34.4354 18.1066L35.1439 19.6239C35.9861 21.5421 37.3296 22.8188 39.181 22.8188C41.1661 22.8188 42.416 21.5421 42.416 19.9915C42.416 18.3071 40.9589 17.3313 38.7733 16.556C36.7213 15.814 34.7362 14.8716 34.7362 12.2114C34.7362 9.55122 36.9285 8.00724 39.7224 8.00724C40.8988 8.00724 41.908 8.20776 42.7836 8.58206L43.8597 8.21444L44.0268 12.2515L43.8263 12.2849L41.9749 9.32397C41.5003 8.88283 40.6982 8.3147 39.6556 8.3147C37.871 8.3147 36.8884 9.35739 36.8884 10.8412C36.8884 12.5256 38.272 13.0937 40.3975 13.869C42.7903 14.7446 44.742 15.7205 44.742 18.4475C44.742 20.8738 42.65 23.1262 38.9471 23.1262C37.0956 23.1262 35.7856 22.8255 34.5357 22.3509V22.3442Z" fill="white"/>
<path d="M46.9727 22.4846L47.5809 22.4511C48.6236 22.3843 48.9979 22.3509 48.9979 21.9499V12.325C48.9979 10.2731 48.7639 9.9322 47.621 9.69826L46.8457 9.53116L46.8791 9.39748L51.8252 8.08744V22.0234C51.8252 22.2907 52.0257 22.3576 53.5095 22.4578L53.9841 22.4912L54.0843 22.6918H46.8791L46.9793 22.4912L46.9727 22.4846ZM48.1824 3.3686C48.1824 2.59327 48.7573 1.45032 50.1007 1.45032C51.4442 1.45032 52.019 2.59327 52.019 3.3686C52.019 4.14394 51.4108 5.22004 50.1007 5.22004C48.7907 5.22004 48.1824 4.11052 48.1824 3.3686Z" fill="white"/>
<path d="M55.7756 27.4642C55.7756 25.5459 58.0949 24.0287 59.8795 23.3937V23.3269C57.627 23.0929 56.1098 22.0837 56.1098 20.7335C56.1098 18.9489 58.1951 17.7057 59.9129 17.4049V17.3047C58.3622 16.7299 56.8851 15.1859 56.8851 13.1005C56.8851 10.2064 59.3448 8.05416 62.5397 8.05416C64.1572 8.05416 65.4004 8.62898 66.4431 9.39763L70.5136 8.58887L70.1794 10.3066L66.9845 9.83208L66.9511 9.93234C67.6595 10.574 68.2277 11.6835 68.2277 12.8265C68.2277 15.5869 65.7346 17.7726 62.4394 17.7726C61.7309 17.7726 60.7885 17.6055 60.4209 17.5386C59.2445 17.7391 58.4358 18.314 58.4358 19.2564C58.4358 20.3325 59.4116 20.6333 61.2296 20.6333C62.1721 20.6333 63.7561 20.533 64.9659 20.533C68.1943 20.533 69.912 21.9099 69.912 24.3696C69.912 28.1393 66.4765 31 61.2296 31C57.7941 31 55.7756 29.69 55.7756 27.4642ZM68.1608 26.1542C68.1608 24.4698 66.9176 23.3603 63.7829 23.26C62.8739 23.2266 61.2564 23.3269 60.2805 23.4606C59.1376 23.895 58.0615 25.2452 58.0615 26.622C58.0615 28.8411 60.2137 30.3583 63.0744 30.3583C65.9351 30.3583 68.1542 28.4066 68.1542 26.1542H68.1608ZM65.4338 13.2275C65.4338 10.4671 64.8256 8.31483 62.5063 8.31483C60.8553 8.31483 59.8126 10.066 59.8126 12.7596C59.8126 15.6872 60.8219 17.5052 62.5397 17.5052C64.2574 17.5052 65.4338 15.7874 65.4338 13.2342V13.2275Z" fill="white"/>
<path d="M72.6795 22.4847L73.2878 22.4513C74.3305 22.3845 74.7048 22.351 74.7048 21.95V12.3586C74.7048 10.2732 74.4708 9.93903 73.3279 9.69841L72.5526 9.53132L72.586 9.39764L77.5655 8.08759L77.4652 10.8815L77.5655 10.9149C78.8755 9.80536 80.8272 8.02075 83.2201 8.02075C84.2962 8.02075 85.2052 8.32153 85.8468 8.9966C86.6222 9.73852 86.8895 10.9149 86.8895 12.3653V21.9901C86.8895 22.1906 86.8895 22.3243 88.6073 22.4647L89.0417 22.4981L89.142 22.6986H81.9702L82.0704 22.4981L82.6787 22.4647C83.855 22.3978 84.0221 22.2307 84.0221 21.9634V12.8398C84.0221 10.8547 83.0797 9.97914 81.0612 9.97914C79.5439 9.97914 78.3675 10.5874 77.5254 11.356V22.0235C77.5254 22.2909 77.7259 22.3577 79.1763 22.458L79.6776 22.4914L79.7444 22.6919H72.5726L72.6729 22.4914L72.6795 22.4847Z" fill="white"/>
<path d="M100.183 22.3442L99.8827 18.14L100.083 18.1066L100.792 19.6239C101.634 21.5421 102.977 22.8188 104.829 22.8188C106.814 22.8188 107.99 21.5421 107.99 19.9915C107.99 18.3071 106.613 17.3313 104.421 16.556C102.369 15.814 100.384 14.8716 100.384 12.2114C100.384 9.55122 102.503 8.00724 105.297 8.00724C106.473 8.00724 107.482 8.20776 108.358 8.58206L109.434 8.21444L109.601 12.2515L109.401 12.2849L107.549 9.32397C107.075 8.88283 106.273 8.3147 105.23 8.3147C103.445 8.3147 102.536 9.35739 102.536 10.8412C102.536 12.5256 103.846 13.0937 105.972 13.869C108.365 14.7446 110.316 15.7205 110.316 18.4475C110.316 20.8738 108.298 23.1262 104.595 23.1262C102.743 23.1262 101.433 22.8255 100.183 22.3509V22.3442Z" fill="white"/>
<path d="M114.561 19.6238L114.728 9.86531L112.068 9.83189L112.202 9.46428L113.853 8.22107L117.522 5.32694L117.622 5.36036L117.589 8.42159L122.669 8.45501L122.06 9.73163H117.582L117.348 19.4567C117.348 20.6331 118.057 21.4753 119.668 21.4753C120.911 21.4753 121.82 21.0341 122.528 20.3991L122.695 20.5328C121.352 21.8763 119.701 23.1262 117.983 23.1262C115.731 23.1262 114.514 22.0166 114.548 19.6238H114.561Z" fill="white"/>
<path d="M124.052 15.6135C124.052 11.3759 127.314 7.97383 131.792 7.97383C136.27 7.97383 139.532 11.2356 139.532 15.4799C139.532 19.7241 136.27 23.1196 131.792 23.1196C127.314 23.1196 124.052 19.8578 124.052 15.6135ZM136.136 15.7806C136.136 13.1539 135.562 10.634 134.318 9.38414C133.677 8.7759 132.908 8.24119 131.725 8.24119C128.764 8.24119 127.447 11.8772 127.447 15.1724C127.447 17.9328 127.922 20.3858 129.198 21.6691C129.94 22.4111 130.749 22.8455 131.825 22.8455C134.586 22.8455 136.136 19.3432 136.136 15.7806Z" fill="white"/>
<path d="M141.705 22.4846L142.313 22.4511C143.355 22.3843 143.73 22.3509 143.73 21.9499V12.325C143.73 10.2731 143.496 9.9322 142.353 9.69826L141.578 9.53116L141.611 9.39748L146.557 8.08744V22.0234C146.557 22.2907 146.758 22.3576 148.241 22.4578L148.716 22.4912L148.816 22.6918H141.611L141.711 22.4912L141.705 22.4846ZM142.914 3.3686C142.914 2.59327 143.489 1.45032 144.833 1.45032C146.176 1.45032 146.751 2.59327 146.751 3.3686C146.751 4.14394 146.143 5.22004 144.833 5.22004C143.523 5.22004 142.914 4.11052 142.914 3.3686Z" fill="white"/>
<path d="M150.399 15.8878C150.399 11.5767 153.36 7.98071 157.939 7.98071C160.632 7.98071 162.985 9.09024 162.985 11.0419C162.985 11.9844 162.21 12.7931 161.301 12.7931C160.325 12.7931 159.583 12.0178 159.583 11.1756C159.583 10.0661 160.258 9.62495 160.258 9.3576C160.258 8.92314 159.149 8.24807 158.106 8.24807C155.479 8.24807 153.461 10.9751 153.461 14.8117C153.461 18.6482 155.713 21.1413 158.641 21.1413C160.559 21.1413 161.735 20.5999 163.019 18.4811L163.286 18.6148C161.702 21.4755 159.884 23.1264 157.13 23.1264C153.227 23.1264 150.399 19.9984 150.399 15.8878Z" fill="white"/>
<path fill-rule="evenodd" clip-rule="evenodd" d="M131.792 18.4408C131.792 16.8433 130.495 15.5533 128.898 15.5533C130.495 15.5533 131.792 14.2566 131.792 12.6525C131.792 14.25 133.089 15.5399 134.686 15.5399C133.089 15.5399 131.792 16.8366 131.792 18.4408Z" fill="white"/>
</svg>
