<svg width="620" height="167" viewBox="0 0 620 167" fill="none" xmlns="http://www.w3.org/2000/svg">
<mask id="path-1-outside-1_3810_977" maskUnits="userSpaceOnUse" x="0.0292969" y="0.0313721" width="620" height="167" fill="black">
<rect fill="white" x="0.0292969" y="0.0313721" width="620" height="167"/>
<path d="M1.88036 129.031V1.86815H83.3443V21.1786H24.9163V55.7014H77.7561V75.0118H24.9163V129.031H1.88036ZM122.934 130.956C116.891 130.956 111.447 129.88 106.604 127.727C101.803 125.534 97.9943 122.305 95.1795 118.041C92.4061 113.778 91.0194 108.521 91.0194 102.27C91.0194 96.8887 92.0129 92.4388 93.9998 88.9203C95.9867 85.4018 98.698 82.587 102.134 80.4759C105.569 78.3648 109.44 76.7711 113.745 75.6948C118.091 74.5772 122.583 73.77 127.219 73.2733C132.807 72.6938 137.34 72.1763 140.817 71.721C144.294 71.2243 146.819 70.4792 148.392 69.4857C150.006 68.4508 150.813 66.8572 150.813 64.7047V64.3321C150.813 59.6546 149.427 56.0326 146.653 53.4661C143.88 50.8997 139.885 49.6165 134.67 49.6165C129.164 49.6165 124.797 50.8169 121.568 53.2178C118.381 55.6186 116.229 58.4541 115.111 61.7243L94.124 58.7439C95.7798 52.9487 98.5118 48.1056 102.32 44.2145C106.128 40.282 110.785 37.343 116.291 35.3975C121.796 33.4106 127.881 32.4171 134.545 32.4171C139.14 32.4171 143.714 32.9553 148.268 34.0315C152.821 35.1078 156.981 36.8877 160.748 39.3714C164.515 41.8136 167.537 45.1459 169.813 49.3681C172.131 53.5903 173.291 58.8681 173.291 65.2014V129.031H151.683V115.93H150.938C149.572 118.579 147.647 121.063 145.163 123.381C142.721 125.658 139.637 127.5 135.912 128.907C132.227 130.273 127.902 130.956 122.934 130.956ZM128.771 114.44C133.283 114.44 137.195 113.55 140.506 111.77C143.818 109.949 146.364 107.548 148.144 104.567C149.965 101.587 150.876 98.3375 150.876 94.819V83.5805C150.172 84.16 148.971 84.6981 147.274 85.1948C145.618 85.6916 143.756 86.1262 141.686 86.4988C139.616 86.8713 137.567 87.2025 135.539 87.4922C133.511 87.782 131.751 88.0303 130.261 88.2373C126.908 88.6926 123.907 89.4377 121.258 90.4726C118.609 91.5075 116.518 92.9563 114.987 94.819C113.455 96.6403 112.689 98.9998 112.689 101.897C112.689 106.037 114.2 109.162 117.222 111.273C120.244 113.384 124.093 114.44 128.771 114.44ZM234.87 130.894C225.35 130.894 217.174 128.804 210.344 124.623C203.556 120.442 198.319 114.668 194.635 107.299C190.992 99.8898 189.171 91.3626 189.171 81.7177C189.171 72.0315 191.034 63.4835 194.759 56.074C198.485 48.623 203.742 42.8278 210.53 38.6884C217.361 34.5075 225.432 32.4171 234.746 32.4171C242.487 32.4171 249.338 33.8452 255.298 36.7014C261.301 39.5162 266.082 43.5108 269.642 48.6851C273.201 53.818 275.23 59.8201 275.726 66.6916H254.243C253.374 62.0968 251.304 58.2679 248.034 55.2047C244.805 52.1001 240.479 50.5478 235.057 50.5478C230.462 50.5478 226.426 51.7896 222.949 54.2733C219.472 56.7156 216.76 60.2341 214.815 64.8288C212.911 69.4236 211.959 74.929 211.959 81.3452C211.959 87.8441 212.911 93.4323 214.815 98.1098C216.719 102.746 219.389 106.327 222.825 108.852C226.302 111.335 230.379 112.577 235.057 112.577C238.368 112.577 241.328 111.956 243.936 110.714C246.585 109.431 248.799 107.589 250.579 105.188C252.359 102.787 253.581 99.8691 254.243 96.4334H275.726C275.188 103.181 273.201 109.162 269.766 114.378C266.33 119.552 261.652 123.609 255.733 126.548C249.814 129.445 242.859 130.894 234.87 130.894ZM339.185 33.659V51.0446H284.358V33.659H339.185ZM297.894 10.8093H320.371V100.345C320.371 103.367 320.826 105.685 321.737 107.299C322.689 108.872 323.931 109.949 325.462 110.528C326.994 111.108 328.691 111.397 330.554 111.397C331.961 111.397 333.244 111.294 334.403 111.087C335.604 110.88 336.515 110.694 337.135 110.528L340.923 128.1C339.723 128.514 338.005 128.969 335.769 129.466C333.576 129.963 330.885 130.253 327.698 130.335C322.068 130.501 316.997 129.652 312.485 127.79C307.973 125.885 304.393 122.946 301.743 118.973C299.136 114.999 297.852 110.031 297.894 104.071V10.8093ZM395.937 130.894C386.623 130.894 378.551 128.845 371.721 124.747C364.891 120.649 359.593 114.916 355.826 107.548C352.1 100.18 350.237 91.5696 350.237 81.7177C350.237 71.8659 352.1 63.2352 355.826 55.8256C359.593 48.416 364.891 42.6622 371.721 38.5642C378.551 34.4661 386.623 32.4171 395.937 32.4171C405.25 32.4171 413.322 34.4661 420.152 38.5642C426.982 42.6622 432.26 48.416 435.986 55.8256C439.753 63.2352 441.636 71.8659 441.636 81.7177C441.636 91.5696 439.753 100.18 435.986 107.548C432.26 114.916 426.982 120.649 420.152 124.747C413.322 128.845 405.25 130.894 395.937 130.894ZM396.061 112.888C401.111 112.888 405.333 111.501 408.728 108.727C412.122 105.913 414.647 102.146 416.303 97.4268C418 92.7079 418.848 87.4508 418.848 81.6556C418.848 75.819 418 70.5413 416.303 65.8223C414.647 61.062 412.122 57.2744 408.728 54.4596C405.333 51.6448 401.111 50.2374 396.061 50.2374C390.887 50.2374 386.582 51.6448 383.146 54.4596C379.752 57.2744 377.206 61.062 375.509 65.8223C373.853 70.5413 373.025 75.819 373.025 81.6556C373.025 87.4508 373.853 92.7079 375.509 97.4268C377.206 102.146 379.752 105.913 383.146 108.727C386.582 111.501 390.887 112.888 396.061 112.888ZM458.091 129.031V33.659H479.885V49.5544H480.878C482.617 44.0489 485.597 39.806 489.82 36.8256C494.083 33.8038 498.947 32.2929 504.411 32.2929C505.653 32.2929 507.04 32.355 508.571 32.4792C510.144 32.562 511.448 32.7069 512.483 32.9139V53.5903C511.531 53.2591 510.02 52.9694 507.95 52.721C505.922 52.4313 503.956 52.2864 502.052 52.2864C497.954 52.2864 494.269 53.1764 490.999 54.9563C487.771 56.6949 485.225 59.1164 483.362 62.221C481.499 65.3256 480.568 68.9062 480.568 72.9628V129.031H458.091ZM546.038 164.796C542.975 164.796 540.139 164.548 537.531 164.051C534.965 163.596 532.916 163.057 531.384 162.437L536.6 144.927C539.87 145.879 542.788 146.334 545.355 146.293C547.921 146.251 550.177 145.444 552.123 143.871C554.11 142.34 555.786 139.773 557.152 136.172L559.077 131.018L524.492 33.659H548.335L570.315 105.685H571.309L593.351 33.659H617.257L579.07 140.58C577.29 145.63 574.931 149.956 571.992 153.557C569.053 157.2 565.452 159.974 561.188 161.878C556.966 163.823 551.916 164.796 546.038 164.796Z"/>
</mask>
<path d="M1.88036 129.031H0.423278V130.488H1.88036V129.031ZM1.88036 1.86815V0.411071H0.423278V1.86815H1.88036ZM83.3443 1.86815H84.8014V0.411071H83.3443V1.86815ZM83.3443 21.1786V22.6357H84.8014V21.1786H83.3443ZM24.9163 21.1786V19.7215H23.4592V21.1786H24.9163ZM24.9163 55.7014H23.4592V57.1585H24.9163V55.7014ZM77.7561 55.7014H79.2131V54.2443H77.7561V55.7014ZM77.7561 75.0118V76.4689H79.2131V75.0118H77.7561ZM24.9163 75.0118V73.5548H23.4592V75.0118H24.9163ZM24.9163 129.031V130.488H26.3734V129.031H24.9163ZM3.33743 129.031V1.86815H0.423278V129.031H3.33743ZM1.88036 3.32523H83.3443V0.411071H1.88036V3.32523ZM81.8872 1.86815V21.1786H84.8014V1.86815H81.8872ZM83.3443 19.7215H24.9163V22.6357H83.3443V19.7215ZM23.4592 21.1786V55.7014H26.3734V21.1786H23.4592ZM24.9163 57.1585H77.7561V54.2443H24.9163V57.1585ZM76.299 55.7014V75.0118H79.2131V55.7014H76.299ZM77.7561 73.5548H24.9163V76.4689H77.7561V73.5548ZM23.4592 75.0118V129.031H26.3734V75.0118H23.4592ZM24.9163 127.574H1.88036V130.488H24.9163V127.574ZM106.604 127.727L105.999 129.053L106.006 129.056L106.013 129.059L106.604 127.727ZM95.1795 118.041L93.9581 118.836L93.9636 118.844L95.1795 118.041ZM93.9998 88.9203L92.731 88.2038L92.731 88.2038L93.9998 88.9203ZM102.134 80.4759L101.371 79.2344L101.371 79.2344L102.134 80.4759ZM113.745 75.6948L114.098 77.1084L114.108 77.106L113.745 75.6948ZM127.219 73.2733L127.068 71.824L127.063 71.8245L127.219 73.2733ZM140.817 71.721L141.006 73.1657L141.014 73.1646L141.023 73.1634L140.817 71.721ZM148.392 69.4857L149.17 70.7177L149.178 70.7124L148.392 69.4857ZM146.653 53.4661L147.643 52.3967L147.643 52.3967L146.653 53.4661ZM121.568 53.2178L120.699 52.0485L120.692 52.0539L121.568 53.2178ZM115.111 61.7243L114.906 63.1669L116.1 63.3364L116.49 62.1955L115.111 61.7243ZM94.124 58.7439L92.723 58.3436L92.2636 59.9514L93.9191 60.1865L94.124 58.7439ZM102.32 44.2145L103.361 45.2337L103.367 45.2281L102.32 44.2145ZM116.291 35.3975L116.776 36.7714L116.785 36.7681L116.291 35.3975ZM160.748 39.3714L159.946 40.5879L159.955 40.594L160.748 39.3714ZM169.813 49.3681L168.531 50.0597L168.536 50.0693L169.813 49.3681ZM173.291 129.031V130.488H174.748V129.031H173.291ZM151.683 129.031H150.226V130.488H151.683V129.031ZM151.683 115.93H153.14V114.473H151.683V115.93ZM150.938 115.93V114.473H150.05L149.643 115.262L150.938 115.93ZM145.163 123.381L146.157 124.447L146.157 124.446L145.163 123.381ZM135.912 128.907L136.418 130.273L136.426 130.27L135.912 128.907ZM140.506 111.77L141.196 113.053L141.208 113.047L140.506 111.77ZM148.144 104.567L146.9 103.808L146.896 103.814L146.893 103.82L148.144 104.567ZM150.876 83.5805H152.333V80.4929L149.949 82.4557L150.876 83.5805ZM147.274 85.1948L146.865 83.7964L146.856 83.7992L147.274 85.1948ZM141.686 86.4988L141.944 87.9328L141.944 87.9328L141.686 86.4988ZM130.261 88.2373L130.457 89.6811L130.462 89.6805L130.261 88.2373ZM121.258 90.4726L120.728 89.1154L120.728 89.1154L121.258 90.4726ZM114.987 94.819L116.102 95.7568L116.107 95.7506L116.112 95.7444L114.987 94.819ZM117.222 111.273L116.388 112.468L116.388 112.468L117.222 111.273ZM122.934 129.499C117.066 129.499 111.829 128.455 107.196 126.396L106.013 129.059C111.066 131.305 116.715 132.413 122.934 132.413V129.499ZM107.21 126.402C102.648 124.318 99.0546 121.266 96.3955 117.238L93.9636 118.844C96.934 123.343 100.957 126.749 105.999 129.053L107.21 126.402ZM96.4009 117.247C93.8132 113.269 92.4765 108.303 92.4765 102.27H89.5623C89.5623 108.738 90.999 114.287 93.9581 118.836L96.4009 117.247ZM92.4765 102.27C92.4765 97.0594 93.4394 92.876 95.2686 89.6368L92.731 88.2038C90.5864 92.0017 89.5623 96.7181 89.5623 102.27H92.4765ZM95.2686 89.6368C97.1343 86.3329 99.6717 83.6989 102.897 81.7173L101.371 79.2344C97.7244 81.4751 94.8391 84.4708 92.731 88.2038L95.2686 89.6368ZM102.897 81.7173C106.193 79.6916 109.923 78.1522 114.098 77.1084L113.391 74.2813C108.956 75.39 104.946 77.038 101.371 79.2344L102.897 81.7173ZM114.108 77.106C118.383 76.0066 122.805 75.2116 127.374 74.7221L127.063 71.8245C122.36 72.3284 117.799 73.1478 113.382 74.2837L114.108 77.106ZM127.369 74.7226C132.964 74.1424 137.511 73.6235 141.006 73.1657L140.628 70.2762C137.169 70.7292 132.65 71.2451 127.068 71.824L127.369 74.7226ZM141.023 73.1634C144.554 72.6589 147.33 71.8797 149.17 70.7176L147.614 68.2538C146.308 69.0786 144.033 69.7896 140.611 70.2786L141.023 73.1634ZM149.178 70.7124C151.268 69.373 152.271 67.2818 152.271 64.7047H149.356C149.356 66.4326 148.745 67.5287 147.606 68.259L149.178 70.7124ZM152.271 64.7047V64.3321H149.356V64.7047H152.271ZM152.271 64.3321C152.271 59.3522 150.783 55.3022 147.643 52.3967L145.664 54.5356C148.071 56.7629 149.356 59.957 149.356 64.3321H152.271ZM147.643 52.3967C144.512 49.4996 140.112 48.1594 134.67 48.1594V51.0735C139.659 51.0735 143.248 52.2998 145.664 54.5356L147.643 52.3967ZM134.67 48.1594C128.964 48.1594 124.257 49.4028 120.699 52.0485L122.438 54.387C125.337 52.2309 129.364 51.0735 134.67 51.0735V48.1594ZM120.692 52.0539C117.309 54.6023 114.958 57.6661 113.732 61.253L116.49 62.1955C117.499 59.2421 119.454 56.6349 122.445 54.3816L120.692 52.0539ZM115.316 60.2817L94.3288 57.3013L93.9191 60.1865L114.906 63.1669L115.316 60.2817ZM95.525 59.1442C97.1215 53.5565 99.7402 48.9336 103.361 45.2337L101.279 43.1953C97.2834 47.2775 94.438 52.3408 92.723 58.3436L95.525 59.1442ZM103.367 45.2281C107.008 41.4682 111.469 38.6469 116.776 36.7713L115.805 34.0237C110.102 36.0392 105.249 39.0959 101.273 43.2008L103.367 45.2281ZM116.785 36.7681C122.112 34.8457 128.027 33.8742 134.545 33.8742V30.9601C127.735 30.9601 121.48 31.9754 115.796 34.027L116.785 36.7681ZM134.545 33.8742C139.025 33.8742 143.487 34.3987 147.933 35.4495L148.603 32.6135C143.942 31.5118 139.255 30.9601 134.545 30.9601V33.8742ZM147.933 35.4495C152.326 36.4879 156.327 38.2017 159.946 40.5878L161.55 38.1549C157.635 35.5738 153.316 33.7276 148.603 32.6135L147.933 35.4495ZM159.955 40.594C163.503 42.894 166.362 46.0375 168.531 50.0596L171.096 48.6765C168.711 44.2542 165.527 40.7332 161.541 38.1488L159.955 40.594ZM168.536 50.0693C170.705 54.0195 171.833 59.0385 171.833 65.2014H174.748C174.748 58.6976 173.558 53.1611 171.091 48.6669L168.536 50.0693ZM171.833 65.2014V129.031H174.748V65.2014H171.833ZM173.291 127.574H151.683V130.488H173.291V127.574ZM153.14 129.031V115.93H150.226V129.031H153.14ZM151.683 114.473H150.938V117.387H151.683V114.473ZM149.643 115.262C148.363 117.744 146.547 120.096 144.169 122.316L146.157 124.446C148.746 122.03 150.78 119.415 152.233 116.598L149.643 115.262ZM144.17 122.315C141.89 124.44 138.978 126.191 135.397 127.544L136.426 130.27C140.296 128.808 143.552 126.875 146.157 124.447L144.17 122.315ZM135.405 127.541C131.919 128.833 127.773 129.499 122.934 129.499V132.413C128.031 132.413 132.535 131.713 136.418 130.273L135.405 127.541ZM128.771 115.897C133.476 115.897 137.634 114.968 141.196 113.053L139.816 110.487C136.756 112.132 133.09 112.983 128.771 112.983V115.897ZM141.208 113.047C144.726 111.112 147.47 108.536 149.394 105.314L146.893 103.82C145.257 106.559 142.91 108.785 139.804 110.493L141.208 113.047ZM149.387 105.327C151.349 102.116 152.333 98.6035 152.333 94.819H149.418C149.418 98.0715 148.581 101.058 146.9 103.808L149.387 105.327ZM152.333 94.819V83.5805H149.418V94.819H152.333ZM149.949 82.4557C149.482 82.8407 148.517 83.3128 146.865 83.7964L147.684 86.5932C149.425 86.0834 150.862 85.4792 151.802 84.7052L149.949 82.4557ZM146.856 83.7992C145.262 84.2772 143.455 84.6999 141.428 85.0647L141.944 87.9328C144.057 87.5525 145.975 87.106 147.693 86.5905L146.856 83.7992ZM141.428 85.0647C139.375 85.4342 137.343 85.7626 135.333 86.0498L135.745 88.9346C137.791 88.6423 139.858 88.3084 141.944 87.9328L141.428 85.0647ZM135.333 86.0498C133.306 86.3394 131.549 86.5874 130.061 86.7941L130.462 89.6805C131.954 89.4732 133.715 89.2246 135.745 88.9346L135.333 86.0498ZM130.065 86.7935C126.619 87.2615 123.503 88.0315 120.728 89.1154L121.788 91.8298C124.312 90.844 127.198 90.1238 130.457 89.6811L130.065 86.7935ZM120.728 89.1154C117.888 90.2246 115.577 91.8065 113.861 93.8936L116.112 95.7444C117.459 94.106 119.329 92.7903 121.788 91.8298L120.728 89.1154ZM113.872 93.8812C112.074 96.019 111.232 98.7343 111.232 101.897H114.146C114.146 99.2654 114.836 97.2617 116.102 95.7568L113.872 93.8812ZM111.232 101.897C111.232 106.445 112.923 110.047 116.388 112.468L118.056 110.079C115.477 108.277 114.146 105.629 114.146 101.897H111.232ZM116.388 112.468C119.713 114.791 123.875 115.897 128.771 115.897V112.983C124.312 112.983 120.775 111.978 118.056 110.079L116.388 112.468ZM210.344 124.623L209.58 125.864L209.583 125.866L210.344 124.623ZM194.635 107.299L193.327 107.942L193.332 107.951L194.635 107.299ZM194.759 56.074L196.061 56.7285L196.063 56.7256L194.759 56.074ZM210.53 38.6884L211.289 39.9324L211.291 39.9311L210.53 38.6884ZM255.298 36.7014L254.669 38.0155L254.68 38.0206L255.298 36.7014ZM269.642 48.6851L268.441 49.511L268.444 49.5155L269.642 48.6851ZM275.726 66.6916V68.1487H277.293L277.18 66.5865L275.726 66.6916ZM254.243 66.6916L252.811 66.9624L253.036 68.1487H254.243V66.6916ZM248.034 55.2047L247.024 56.255L247.031 56.2616L247.038 56.2681L248.034 55.2047ZM222.949 54.2733L223.786 55.4657L223.796 55.459L222.949 54.2733ZM214.815 64.8288L213.473 64.2607L213.469 64.271L214.815 64.8288ZM214.815 98.1098L213.465 98.6592L213.467 98.6634L214.815 98.1098ZM222.825 108.852L221.962 110.026L221.97 110.032L221.978 110.037L222.825 108.852ZM243.936 110.714L244.562 112.03L244.571 112.026L243.936 110.714ZM250.579 105.188L249.409 104.32L249.409 104.32L250.579 105.188ZM254.243 96.4334V94.9763H253.04L252.812 96.1576L254.243 96.4334ZM275.726 96.4334L277.179 96.5492L277.304 94.9763H275.726V96.4334ZM269.766 114.378L270.98 115.184L270.982 115.179L269.766 114.378ZM255.733 126.548L256.374 127.856L256.381 127.853L255.733 126.548ZM234.87 129.437C225.567 129.437 217.666 127.396 211.105 123.38L209.583 125.866C216.683 130.211 225.132 132.351 234.87 132.351V129.437ZM211.108 123.382C204.559 119.349 199.505 113.782 195.938 106.648L193.332 107.951C197.133 115.553 202.552 121.536 209.58 125.864L211.108 123.382ZM195.943 106.657C192.414 99.478 190.628 91.177 190.628 81.7177H187.714C187.714 91.5481 189.571 100.302 193.327 107.942L195.943 106.657ZM190.628 81.7177C190.628 72.2206 192.454 63.9035 196.061 56.7285L193.457 55.4194C189.614 63.0636 187.714 71.8423 187.714 81.7177H190.628ZM196.063 56.7256C199.672 49.5071 204.745 43.9224 211.289 39.9324L209.772 37.4443C202.738 41.7331 197.298 47.7389 193.456 55.4223L196.063 56.7256ZM211.291 39.9311C217.857 35.912 225.656 33.8742 234.746 33.8742V30.9601C225.208 30.9601 216.864 33.1031 209.77 37.4456L211.291 39.9311ZM234.746 33.8742C242.306 33.8742 248.935 35.2682 254.669 38.0155L255.928 35.3874C249.74 32.4222 242.668 30.9601 234.746 30.9601V33.8742ZM254.68 38.0206C260.461 40.7319 265.036 44.5618 268.441 49.511L270.842 47.8592C267.127 42.4597 262.14 38.3006 255.917 35.3822L254.68 38.0206ZM268.444 49.5155C271.84 54.4123 273.793 60.158 274.273 66.7966L277.18 66.5865C276.666 59.4823 274.562 53.2237 270.839 47.8547L268.444 49.5155ZM275.726 65.2345H254.243V68.1487H275.726V65.2345ZM255.675 66.4207C254.75 61.5364 252.536 57.4254 249.03 54.1413L247.038 56.2681C250.072 59.1103 251.997 62.6572 252.811 66.9624L255.675 66.4207ZM249.044 54.1544C245.488 50.7358 240.772 49.0907 235.057 49.0907V52.0049C240.187 52.0049 244.122 53.4644 247.024 56.255L249.044 54.1544ZM235.057 49.0907C230.182 49.0907 225.845 50.4139 222.102 53.0876L223.796 55.459C227.007 53.1654 230.741 52.0049 235.057 52.0049V49.0907ZM222.111 53.081C218.375 55.7056 215.506 59.4592 213.473 64.2607L216.157 65.397C218.015 61.009 220.569 57.7255 223.786 55.4657L222.111 53.081ZM213.469 64.271C211.473 69.0858 210.502 74.7907 210.502 81.3452H213.416C213.416 75.0674 214.348 69.7614 216.161 65.3867L213.469 64.271ZM210.502 81.3452C210.502 87.9808 211.473 93.765 213.465 98.6592L216.164 97.5605C214.348 93.0996 213.416 87.7073 213.416 81.3452H210.502ZM213.467 98.6634C215.455 103.503 218.275 107.316 221.962 110.026L223.687 107.678C220.503 105.337 217.983 101.989 216.163 97.5563L213.467 98.6634ZM221.978 110.037C225.725 112.714 230.106 114.034 235.057 114.034V111.12C230.653 111.12 226.878 109.956 223.671 107.666L221.978 110.037ZM235.057 114.034C238.553 114.034 241.732 113.378 244.562 112.03L243.309 109.399C240.924 110.535 238.183 111.12 235.057 111.12V114.034ZM244.571 112.026C247.435 110.638 249.832 108.643 251.75 106.056L249.409 104.32C247.767 106.535 245.735 108.224 243.3 109.403L244.571 112.026ZM251.75 106.056C253.68 103.452 254.977 100.323 255.674 96.7092L252.812 96.1576C252.184 99.4154 251.039 102.122 249.409 104.32L251.75 106.056ZM254.243 97.8905H275.726V94.9763H254.243V97.8905ZM274.274 96.3175C273.754 102.841 271.838 108.583 268.549 113.576L270.982 115.179C274.564 109.742 276.623 103.52 277.179 96.5492L274.274 96.3175ZM268.552 113.572C265.267 118.519 260.79 122.41 255.085 125.243L256.381 127.853C262.514 124.808 267.393 120.585 270.98 115.184L268.552 113.572ZM255.092 125.239C249.41 128.02 242.684 129.437 234.87 129.437V132.351C243.035 132.351 250.217 130.87 256.374 127.856L255.092 125.239ZM339.185 33.659H340.642V32.2019H339.185V33.659ZM339.185 51.0446V52.5016H340.642V51.0446H339.185ZM284.358 51.0446H282.901V52.5016H284.358V51.0446ZM284.358 33.659V32.2019H282.901V33.659H284.358ZM297.894 10.8093V9.35224H296.437V10.8093H297.894ZM320.371 10.8093H321.828V9.35224H320.371V10.8093ZM321.737 107.299L320.468 108.015L320.479 108.035L320.49 108.054L321.737 107.299ZM325.462 110.528L324.947 111.891L324.947 111.891L325.462 110.528ZM334.403 111.087L334.156 109.651L334.147 109.653L334.403 111.087ZM337.135 110.528L338.56 110.221L338.238 108.726L336.76 109.12L337.135 110.528ZM340.923 128.1L341.398 129.477L342.62 129.056L342.347 127.793L340.923 128.1ZM335.769 129.466L335.453 128.044L335.448 128.045L335.769 129.466ZM327.698 130.335L327.66 128.879L327.655 128.879L327.698 130.335ZM312.485 127.79L311.919 129.132L311.929 129.136L312.485 127.79ZM301.743 118.973L300.525 119.772L300.531 119.781L301.743 118.973ZM297.894 104.071L299.351 104.081V104.071H297.894ZM337.727 33.659V51.0446H340.642V33.659H337.727ZM339.185 49.5875H284.358V52.5016H339.185V49.5875ZM285.815 51.0446V33.659H282.901V51.0446H285.815ZM284.358 35.116H339.185V32.2019H284.358V35.116ZM297.894 12.2664H320.371V9.35224H297.894V12.2664ZM318.914 10.8093V100.345H321.828V10.8093H318.914ZM318.914 100.345C318.914 103.477 319.379 106.086 320.468 108.015L323.006 106.583C322.273 105.284 321.828 103.257 321.828 100.345H318.914ZM320.49 108.054C321.589 109.87 323.073 111.182 324.947 111.891L325.978 109.165C324.788 108.715 323.789 107.875 322.983 106.545L320.49 108.054ZM324.947 111.891C326.664 112.541 328.539 112.854 330.554 112.854V109.94C328.843 109.94 327.324 109.675 325.978 109.165L324.947 111.891ZM330.554 112.854C332.031 112.854 333.402 112.746 334.66 112.521L334.147 109.653C333.087 109.842 331.891 109.94 330.554 109.94V112.854ZM334.651 112.523C335.864 112.314 336.826 112.119 337.511 111.936L336.76 109.12C336.203 109.269 335.344 109.446 334.156 109.651L334.651 112.523ZM335.711 110.835L339.499 128.407L342.347 127.793L338.56 110.221L335.711 110.835ZM340.448 126.723C339.325 127.11 337.67 127.551 335.453 128.044L336.086 130.888C338.339 130.388 340.12 129.918 341.398 129.477L340.448 126.723ZM335.448 128.045C333.377 128.514 330.788 128.797 327.66 128.879L327.735 131.792C330.982 131.708 333.774 131.412 336.091 130.887L335.448 128.045ZM327.655 128.879C322.199 129.039 317.337 128.216 313.041 126.443L311.929 129.136C316.658 131.089 321.937 131.962 327.74 131.792L327.655 128.879ZM313.052 126.447C308.796 124.651 305.442 121.894 302.956 118.164L300.531 119.781C303.343 123.998 307.151 127.12 311.919 129.132L313.052 126.447ZM302.962 118.173C300.547 114.494 299.311 109.827 299.351 104.081L296.437 104.061C296.394 110.236 297.724 115.503 300.525 119.772L302.962 118.173ZM299.351 104.071V10.8093H296.437V104.071H299.351ZM371.721 124.747L370.971 125.996L370.971 125.996L371.721 124.747ZM355.826 107.548L354.525 108.205L354.528 108.211L355.826 107.548ZM355.826 55.8256L354.527 55.1653L354.524 55.1711L355.826 55.8256ZM371.721 38.5642L372.471 39.8136L372.471 39.8136L371.721 38.5642ZM420.152 38.5642L419.403 39.8136L419.403 39.8136L420.152 38.5642ZM435.986 55.8256L434.684 56.4801L434.687 56.4859L435.986 55.8256ZM435.986 107.548L434.688 106.884L434.685 106.89L435.986 107.548ZM420.152 124.747L419.403 123.498L419.403 123.498L420.152 124.747ZM408.728 108.727L409.649 109.856L409.658 109.849L408.728 108.727ZM416.303 97.4268L414.932 96.9337L414.928 96.9444L416.303 97.4268ZM416.303 65.8223L414.926 66.301L414.929 66.3082L414.932 66.3154L416.303 65.8223ZM408.728 54.4596L409.658 53.338L409.658 53.338L408.728 54.4596ZM383.146 54.4596L382.222 53.3324L382.216 53.338L383.146 54.4596ZM375.509 65.8223L374.136 65.333L374.134 65.3399L375.509 65.8223ZM375.509 97.4268L374.134 97.9093L374.138 97.92L375.509 97.4268ZM383.146 108.727L382.216 109.849L382.223 109.855L382.231 109.861L383.146 108.727ZM395.937 129.437C386.842 129.437 379.038 127.438 372.471 123.498L370.971 125.996C378.064 130.252 386.404 132.351 395.937 132.351V129.437ZM372.471 123.498C365.884 119.546 360.771 114.02 357.123 106.884L354.528 108.211C358.414 115.812 363.898 121.753 370.971 125.996L372.471 123.498ZM357.126 106.89C353.522 99.7617 351.694 91.3849 351.694 81.7177H348.78C348.78 91.7542 350.679 100.597 354.525 108.205L357.126 106.89ZM351.694 81.7177C351.694 72.0508 353.522 63.6518 357.127 56.4801L354.524 55.1711C350.679 62.8185 348.78 71.681 348.78 81.7177H351.694ZM357.125 56.4859C360.773 49.3092 365.886 43.7645 372.471 39.8136L370.971 37.3147C363.896 41.56 358.412 47.5228 354.527 55.1653L357.125 56.4859ZM372.471 39.8136C379.038 35.873 386.842 33.8742 395.937 33.8742V30.9601C386.404 30.9601 378.064 33.0593 370.971 37.3147L372.471 39.8136ZM395.937 33.8742C405.032 33.8742 412.835 35.873 419.403 39.8136L420.902 37.3147C413.81 33.0593 405.469 30.9601 395.937 30.9601V33.8742ZM419.403 39.8136C425.986 43.7636 431.077 49.3064 434.684 56.4801L437.287 55.1711C433.443 47.5256 427.979 41.5608 420.902 37.3147L419.403 39.8136ZM434.687 56.4859C438.332 63.6563 440.179 72.0531 440.179 81.7177H443.093C443.093 71.6787 441.173 62.8141 437.285 55.1653L434.687 56.4859ZM440.179 81.7177C440.179 91.3826 438.332 99.7573 434.688 106.884L437.283 108.211C441.173 100.602 443.093 91.7565 443.093 81.7177H440.179ZM434.685 106.89C431.079 114.023 425.988 119.546 419.403 123.498L420.902 125.996C427.977 121.752 433.441 115.809 437.286 108.205L434.685 106.89ZM419.403 123.498C412.835 127.438 405.032 129.437 395.937 129.437V132.351C405.469 132.351 413.81 130.252 420.902 125.996L419.403 123.498ZM396.061 114.345C401.393 114.345 405.956 112.874 409.649 109.856L407.806 107.599C404.71 110.128 400.829 111.431 396.061 111.431V114.345ZM409.658 109.849C413.282 106.844 415.946 102.843 417.678 97.9093L414.928 96.9444C413.348 101.448 410.962 104.982 407.797 107.606L409.658 109.849ZM417.674 97.92C419.436 93.0203 420.306 87.5932 420.306 81.6556H417.391C417.391 87.3084 416.564 92.3955 414.932 96.9337L417.674 97.92ZM420.306 81.6556C420.306 75.6779 419.436 70.2299 417.674 65.3292L414.932 66.3154C416.563 70.8526 417.391 75.9601 417.391 81.6556H420.306ZM417.679 65.3436C415.949 60.3689 413.284 56.3456 409.658 53.338L407.797 55.5812C410.959 58.2032 413.345 61.755 414.926 66.301L417.679 65.3436ZM409.658 53.338C405.964 50.2753 401.399 48.7803 396.061 48.7803V51.6944C400.823 51.6944 404.702 53.0143 407.797 55.5812L409.658 53.338ZM396.061 48.7803C390.608 48.7803 385.96 50.2701 382.222 53.3325L384.069 55.5867C387.203 53.0195 391.165 51.6944 396.061 51.6944V48.7803ZM382.216 53.338C378.592 56.3432 375.908 60.3626 374.136 65.333L376.881 66.3116C378.503 61.7613 380.911 58.2056 384.076 55.5812L382.216 53.338ZM374.134 65.3399C372.415 70.2373 371.568 75.6816 371.568 81.6556H374.482C374.482 75.9564 375.29 70.8452 376.884 66.3047L374.134 65.3399ZM371.568 81.6556C371.568 87.5895 372.416 93.0128 374.134 97.9093L376.884 96.9444C375.29 92.4029 374.482 87.3121 374.482 81.6556H371.568ZM374.138 97.92C375.911 102.85 378.595 106.846 382.216 109.849L384.076 107.606C380.908 104.979 378.501 101.442 376.88 96.9337L374.138 97.92ZM382.231 109.861C385.969 112.879 390.613 114.345 396.061 114.345V111.431C391.16 111.431 387.195 110.123 384.061 107.594L382.231 109.861ZM458.091 129.031H456.634V130.488H458.091V129.031ZM458.091 33.659V32.2019H456.634V33.659H458.091ZM479.885 33.659H481.342V32.2019H479.885V33.659ZM479.885 49.5544H478.428V51.0114H479.885V49.5544ZM480.878 49.5544V51.0114H481.946L482.268 49.9931L480.878 49.5544ZM489.82 36.8256L490.66 38.016L490.662 38.0144L489.82 36.8256ZM508.571 32.4792L508.453 33.9315L508.474 33.9332L508.495 33.9343L508.571 32.4792ZM512.483 32.9139H513.94V31.7193L512.769 31.4851L512.483 32.9139ZM512.483 53.5903L512.004 54.9665L513.94 55.6398V53.5903H512.483ZM507.95 52.721L507.744 54.1635L507.76 54.1658L507.777 54.1677L507.95 52.721ZM490.999 54.9563L491.69 56.2392L491.696 56.2361L490.999 54.9563ZM480.568 129.031V130.488H482.025V129.031H480.568ZM459.548 129.031V33.659H456.634V129.031H459.548ZM458.091 35.116H479.885V32.2019H458.091V35.116ZM478.428 33.659V49.5544H481.342V33.659H478.428ZM479.885 51.0114H480.878V48.0973H479.885V51.0114ZM482.268 49.9931C483.922 44.7541 486.728 40.7912 490.66 38.016L488.979 35.6352C484.466 38.8208 481.312 43.3438 479.489 49.1156L482.268 49.9931ZM490.662 38.0144C494.668 35.1754 499.234 33.75 504.411 33.75V30.8359C498.66 30.8359 493.499 32.4322 488.977 35.6368L490.662 38.0144ZM504.411 33.75C505.606 33.75 506.952 33.8098 508.453 33.9315L508.689 31.0269C507.127 30.9003 505.7 30.8359 504.411 30.8359V33.75ZM508.495 33.9343C510.028 34.015 511.256 34.1544 512.197 34.3426L512.769 31.4851C511.64 31.2594 510.26 31.109 508.648 31.0241L508.495 33.9343ZM511.026 32.9139V53.5903H513.94V32.9139H511.026ZM512.962 52.2141C511.853 51.8286 510.212 51.5249 508.124 51.2743L507.777 54.1677C509.828 54.4139 511.208 54.6897 512.004 54.9665L512.962 52.2141ZM508.156 51.2786C506.065 50.9798 504.03 50.8293 502.052 50.8293V53.7435C503.882 53.7435 505.779 53.8827 507.744 54.1635L508.156 51.2786ZM502.052 50.8293C497.735 50.8293 493.808 51.7688 490.303 53.6765L491.696 56.2361C494.731 54.5839 498.172 53.7435 502.052 53.7435V50.8293ZM490.308 53.6734C486.852 55.5345 484.112 58.139 482.113 61.4713L484.611 62.9707C486.338 60.0939 488.689 57.8552 491.69 56.2392L490.308 53.6734ZM482.113 61.4713C480.098 64.8288 479.111 68.6747 479.111 72.9628H482.025C482.025 69.1377 482.9 65.8224 484.611 62.9707L482.113 61.4713ZM479.111 72.9628V129.031H482.025V72.9628H479.111ZM480.568 127.574H458.091V130.488H480.568V127.574ZM537.531 164.051L537.804 162.62L537.795 162.618L537.786 162.616L537.531 164.051ZM531.384 162.437L529.988 162.021L529.61 163.289L530.837 163.787L531.384 162.437ZM536.6 144.927L537.007 143.528L535.617 143.123L535.203 144.511L536.6 144.927ZM545.355 146.293L545.331 144.836L545.355 146.293ZM552.123 143.871L551.233 142.717L551.22 142.728L551.207 142.738L552.123 143.871ZM557.152 136.172L558.514 136.689L558.517 136.682L557.152 136.172ZM559.077 131.018L560.442 131.528L560.628 131.031L560.45 130.531L559.077 131.018ZM524.492 33.659V32.2019H522.428L523.119 34.1467L524.492 33.659ZM548.335 33.659L549.729 33.2337L549.414 32.2019H548.335V33.659ZM570.315 105.685L568.922 106.11L569.237 107.142H570.315V105.685ZM571.309 105.685V107.142H572.387L572.702 106.111L571.309 105.685ZM593.351 33.659V32.2019H592.273L591.958 33.2326L593.351 33.659ZM617.257 33.659L618.629 34.149L619.324 32.2019H617.257V33.659ZM579.07 140.58L577.698 140.09L577.696 140.096L579.07 140.58ZM571.992 153.557L570.863 152.636L570.858 152.643L571.992 153.557ZM561.188 161.878L560.594 160.547L560.586 160.551L560.578 160.554L561.188 161.878ZM546.038 163.339C543.052 163.339 540.309 163.097 537.804 162.62L537.259 165.482C539.969 165.998 542.897 166.253 546.038 166.253V163.339ZM537.786 162.616C535.269 162.17 533.331 161.654 531.932 161.086L530.837 163.787C532.501 164.461 534.66 165.021 537.277 165.486L537.786 162.616ZM532.781 162.853L537.996 145.343L535.203 144.511L529.988 162.021L532.781 162.853ZM536.193 146.326C539.56 147.306 542.627 147.794 545.378 147.75L545.331 144.836C542.949 144.874 540.18 144.452 537.007 143.528L536.193 146.326ZM545.378 147.75C548.261 147.703 550.833 146.788 553.039 145.004L551.207 142.738C549.521 144.101 547.581 144.8 545.331 144.836L545.378 147.75ZM553.012 145.025C555.298 143.263 557.1 140.418 558.514 136.689L555.79 135.655C554.472 139.129 552.921 141.416 551.233 142.717L553.012 145.025ZM558.517 136.682L560.442 131.528L557.712 130.508L555.787 135.662L558.517 136.682ZM560.45 130.531L525.865 33.1712L523.119 34.1467L557.704 131.506L560.45 130.531ZM524.492 35.116H548.335V32.2019H524.492V35.116ZM546.941 34.0843L568.922 106.11L571.709 105.26L549.729 33.2337L546.941 34.0843ZM570.315 107.142H571.309V104.228H570.315V107.142ZM572.702 106.111L594.745 34.0854L591.958 33.2326L569.916 105.259L572.702 106.111ZM593.351 35.116H617.257V32.2019H593.351V35.116ZM615.884 33.1689L577.698 140.09L580.443 141.07L618.629 34.149L615.884 33.1689ZM577.696 140.096C575.964 145.011 573.681 149.183 570.863 152.636L573.121 154.479C576.181 150.729 578.617 146.25 580.445 141.065L577.696 140.096ZM570.858 152.643C568.063 156.106 564.647 158.737 560.594 160.547L561.782 163.208C566.257 161.21 570.043 158.294 573.126 154.472L570.858 152.643ZM560.578 160.554C556.591 162.392 551.759 163.339 546.038 163.339V166.253C552.072 166.253 557.341 165.255 561.798 163.201L560.578 160.554Z" fill="#F2F2F2" mask="url(#path-1-outside-1_3810_977)"/>
</svg>
