<svg width="143" height="38" viewBox="0 0 143 38" fill="none" xmlns="http://www.w3.org/2000/svg">
<path d="M44.7485 10.662V14.0776H48.2037V16.7584H44.7485V23.3085H41.0567V8.0468H48.5043V10.662H44.7485Z" fill="#F8F8F8"/>
<path d="M56.2516 23.3085L55.736 19.8284H52.9245L52.3883 23.3085H48.8039L51.8727 8.0468H56.7661L59.8348 23.3085H56.2505H56.2516ZM54.3628 10.4685L53.3327 17.2559H55.3712L54.3628 10.4685Z" fill="#F8F8F8"/>
<path d="M61.6171 23.3085V8.0468H65.2872V23.3085H61.6171Z" fill="#F8F8F8"/>
<path d="M74.387 23.3085C73.9582 22.6383 73.9365 21.9462 73.9365 21.0387V18.5744C73.9365 17.0831 73.8073 16.8021 72.2192 16.8021H71.5538V23.3085H68.1204V8.0468H73.2928C74.3012 8.0468 75.3531 8.06867 76.19 8.76074C77.1561 9.56105 77.2201 10.8359 77.2201 11.9598C77.2201 14.0787 76.6405 14.5969 75.3097 15.3316C75.4595 15.3753 76.3398 15.5262 76.812 16.1319C77.1984 16.6294 77.2408 17.2132 77.2408 18.4017V21.6445C77.2408 22.6175 77.4123 22.9204 77.7564 23.3085H74.387ZM71.5538 14.1858H72.6914C73.8714 14.1858 73.9365 13.6883 73.9365 12.2616C73.9365 10.8348 73.6575 10.6839 72.6697 10.6839H71.5538V14.1858Z" fill="#F8F8F8"/>
<path d="M91.106 23.3085V12.3272L88.7668 23.3085H85.5472L83.2079 12.3272V23.3085H80.01V8.0468H84.9035L87.157 19.2446L89.4105 8.0468H94.368V23.3085H91.106Z" fill="#F8F8F8"/>
<path d="M106.815 18.5307C106.815 20.7141 106.6 23.5031 101.986 23.5031C98.7447 23.5031 96.9634 22.3573 96.9634 18.8554V12.2627C96.9634 8.99802 98.723 7.74507 101.9 7.74507C105.399 7.74507 106.815 9.2145 106.815 12.501V18.5318V18.5307ZM100.635 19.5256C100.635 20.2177 100.635 20.8223 101.901 20.8223C102.889 20.8223 103.168 20.4112 103.168 19.5256V11.7215C103.168 10.7266 102.825 10.4674 101.837 10.4674C100.936 10.4674 100.636 10.7922 100.636 11.6996V19.5245L100.635 19.5256Z" fill="#F8F8F8"/>
<path d="M113.082 8.0468V19.5475C113.082 20.3685 113.383 20.9097 114.241 20.9097C115.1 20.9097 115.315 20.3696 115.315 19.5475V8.0468H118.985V19.0281C118.985 21.6652 118.384 23.5457 114.307 23.5457C110.443 23.5457 109.435 21.9462 109.435 19.4819V8.0468H113.083H113.082Z" fill="#F8F8F8"/>
<path d="M127.998 23.3085L124.843 13.3647V23.3085H121.753V8.0468H125.38L128.556 17.9479V8.0468H131.69V23.3085H127.998Z" fill="#F8F8F8"/>
<path d="M139.973 10.7058V23.3085H136.26V10.7058H133.255V8.0468H142.998V10.7058H139.972H139.973Z" fill="#F8F8F8"/>
<path d="M42.0854 28.8446V31.134H45.7359V32.0371H42.0854V35.6921H41.0585V27.9197H46.0095V28.8446H42.0854Z" fill="#F8F8F8"/>
<path d="M48.1078 27.9197V33.0605C48.1078 34.1177 48.5887 35.0088 49.9553 35.0088C51.4088 35.0088 51.8897 34.0182 51.8897 32.9172V27.9197H52.9285V33.1271C52.9285 34.5364 51.9993 35.89 49.9445 35.89C48.0209 35.89 47.0809 34.6895 47.0809 33.2365V27.9197H48.1078Z" fill="#F8F8F8"/>
<path d="M60.0755 35.6921L55.8453 29.3727C55.8453 29.3727 55.9441 35.5379 55.9441 35.6921H54.9715V27.9197H55.9441L60.1189 34.1505C60.1189 34.1505 60.0755 28.1613 60.0755 27.9197H61.0047V35.6921H60.0755Z" fill="#F8F8F8"/>
<path d="M66.1195 27.9197C67.9779 27.9197 69.3988 29.2295 69.3988 31.8163C69.3988 33.7536 68.6119 35.691 65.8243 35.691H63.0595V27.9186H66.1195V27.9197ZM64.119 34.789H65.9437C67.5394 34.789 68.3481 33.6443 68.3481 31.8053C68.3481 30.1205 67.6382 28.8326 65.8883 28.8326H64.1179V34.7879L64.119 34.789Z" fill="#F8F8F8"/>
<path d="M70.7969 35.6921V27.9197H71.8357V35.6921H70.7969Z" fill="#F8F8F8"/>
<path d="M78.8742 35.6921L74.644 29.3727C74.644 29.3727 74.7428 35.5379 74.7428 35.6921H73.7702V27.9197H74.7428L78.9176 34.1505C78.9176 34.1505 78.8742 28.1613 78.8742 27.9197H79.8034V35.6921H78.8742Z" fill="#F8F8F8"/>
<path d="M87.9783 35.692V34.602C87.6831 35.1082 86.7756 35.8899 85.1582 35.8899C82.8634 35.8899 81.322 34.2499 81.322 31.9048C81.322 29.2742 83.0599 27.7217 85.3004 27.7217C86.5357 27.7217 88.088 28.206 88.875 29.9783L87.8036 30.2538C87.4757 29.1966 86.5466 28.58 85.333 28.58C83.3432 28.58 82.4585 30.1871 82.4585 31.7834C82.4585 34.0072 83.8361 34.9868 85.3112 34.9868C86.7864 34.9868 87.9783 34.1056 87.9783 32.5651V32.4547H85.2895V31.5855H88.875V35.692H87.9783Z" fill="#F8F8F8"/>
<path d="M20.0326 19.9422C20.1965 11.8593 19.7667 6.43643 18.2513 0.951233C18.2513 0.951233 23.922 7.48711 34.0964 8.04471C34.0964 8.04471 34.6077 13.7978 29.0195 18.7254C29.0195 18.7254 30.4111 16.8492 30.105 11.0339C30.105 11.0339 26.9722 11.5696 21.6088 7.46634C21.6088 7.46634 22.8571 13.5693 21.5882 17.3642C20.9944 19.0829 20.0326 19.9411 20.0326 19.9411V19.9422Z" fill="#F8F8F8"/>
<path d="M18.3255 10.5592L18.4351 13.5494L14.1365 11.6525C14.1365 11.6525 16.7157 18.2091 14.9148 22.3331C14.9148 22.3331 14.0551 18.477 12.8882 14.9303C11.7213 11.3835 9.75544 7.21905 9.75544 7.21905C9.75544 7.21905 14.7238 9.99281 18.3266 10.5592H18.3255Z" fill="#F8F8F8"/>
<path d="M11.2491 14.1612L11.8906 16.3883C11.8906 16.3883 10.1093 16.3063 8.0414 15.7837C8.0414 15.7837 10.6412 20.2783 8.99664 23.1581C8.99664 23.1581 7.27721 19.1511 5.90513 16.7185C4.53306 14.2858 3.48229 12.6699 3.48229 12.6699C3.48229 12.6699 6.51844 14.2574 11.248 14.1612H11.2491Z" fill="#F8F8F8"/>
<path d="M2.1315 20.3552C2.1315 20.3552 1.42158 25.4829 5.78965 26.4034C8.24614 26.9949 12.6001 25.5649 12.6001 25.5649L11.0446 24.4792C11.0446 24.4792 16.9812 24.3972 21.9908 21.4485C21.9908 21.4485 19.2271 26.8572 15.1261 30.4728L15.0848 28.7825C15.0848 28.7825 12.2799 30.4116 7.24422 30.4728C2.20857 30.5351 1.18495 26.4034 1.00041 24.9745C0.815875 23.5444 2.13367 20.3552 2.13367 20.3552H2.1315Z" fill="#F8F8F8"/>
<path d="M0.58252 29.2209C0.58252 29.2209 2.59613 34.3836 10.6278 33.2629C18.6594 32.1423 24.7946 25.3036 24.7946 25.3036L22.8429 24.6989C22.8429 24.6989 29.7348 22.3691 33.5297 16.8565C33.5297 16.8565 33.8021 20.7739 31.0732 25.8327C28.5071 29.8583 27.8525 30.2312 27.8525 30.2312L27.8384 28.2238C27.8384 28.2238 26.1732 30.5198 20.5775 33.8872C14.9817 37.2547 7.72078 38.6989 3.68163 35.5502C0.719293 33.3526 0.58252 29.2209 0.58252 29.2209Z" fill="#F8F8F8"/>
</svg>
