<svg width="621" height="621" viewBox="0 0 621 621" fill="none" xmlns="http://www.w3.org/2000/svg">
<g filter="url(#filter0_d_4093_946)">
<path d="M310.5 314.097C317.758 314.097 323.641 308.213 323.641 300.956C323.641 293.698 317.758 287.814 310.5 287.814C303.243 287.814 297.359 293.698 297.359 300.956C297.359 308.213 303.243 314.097 310.5 314.097Z" fill="#F8F8F8"/>
<path d="M321.77 338.33C322.041 339.367 321.259 340.38 320.188 340.38H300.812C299.74 340.38 298.958 339.367 299.229 338.331L306.04 312.265C306.228 311.545 306.878 311.043 307.622 311.043H313.376C314.12 311.043 314.77 311.545 314.958 312.265L321.77 338.33Z" fill="#F8F8F8"/>
</g>
<g filter="url(#filter1_d_4093_946)">
<path d="M310.5 314.097C317.758 314.097 323.641 308.213 323.641 300.956C323.641 293.698 317.758 287.814 310.5 287.814C303.243 287.814 297.359 293.698 297.359 300.956C297.359 308.213 303.243 314.097 310.5 314.097Z" fill="#F8F8F8"/>
<path d="M321.77 338.33C322.041 339.367 321.259 340.38 320.188 340.38H300.812C299.74 340.38 298.958 339.367 299.229 338.331L306.04 312.265C306.228 311.545 306.878 311.043 307.622 311.043H313.376C314.12 311.043 314.77 311.545 314.958 312.265L321.77 338.33Z" fill="#F8F8F8"/>
</g>
<g filter="url(#filter2_d_4093_946)">
<path d="M310.5 314.097C317.758 314.097 323.641 308.213 323.641 300.956C323.641 293.698 317.758 287.814 310.5 287.814C303.243 287.814 297.359 293.698 297.359 300.956C297.359 308.213 303.243 314.097 310.5 314.097Z" fill="#F8F8F8"/>
<path d="M321.77 338.33C322.041 339.367 321.259 340.38 320.188 340.38H300.812C299.74 340.38 298.958 339.367 299.229 338.331L306.04 312.265C306.228 311.545 306.878 311.043 307.622 311.043H313.376C314.12 311.043 314.77 311.545 314.958 312.265L321.77 338.33Z" fill="#F8F8F8"/>
</g>
<defs>
<filter id="filter0_d_4093_946" x="272.359" y="262.814" width="76.2812" height="102.565" filterUnits="userSpaceOnUse" color-interpolation-filters="sRGB">
<feFlood flood-opacity="0" result="BackgroundImageFix"/>
<feColorMatrix in="SourceAlpha" type="matrix" values="0 0 0 0 0 0 0 0 0 0 0 0 0 0 0 0 0 0 127 0" result="hardAlpha"/>
<feOffset/>
<feGaussianBlur stdDeviation="12.5"/>
<feColorMatrix type="matrix" values="0 0 0 0 0.972549 0 0 0 0 0.972549 0 0 0 0 0.972549 0 0 0 1 0"/>
<feBlend mode="normal" in2="BackgroundImageFix" result="effect1_dropShadow_4093_946"/>
<feBlend mode="normal" in="SourceGraphic" in2="effect1_dropShadow_4093_946" result="shape"/>
</filter>
<filter id="filter1_d_4093_946" x="267.359" y="257.814" width="86.2812" height="112.565" filterUnits="userSpaceOnUse" color-interpolation-filters="sRGB">
<feFlood flood-opacity="0" result="BackgroundImageFix"/>
<feColorMatrix in="SourceAlpha" type="matrix" values="0 0 0 0 0 0 0 0 0 0 0 0 0 0 0 0 0 0 127 0" result="hardAlpha"/>
<feOffset/>
<feGaussianBlur stdDeviation="15"/>
<feColorMatrix type="matrix" values="0 0 0 0 0.972549 0 0 0 0 0.972549 0 0 0 0 0.972549 0 0 0 1 0"/>
<feBlend mode="normal" in2="BackgroundImageFix" result="effect1_dropShadow_4093_946"/>
<feBlend mode="normal" in="SourceGraphic" in2="effect1_dropShadow_4093_946" result="shape"/>
</filter>
<filter id="filter2_d_4093_946" x="290.359" y="280.814" width="40.2812" height="66.5654" filterUnits="userSpaceOnUse" color-interpolation-filters="sRGB">
<feFlood flood-opacity="0" result="BackgroundImageFix"/>
<feColorMatrix in="SourceAlpha" type="matrix" values="0 0 0 0 0 0 0 0 0 0 0 0 0 0 0 0 0 0 127 0" result="hardAlpha"/>
<feOffset/>
<feGaussianBlur stdDeviation="3.5"/>
<feColorMatrix type="matrix" values="0 0 0 0 0.972549 0 0 0 0 0.972549 0 0 0 0 0.972549 0 0 0 1 0"/>
<feBlend mode="normal" in2="BackgroundImageFix" result="effect1_dropShadow_4093_946"/>
<feBlend mode="normal" in="SourceGraphic" in2="effect1_dropShadow_4093_946" result="shape"/>
</filter>
</defs>
</svg>
