<svg width="74" height="38" viewBox="0 0 74 38" fill="none" xmlns="http://www.w3.org/2000/svg">
<path d="M13.9745 29.8901H13.8307C13.5152 29.4598 13.1478 29.2447 12.7272 29.2447C12.2486 29.2447 12.0105 29.484 12.0105 29.9614C12.0105 30.162 12.1591 30.3445 12.4565 30.5077C12.7538 30.6721 13.1055 30.8509 13.5104 31.0443C13.9153 31.2377 14.3262 31.4637 14.742 31.7224C15.1578 31.981 15.5119 32.34 15.8032 32.7981C16.0945 33.2573 16.2407 33.7928 16.2407 34.4043C16.2407 35.2842 15.918 36.0408 15.2726 36.6766C14.6272 37.3123 13.8271 37.6302 12.871 37.6302C12.0963 37.6302 11.4037 37.4344 10.7922 37.0428C10.1806 36.6512 9.75032 36.1061 9.50134 35.4087L11.1499 34.3052H11.2938C11.5995 35.1368 12.1253 35.5525 12.871 35.5525C13.2336 35.5525 13.5285 35.4486 13.7521 35.2407C13.9769 35.0328 14.0893 34.7512 14.0893 34.3947C14.0893 34.0756 13.9443 33.7916 13.6554 33.5402C13.3666 33.29 13.0173 33.0652 12.61 32.8669C12.2027 32.6687 11.7917 32.4536 11.3772 32.2215C10.9626 31.9895 10.6072 31.6801 10.3087 31.2957C10.0102 30.9114 9.86031 30.4666 9.86031 29.9602C9.86031 29.148 10.1371 28.4784 10.6919 27.9526C11.2454 27.4269 11.9247 27.1646 12.7272 27.1646C13.3194 27.1646 13.8331 27.2891 14.2682 27.5368C14.7033 27.7858 15.1215 28.1871 15.5228 28.7407L13.9745 29.8877V29.8901Z" fill="#F8F8F8"/>
<path d="M18.0318 27.3821H21.1138C22.2125 27.3821 23.0851 27.6952 23.7305 28.3212C24.3759 28.9473 24.6987 29.7088 24.6987 30.608C24.6987 31.5072 24.3759 32.2687 23.7305 32.8947C23.0851 33.5208 22.2137 33.8338 21.1138 33.8338H19.9668V37.3461L19.8943 37.4175H18.0306L17.9593 37.3461V27.4546L18.0318 27.3821ZM19.9668 29.3885V31.8251H20.97C21.9732 31.8251 22.4748 31.419 22.4748 30.6068C22.4748 29.7946 21.9732 29.3885 20.97 29.3885H19.9668Z" fill="#F8F8F8"/>
<path d="M27.249 28.6862C28.2812 27.6734 29.5333 27.167 31.0055 27.167C32.4776 27.167 33.7285 27.6734 34.7607 28.6862C35.7929 29.6991 36.309 30.9367 36.309 32.3992C36.309 33.8616 35.7929 35.0993 34.7607 36.1121C33.7285 37.1249 32.4764 37.6314 31.0055 37.6314C29.5345 37.6314 28.2812 37.1249 27.249 36.1121C26.2168 35.0993 25.7007 33.8616 25.7007 32.3992C25.7007 30.9367 26.2168 29.6991 27.249 28.6862ZM33.1907 30.1559C32.5936 29.5492 31.8648 29.2458 31.0042 29.2458C30.1437 29.2458 29.4149 29.5492 28.8178 30.1559C28.2207 30.7627 27.9222 31.5108 27.9222 32.3992C27.9222 33.2875 28.2207 34.0357 28.8178 34.6424C29.4149 35.2491 30.1437 35.5525 31.0042 35.5525C31.8648 35.5525 32.5924 35.2491 33.1907 34.6424C33.7877 34.0357 34.0863 33.2875 34.0863 32.3992C34.0863 31.5108 33.7877 30.7627 33.1907 30.1559Z" fill="#F8F8F8"/>
<path d="M38.1001 27.3821H40.7518C41.7937 27.3821 42.6276 27.671 43.2537 28.2499C43.8798 28.8289 44.1928 29.5432 44.1928 30.3928C44.1928 31.4927 43.7142 32.2807 42.7594 32.7582L46.2004 37.3449L46.129 37.4162H43.8351L43.7637 37.3449L40.753 33.4024H40.0363V37.3449L39.965 37.4162H38.1013L38.03 37.3449V27.4534L38.1013 27.3821H38.1001ZM40.0351 29.3885V31.396H40.7518C41.564 31.396 41.9701 31.0612 41.9701 30.3928C41.9701 29.7245 41.564 29.3897 40.7518 29.3897H40.0351V29.3885Z" fill="#F8F8F8"/>
<path d="M45.4126 27.3821H53.2965L53.3678 27.4534V29.3172L53.2965 29.3885H50.3583V37.3449L50.287 37.4162H48.4233L48.352 37.3449V29.3885H45.4138L45.3425 29.3172V27.4534L45.4138 27.3821H45.4126Z" fill="#F8F8F8"/>
<path d="M58.7014 29.89H58.5575C58.2421 29.4597 57.8746 29.2446 57.454 29.2446C56.9754 29.2446 56.7373 29.4839 56.7373 29.9613C56.7373 30.162 56.886 30.3445 57.1833 30.5076C57.4806 30.672 57.8323 30.8509 58.2372 31.0443C58.6421 31.2376 59.0531 31.4637 59.4688 31.7223C59.8846 31.981 60.2387 32.3399 60.53 32.798C60.8213 33.2573 60.9676 33.7927 60.9676 34.4043C60.9676 35.2842 60.6448 36.0408 59.9994 36.6765C59.354 37.3123 58.5539 37.6301 57.5979 37.6301C56.8243 37.6301 56.1306 37.4343 55.519 37.0427C54.9074 36.6511 54.4772 36.106 54.2294 35.4087L55.878 34.3052H56.0218C56.3276 35.1367 56.8533 35.5525 57.5991 35.5525C57.9629 35.5525 58.2566 35.4485 58.4802 35.2407C58.705 35.0328 58.8174 34.7512 58.8174 34.3946C58.8174 34.0755 58.6723 33.7915 58.3835 33.5401C58.0946 33.2899 57.7453 33.0651 57.338 32.8669C56.9307 32.6687 56.5198 32.4535 56.1052 32.2215C55.6906 31.9894 55.3353 31.68 55.0368 31.2957C54.7382 30.9113 54.5884 30.4665 54.5884 29.9601C54.5884 29.1479 54.8651 28.4783 55.4199 27.9526C55.9735 27.4268 56.6527 27.1645 57.4553 27.1645C58.0475 27.1645 58.5612 27.289 58.9963 27.5368C59.4314 27.7858 59.8496 28.187 60.2508 28.7406L58.7026 29.8876L58.7014 29.89Z" fill="#F8F8F8"/>
<path d="M10.2245 8.13214L4.29972 0.760649L4.01085 0.616821H0.253191L0.108154 0.760649V20.7044L0.253191 20.8494H4.01085L4.15468 20.7044V6.83165L10.0806 14.0569H10.3695L12.7324 11.1755L10.2329 8.12127L10.2245 8.13214Z" fill="#F8F8F8"/>
<path d="M20.1958 0.616821H16.4394L16.1493 0.760649L11.2676 6.83527L13.7888 9.88709L16.2943 6.83165V20.7044L16.4394 20.8494H20.1958L20.3409 20.7044V0.760649L20.1958 0.616821Z" fill="#F8F8F8"/>
<path d="M23.953 0.616821H37.5382L37.6832 0.760649V4.51831L37.5382 4.66335H27.8557V8.27597H34.9372L35.0822 8.4198V12.1775L34.9372 12.3225H27.8557V16.8029H37.827L37.9721 16.9468V20.7044L37.827 20.8494H23.953L23.808 20.7044V0.760649L23.953 0.616821Z" fill="#F8F8F8"/>
<path d="M55.7463 0.616821L55.8914 0.760649V4.51831L55.7463 4.66335H49.8216V20.7044L49.6765 20.8494H45.9189L45.7738 20.7044V4.66335H39.8479L39.7028 4.51831V0.760649L39.8479 0.616821H55.7463Z" fill="#F8F8F8"/>
<path d="M61.3821 0.616821H65.4093L65.5531 0.76911L73.2328 20.7044L73.089 20.8494H68.6303L68.4865 20.7044L67.0482 16.6579H59.8568L58.2771 20.6573L58.2021 20.8482H53.648L53.5005 20.6742L61.2382 0.760649L61.3821 0.616821ZM63.4053 5.82002L61.4546 12.6126H66.0378L63.4053 5.82002Z" fill="#F8F8F8"/>
</svg>
