<svg width="1921" height="4171" viewBox="0 0 1921 4171" fill="none" xmlns="http://www.w3.org/2000/svg">
<g clip-path="url(#clip0_4062_1175)">
<rect width="1921" height="4171" fill="#F8F8F8"/>
<path d="M0.810547 3030.1C770.211 2924.1 1375.21 2785.6 1920.81 2297.9V0.300781H0.810547V3030.1Z" fill="url(#paint0_radial_4062_1175)"/>
<path d="M0.810547 1188.3C484.811 1756.9 1104.31 1955.1 1920.81 2177.1V0.300781H0.810547V1188.3Z" fill="url(#paint1_radial_4062_1175)"/>
<path d="M1920.81 2177.1C1104.31 1955.1 484.811 1756.9 0.810938 1188.3V1188.1L0.210938 1187.8V3110H1921.21V2177.3L1920.81 2177.1Z" fill="url(#paint2_radial_4062_1175)"/>
<rect x="-189.665" y="-3" width="2300.33" height="560.882" fill="url(#paint3_linear_4062_1175)"/>
<rect x="-189.665" y="-3" width="2300.33" height="560.882" fill="url(#paint4_linear_4062_1175)"/>
<rect x="-189.665" y="-3" width="2300.33" height="560.882" fill="url(#paint5_linear_4062_1175)" fill-opacity="0.33"/>
<rect x="2110.67" y="4174" width="2300.33" height="560.882" transform="rotate(-180 2110.67 4174)" fill="url(#paint6_linear_4062_1175)"/>
<rect x="2110.67" y="4174" width="2300.33" height="560.882" transform="rotate(-180 2110.67 4174)" fill="url(#paint7_linear_4062_1175)" fill-opacity="0.33"/>
<rect x="2110.67" y="4174" width="2300.33" height="560.882" transform="rotate(-180 2110.67 4174)" fill="url(#paint8_linear_4062_1175)"/>
</g>
<defs>
<radialGradient id="paint0_radial_4062_1175" cx="0" cy="0" r="1" gradientUnits="userSpaceOnUse" gradientTransform="translate(153.78 780.107) rotate(47.3783) scale(1999.19 1928.83)">
<stop stop-color="#F3F3F3"/>
<stop offset="0.756138" stop-color="#F4F4F4"/>
<stop offset="1" stop-color="#DDDDDD"/>
</radialGradient>
<radialGradient id="paint1_radial_4062_1175" cx="0" cy="0" r="1" gradientUnits="userSpaceOnUse" gradientTransform="translate(1642.92 364.954) rotate(118.552) scale(1692.82 1868.4)">
<stop stop-color="#F3F3F3"/>
<stop offset="0.756138" stop-color="#F4F4F4"/>
<stop offset="1" stop-color="#DDDDDD"/>
</radialGradient>
<radialGradient id="paint2_radial_4062_1175" cx="0" cy="0" r="1" gradientUnits="userSpaceOnUse" gradientTransform="translate(1073.38 1700.48) rotate(118.784) scale(1122.62 2382.66)">
<stop offset="0.353107" stop-color="#F8F8F8"/>
<stop offset="0.86" stop-color="#F8F8F8" stop-opacity="0.1"/>
<stop offset="0.985" stop-color="#F8F8F8" stop-opacity="0"/>
</radialGradient>
<linearGradient id="paint3_linear_4062_1175" x1="960.5" y1="59.616" x2="960.5" y2="557.882" gradientUnits="userSpaceOnUse">
<stop offset="0.186441" stop-color="#F8F8F8"/>
<stop offset="1" stop-color="#F8F8F8" stop-opacity="0"/>
</linearGradient>
<linearGradient id="paint4_linear_4062_1175" x1="960.5" y1="59.616" x2="960.5" y2="557.882" gradientUnits="userSpaceOnUse">
<stop offset="0.186441" stop-color="#F8F8F8"/>
<stop offset="1" stop-color="#F8F8F8" stop-opacity="0"/>
</linearGradient>
<linearGradient id="paint5_linear_4062_1175" x1="960.5" y1="59.616" x2="960.5" y2="557.882" gradientUnits="userSpaceOnUse">
<stop offset="0.186441" stop-color="#F8F8F8"/>
<stop offset="1" stop-color="#F8F8F8" stop-opacity="0"/>
</linearGradient>
<linearGradient id="paint6_linear_4062_1175" x1="3260.83" y1="4236.62" x2="3260.83" y2="4734.88" gradientUnits="userSpaceOnUse">
<stop offset="0.186441" stop-color="#F8F8F8"/>
<stop offset="1" stop-color="#F8F8F8" stop-opacity="0"/>
</linearGradient>
<linearGradient id="paint7_linear_4062_1175" x1="3260.83" y1="4236.62" x2="3260.83" y2="4734.88" gradientUnits="userSpaceOnUse">
<stop offset="0.186441" stop-color="#F8F8F8"/>
<stop offset="1" stop-color="#F8F8F8" stop-opacity="0"/>
</linearGradient>
<linearGradient id="paint8_linear_4062_1175" x1="3260.83" y1="4236.62" x2="3260.83" y2="4734.88" gradientUnits="userSpaceOnUse">
<stop offset="0.186441" stop-color="#F8F8F8"/>
<stop offset="1" stop-color="#F8F8F8" stop-opacity="0"/>
</linearGradient>
<clipPath id="clip0_4062_1175">
<rect width="1921" height="4171" fill="white"/>
</clipPath>
</defs>
</svg>
