<svg width="113" height="38" viewBox="0 0 113 38" fill="none" xmlns="http://www.w3.org/2000/svg">
<path d="M57.8401 26.4299V8.22835H62.7704C63.2528 8.22835 63.6882 8.24116 64.0766 8.26677C64.4651 8.29238 64.8791 8.34787 65.3188 8.43325C65.7585 8.51862 66.1427 8.62961 66.4713 8.7662C66.8 8.90707 67.1245 9.09916 67.4361 9.34247C67.752 9.58579 68.0081 9.87606 68.2044 10.2047C68.3965 10.542 68.5502 10.9518 68.6654 11.4341C68.7679 11.8567 68.8191 12.3305 68.8191 12.8513V13.0605C68.7764 15.1009 67.8843 16.3004 66.1512 16.659C67.1842 16.7529 67.9782 17.1712 68.5374 17.914C69.0966 18.6567 69.3868 19.6726 69.4082 20.9618V21.1283C69.4082 22.951 68.9258 24.2828 67.9611 25.1237C66.9665 25.9945 65.5365 26.4299 63.6711 26.4299H57.8401ZM62.2966 15.4211H62.8899C63.6967 15.4211 64.2346 15.2375 64.5163 14.8661C64.7938 14.4948 64.9346 13.9356 64.9346 13.18C64.9346 12.6037 64.7639 12.1214 64.4181 11.7372C64.0724 11.353 63.6113 11.1609 63.0351 11.1609H62.3009V15.4211H62.2966ZM62.8985 23.3224C63.7053 23.3224 64.273 23.1217 64.6102 22.7205C64.9474 22.3192 65.1139 21.7088 65.1139 20.8892C65.1139 19.9074 64.9517 19.2244 64.6316 18.8403C64.3114 18.4561 63.7394 18.264 62.9198 18.264H62.2923V23.3224H62.8985Z" fill="#F8F8F8"/>
<path d="M71.9652 26.4299L75.2691 8.23262H80.4513L83.7211 26.4299H79.6488L79.0767 22.7973H76.7162L76.1655 26.4299H71.9609H71.9652ZM77.0705 20.2276H78.7054L77.8815 13.4319L77.0705 20.2276Z" fill="#F8F8F8"/>
<path d="M86.9054 26.4299V8.22835H92.3394C93.1163 8.22835 93.7993 8.26677 94.3969 8.34788C94.9945 8.42898 95.5622 8.57411 96.1086 8.78755C96.655 9.00098 97.099 9.28271 97.449 9.63701C97.7947 9.99131 98.0722 10.4523 98.2771 11.0201C98.482 11.5878 98.5844 12.2537 98.5844 13.0221C98.5844 14.2429 98.4308 15.2162 98.1234 15.9418C97.8161 16.6675 97.227 17.2566 96.3562 17.7091L98.8363 26.4257H94.1706L92.2839 18.3792H91.3619V26.4257H86.9054V26.4299ZM91.3619 15.9376H92.5272C93.2572 15.9376 93.7651 15.7284 94.0469 15.3058C94.3286 14.8832 94.4695 14.2856 94.4695 13.513C94.4695 12.7403 94.3371 12.1897 94.0682 11.7842C93.7993 11.3786 93.3596 11.1737 92.7449 11.1737H91.3619V15.9376Z" fill="#F8F8F8"/>
<path d="M102.268 26.4299V8.22835H105.431L108.757 16.0229V8.22835H112.432V26.4299H109.393L106.089 17.867V26.4299H102.268Z" fill="#F8F8F8"/>
<path d="M57.8401 28.8076H59.7055C60.5849 28.8076 61.2038 28.9869 61.5667 29.3497C61.9295 29.7083 62.1088 30.3315 62.1088 31.2151V34.519C62.1088 35.4411 61.9252 36.1241 61.5581 36.5637C61.191 37.0034 60.5678 37.2254 59.697 37.2254H57.8401V28.8076ZM59.0439 36.3204H59.7055C59.9019 36.3204 60.0726 36.3033 60.2135 36.2649C60.3544 36.2308 60.4696 36.1625 60.555 36.0686C60.6446 35.9747 60.7129 35.8807 60.7599 35.7954C60.8068 35.71 60.8452 35.5777 60.8666 35.3941C60.8879 35.2106 60.9007 35.0612 60.9007 34.9459C60.9007 34.8307 60.905 34.6471 60.905 34.3995V31.5096C60.905 31.356 60.905 31.2322 60.905 31.1425C60.905 31.0529 60.9007 30.9462 60.8922 30.8224C60.8837 30.6986 60.8709 30.6004 60.8581 30.5278C60.841 30.4553 60.8196 30.3742 60.794 30.2845C60.7641 30.1949 60.73 30.1266 60.6873 30.0754C60.6446 30.0241 60.5934 29.9729 60.5336 29.9174C60.4739 29.8619 60.4013 29.8235 60.3202 29.7936C60.2391 29.768 60.1452 29.7467 60.0427 29.7296C59.936 29.7125 59.8165 29.704 59.6842 29.704H59.0439V36.3204Z" fill="#F8F8F8"/>
<path d="M66.4844 37.3065C66.0618 37.3065 65.699 37.2425 65.3959 37.1144C65.0928 36.9864 64.8538 36.7985 64.6745 36.551C64.4952 36.3034 64.3671 36.0131 64.286 35.6801C64.2049 35.3472 64.1622 34.9587 64.1622 34.5191V31.467C64.1622 31.0273 64.2049 30.6388 64.286 30.3102C64.3671 29.9815 64.4952 29.6955 64.6745 29.4522C64.8538 29.2088 65.0928 29.0253 65.3959 28.9058C65.699 28.782 66.0618 28.7222 66.4844 28.7222C67.304 28.7222 67.8973 28.957 68.2601 29.4265C68.623 29.8961 68.8065 30.5748 68.8065 31.4627V34.5148C68.8065 34.9502 68.7639 35.3344 68.6827 35.6673C68.6016 36.0003 68.4693 36.2906 68.29 36.5424C68.1107 36.79 67.8717 36.9821 67.5686 37.1101C67.2655 37.2382 66.907 37.3065 66.4844 37.3065ZM65.6093 35.9405C65.7715 36.1924 66.0618 36.3204 66.4844 36.3204C66.907 36.3204 67.1972 36.1924 67.3595 35.9405C67.5217 35.6887 67.6028 35.313 67.6028 34.8179V31.1639C67.6028 30.6773 67.5217 30.3102 67.3637 30.0711C67.2058 29.8321 66.9112 29.7083 66.4844 29.7083C66.0575 29.7083 65.7672 29.8278 65.605 30.0711C65.4471 30.3102 65.366 30.6773 65.366 31.1639V34.8179C65.366 35.313 65.4471 35.6844 65.6093 35.9405Z" fill="#F8F8F8"/>
<path d="M71.0091 37.2211V28.8076H72.6696L73.8605 35.249L75.0515 28.8076H76.712V37.2211H75.5082V30.5833L74.3045 37.2211H73.4038L72.2 30.5833V37.2211H70.9963H71.0091Z" fill="#F8F8F8"/>
<path d="M79.1322 37.2211V28.8076H80.3359V37.2211H79.1322Z" fill="#F8F8F8"/>
<path d="M82.7776 37.2211V28.8076H83.6783L85.7828 34.0111V28.8076H86.9865V37.2211H86.1328L83.9814 31.6249V37.2211H82.7776Z" fill="#F8F8F8"/>
<path d="M89.394 37.2211V28.8076H90.5978V37.2211H89.394Z" fill="#F8F8F8"/>
<path d="M96.3435 37.1656C96.066 37.2638 95.7416 37.3107 95.3745 37.3107C95.0074 37.3107 94.6872 37.2638 94.4055 37.1656C94.128 37.0674 93.8975 36.9351 93.7183 36.7601C93.539 36.5851 93.3938 36.3674 93.2786 36.107C93.1676 35.8423 93.0865 35.5606 93.0395 35.2533C92.9926 34.9459 92.967 34.6044 92.967 34.216V28.8076H94.1707V34.216C94.1707 34.4764 94.175 34.6941 94.1878 34.8691C94.2006 35.0441 94.2262 35.2319 94.2732 35.4283C94.3201 35.6289 94.3842 35.7868 94.4695 35.9064C94.5506 36.0259 94.6702 36.1241 94.8196 36.2009C94.9732 36.2777 95.1568 36.3204 95.3702 36.3204C95.5837 36.3204 95.7715 36.282 95.9209 36.2009C96.0746 36.1241 96.1898 36.0259 96.2709 35.9064C96.352 35.7868 96.4203 35.6289 96.4673 35.4283C96.5142 35.2276 96.5441 35.0441 96.5526 34.8691C96.5655 34.6941 96.5697 34.4764 96.5697 34.216V28.8076H97.7735V34.216C97.7735 34.6001 97.7521 34.9459 97.7052 35.2533C97.6582 35.5563 97.5771 35.8423 97.4661 36.107C97.3552 36.3716 97.2058 36.5893 97.0265 36.7601C96.8472 36.9308 96.6167 37.0674 96.3392 37.1656H96.3435Z" fill="#F8F8F8"/>
<path d="M100.07 37.2211V28.8076H101.731L102.922 35.249L104.113 28.8076H105.773V37.2211H104.569V30.5833L103.366 37.2211H102.465L101.261 30.5833V37.2211H100.057H100.07Z" fill="#F8F8F8"/>
<path d="M110.332 37.3065C109.576 37.3065 108.996 37.0845 108.599 36.6406C108.202 36.1967 107.976 35.5905 107.929 34.8179L109.132 34.5191C109.192 35.7228 109.593 36.3204 110.336 36.3204C110.938 36.3204 111.237 36.0216 111.237 35.4198C111.237 35.2405 111.211 35.0783 111.164 34.9246C111.117 34.7709 111.041 34.6343 110.942 34.5063C110.844 34.3782 110.75 34.2758 110.669 34.2032C110.588 34.1263 110.477 34.0324 110.336 33.9172L108.834 32.7134C108.556 32.4957 108.338 32.2225 108.172 31.8896C108.005 31.5566 107.924 31.1767 107.924 30.7498C107.924 30.1309 108.116 29.6357 108.501 29.2729C108.885 28.9058 109.397 28.7222 110.033 28.7222C110.716 28.7222 111.258 28.8887 111.659 29.2217C112.061 29.5546 112.308 30.0284 112.402 30.6389C112.411 30.7029 112.424 30.7968 112.436 30.912L111.233 31.2108C111.233 31.1596 111.22 31.0785 111.207 30.9718C111.156 30.5919 111.032 30.2845 110.848 30.054C110.665 29.8235 110.387 29.7083 110.029 29.7083C109.739 29.7083 109.517 29.7894 109.363 29.9516C109.205 30.1138 109.128 30.3358 109.128 30.626C109.128 31.0999 109.329 31.4926 109.73 31.8127L111.233 33.0165C112.035 33.6653 112.436 34.438 112.436 35.3429C112.436 35.9619 112.244 36.44 111.864 36.79C111.484 37.1358 110.972 37.3108 110.332 37.3108V37.3065Z" fill="#F8F8F8"/>
<path d="M78.112 5.9147C77.6723 5.9147 77.3394 5.78664 77.1046 5.52625C76.8741 5.27013 76.746 4.91583 76.7161 4.47189L77.4119 4.29688C77.4461 4.99267 77.6808 5.3427 78.1077 5.3427C78.4577 5.3427 78.6285 5.16769 78.6285 4.82192C78.6285 4.71948 78.6157 4.6213 78.5858 4.53592C78.5559 4.44628 78.5132 4.36518 78.4577 4.29261C78.398 4.22004 78.3468 4.16028 78.2998 4.11759C78.2528 4.07491 78.1888 4.01942 78.1077 3.95112L77.2369 3.25532C77.079 3.13153 76.9509 2.96932 76.8527 2.77723C76.7588 2.58514 76.7119 2.36317 76.7119 2.11559C76.7119 1.75702 76.8228 1.47102 77.0448 1.25759C77.2668 1.04416 77.5656 0.937439 77.9327 0.937439C78.3297 0.937439 78.6413 1.03562 78.8761 1.22771C79.1109 1.4198 79.2517 1.69299 79.3072 2.04729C79.3115 2.08571 79.32 2.13693 79.3243 2.20523L78.6285 2.38025C78.6285 2.35037 78.62 2.30341 78.6157 2.23938C78.5858 2.01741 78.5132 1.8424 78.4065 1.7058C78.2998 1.57347 78.1419 1.50517 77.9327 1.50517C77.7662 1.50517 77.6382 1.55213 77.5442 1.64604C77.4546 1.73995 77.4077 1.86801 77.4077 2.03875C77.4077 2.31195 77.5229 2.54246 77.7577 2.72601L78.6285 3.4218C79.0938 3.79744 79.3243 4.24565 79.3243 4.7707C79.3243 5.12927 79.2133 5.40673 78.9956 5.60736C78.7736 5.80799 78.4791 5.91043 78.1077 5.91043L78.112 5.9147Z" fill="#F8F8F8"/>
<path d="M80.5111 5.86352V0.98444H81.4759L82.1674 4.71952L82.8589 0.98444H83.8236V5.86352H83.1278V2.01746L82.432 5.86779H81.9113L81.2155 2.01746V5.86352H80.5111Z" fill="#F8F8F8"/>
<path d="M84.8823 5.86352L85.9282 0.98444H86.624L87.6698 5.86352H86.974L86.7136 4.64269H85.8428L85.5824 5.86352H84.8823ZM86.624 4.12191L86.2739 2.03026L85.9239 4.12191H86.624Z" fill="#F8F8F8"/>
<path d="M88.7325 5.86352V0.98444H89.4283V5.34275H90.6491V5.86352H88.7325Z" fill="#F8F8F8"/>
<path d="M91.6438 5.86352V0.98444H92.3396V5.34275H93.5605V5.86352H91.6438Z" fill="#F8F8F8"/>
<path d="M71.0815 3.26811H57.8401V3.57973H71.0815V3.26811Z" fill="#F8F8F8"/>
<path d="M112.436 3.26811H99.1949V3.57973H112.436V3.26811Z" fill="#F8F8F8"/>
<path d="M36.7445 18.9341V10.3157L38.7422 15.5533L40.6503 14.8277L37.5683 6.74282L24.6514 0.937439L11.7216 6.69587L8.58838 14.8234L10.4965 15.5576L12.4942 10.3669V18.9341H0.349854V34.4337H0.375466V37.3065H48.8632V34.4337H48.8888V18.9341H36.7445ZM36.7445 21.2221H46.6008V28.163C43.6042 26.9379 40.3003 25.9817 36.7445 25.3115V21.2221ZM14.7096 7.59656L24.6471 3.17422L34.5291 7.61363V24.9316C32.6722 24.6499 30.7812 24.4492 28.8688 24.3297V13.9654H20.3699V24.3297C18.4575 24.4492 16.5622 24.6499 14.7096 24.9316V7.59656ZM26.5637 16.2705V24.2273C25.9106 24.2059 25.2618 24.1974 24.6215 24.1974C23.9812 24.1974 23.3281 24.2059 22.675 24.2273V16.2705H26.5637ZM2.64213 21.2221H12.4942V25.3115C8.94268 25.9817 5.63873 26.9379 2.64213 28.163V21.2221ZM46.6265 35.0654H2.61651V30.6004C2.61651 30.6004 2.63359 30.5919 2.64213 30.5876C5.58324 29.3113 8.87011 28.3081 12.4302 27.6081C12.7034 27.5483 12.9808 27.4971 13.2583 27.4458C14.8292 27.1598 16.4385 26.9293 18.0648 26.7671C19.2814 26.6391 20.5108 26.5494 21.7444 26.4982C22.056 26.4854 22.3634 26.4769 22.675 26.4683C23.3281 26.447 23.9812 26.4384 24.6215 26.4384C25.2618 26.4384 25.9106 26.447 26.5637 26.4683C26.8753 26.4769 27.1827 26.4854 27.4943 26.4982C28.7279 26.5494 29.9573 26.6391 31.1739 26.7671C32.8002 26.9293 34.4095 27.1598 35.9804 27.4458C36.2579 27.4971 36.5353 27.5483 36.8085 27.6038C40.3686 28.3081 43.6555 29.3113 46.6008 30.5876C46.6094 30.5919 46.6179 30.5961 46.6265 30.6004V35.0654Z" fill="#F8F8F8"/>
</svg>
