<svg width="118" height="35" viewBox="0 0 118 35" fill="none" xmlns="http://www.w3.org/2000/svg">
<path d="M59.4184 10.47V14.0749H63.6207V16.1674C62.6365 17.2223 61.3144 17.9439 59.802 18.1279C56.2678 18.5508 53.0481 15.8923 52.6032 12.1883C52.1583 8.48283 54.6627 5.13889 58.1953 4.71756C60.6148 4.42514 62.8897 5.58066 64.2228 7.53011L67.7538 4.96753C66.7367 3.3498 65.284 1.99777 63.4651 1.11423C58.1041 -1.49238 51.5608 0.912992 48.8536 6.48621C46.1448 12.0579 48.2955 18.6876 53.6565 21.2926C57.3777 23.1021 61.6618 22.4968 64.8422 20.0962L67.8073 22.2532V10.47H59.4184Z" fill="#F8F8F8"/>
<path d="M95.5493 21.9419H101.207L104.866 10.6885H99.5535L95.5493 21.9419Z" fill="#F8F8F8"/>
<path d="M110.632 0.900422H104.669L107.848 10.6901H112.343L108.805 13.6347L111.505 21.9435H117.913L110.632 0.900422Z" fill="#F8F8F8"/>
<path d="M22.0346 21.9419H27.6943L31.3542 10.6885H26.0404L22.0346 21.9419Z" fill="#F8F8F8"/>
<path d="M37.124 0.900422H31.1577L34.3366 10.6901H38.8345L35.2956 13.6347L37.9934 21.9435H44.3983L37.124 0.900422Z" fill="#F8F8F8"/>
<path d="M8.63219 0.900422H0.631592V5.86994H8.63219V0.900422Z" fill="#F8F8F8"/>
<path d="M15.7462 0.900422L8.63382 10.687V21.9435H14.7384V5.86994H22.7406V0.900422H15.7462Z" fill="#F8F8F8"/>
<path d="M87.0252 0.900421V14.1504C87.0252 17.0651 85.0883 18.1499 82.9235 18.1499C80.7586 18.1499 78.817 17.0651 78.817 14.1504V3.31836L82.282 0.898848H73.7029V14.295C73.7029 19.6371 77.8423 22.3333 82.9235 22.3333C88.0046 22.3333 92.1425 19.6387 92.1425 14.295V3.31836L95.6074 0.898848H87.0267L87.0252 0.900421Z" fill="#F8F8F8"/>
<path d="M106.897 30.0069L107.2 30.9502C107.222 31.0194 107.292 31.0697 107.367 31.0697H108.356C108.524 31.0697 108.593 31.2851 108.458 31.3841L107.656 31.9642C107.595 32.0098 107.57 32.0869 107.592 32.1576L107.898 33.1009C107.95 33.2613 107.768 33.3933 107.631 33.2943L106.832 32.7126C106.771 32.6686 106.688 32.6686 106.627 32.7126L105.825 33.2943C105.69 33.3933 105.507 33.2597 105.557 33.1009L105.864 32.1576C105.889 32.0869 105.862 32.0098 105.803 31.9642L105.001 31.3841C104.866 31.2835 104.935 31.0697 105.103 31.0697H106.092C106.169 31.0697 106.233 31.0194 106.257 30.9502L106.565 30.0069C106.617 29.8466 106.843 29.8466 106.897 30.0069Z" fill="#F8F8F8"/>
<path d="M11.8519 30.0069L12.1585 30.9502C12.1821 31.0194 12.2481 31.0697 12.3236 31.0697H13.314C13.4806 31.0697 13.5514 31.2851 13.4162 31.3841L12.6128 31.9642C12.5531 32.0098 12.5264 32.0869 12.5515 32.1576L12.8581 33.1009C12.91 33.2613 12.726 33.3933 12.5908 33.2943L11.789 32.7126C11.7293 32.6686 11.6444 32.6686 11.5862 32.7126L10.7844 33.2943C10.6477 33.3933 10.4653 33.2597 10.5172 33.1009L10.8237 32.1576C10.8473 32.0869 10.8222 32.0098 10.7593 31.9642L9.95749 31.3841C9.82229 31.2835 9.89146 31.0697 10.0597 31.0697H11.0517C11.1272 31.0697 11.1932 31.0194 11.2168 30.9502L11.5233 30.0069C11.5752 29.8466 11.8016 29.8466 11.8551 30.0069" fill="#F8F8F8"/>
<path d="M24.3835 33.4153C24.3835 33.5112 24.4149 33.5804 24.4149 33.637C24.4149 33.6889 24.3662 33.7172 24.2876 33.7439C23.6351 34.0269 22.9513 34.1825 21.931 34.1825C21.0946 34.1825 20.1544 33.9593 19.5995 33.4012C19.109 32.928 18.859 32.3463 18.859 31.5162C18.859 30.8905 19.2033 30.2255 19.7928 29.7947C20.3777 29.3545 21.1009 29.1203 22.0677 29.1203C22.8789 29.1203 23.4842 29.3121 23.7468 29.4583C23.8427 29.507 23.9024 29.4897 23.9496 29.4363L24.0298 29.3293C24.0706 29.279 24.0863 29.2602 24.1351 29.2602C24.2216 29.2602 24.2467 29.3058 24.2467 29.3812L24.3678 30.7946C24.374 30.8763 24.3678 30.9109 24.3363 30.9172L24.1099 30.9581C24.0612 30.9644 24.0392 30.9518 24.014 30.8889C23.8835 30.5525 23.6273 30.1138 23.283 29.845C22.9686 29.5935 22.5598 29.4205 22.0111 29.4205C21.5772 29.4205 21.1748 29.5369 20.799 29.9362C20.4296 30.3135 20.1544 30.881 20.1544 31.5005C20.1544 32.3085 20.4201 33.0144 20.854 33.3855C21.2329 33.7077 21.5395 33.854 22.0834 33.854C22.5032 33.854 22.7296 33.8241 22.9953 33.714C23.1635 33.6449 23.1808 33.4263 23.1808 33.0695V32.5758C23.1808 32.329 23.1006 32.2614 22.8994 32.2614H22.5614C22.5126 32.2614 22.5048 32.2347 22.5048 32.2001V32.0287C22.5048 32.002 22.5142 31.9784 22.5614 31.9784C22.6321 31.9784 23.0267 32.002 23.7483 32.002C24.4699 32.002 24.7875 31.9784 24.852 31.9784C24.9164 31.9784 24.9243 32.002 24.9243 32.035V32.2064C24.9243 32.2472 24.9149 32.2614 24.8677 32.2614H24.635C24.4904 32.2614 24.3866 32.3101 24.3866 32.5082V33.4122L24.3835 33.4153Z" fill="#F8F8F8"/>
<path d="M28.3248 29.8356C28.3248 29.595 28.2682 29.4834 28.0984 29.4834H27.7211C27.6708 29.4834 27.6645 29.4693 27.6645 29.4237V29.2586C27.6645 29.2146 27.6708 29.2036 27.7368 29.2036C27.817 29.2036 28.21 29.2225 29.0543 29.2225C29.7601 29.2225 30.1485 29.2036 30.2381 29.2036C30.3025 29.2036 30.3088 29.2146 30.3088 29.2586V29.4363C30.3088 29.4677 30.3025 29.4819 30.2444 29.4819H29.9724C29.6988 29.4819 29.5605 29.6123 29.5448 29.7507C29.5353 29.8262 29.529 30.2915 29.529 30.6421V31.0949C29.529 31.458 29.5605 32.3306 29.5699 32.5507C29.5762 32.8651 29.647 33.1748 29.8262 33.3666C30.0919 33.6402 30.4708 33.7502 30.8308 33.7502C31.1279 33.7502 31.5618 33.6229 31.7803 33.4483C32.0995 33.2015 32.2881 32.8242 32.2881 32.3321V31.2772C32.2881 30.6987 32.2064 29.9456 32.1734 29.7884C32.1419 29.6076 32.013 29.485 31.8762 29.485H31.6184C31.5697 29.485 31.5618 29.4661 31.5618 29.4331V29.2555C31.5618 29.2193 31.5713 29.2067 31.6184 29.2067C31.6986 29.2067 32.068 29.2256 32.6167 29.2256C33.0506 29.2256 33.3085 29.2067 33.3792 29.2067C33.45 29.2067 33.4594 29.2319 33.4594 29.268V29.4158C33.4594 29.4598 33.4531 29.485 33.4106 29.485H33.1623C32.8557 29.485 32.8337 29.6768 32.818 29.7475C32.8022 29.8434 32.8022 30.7899 32.8022 30.8858C32.8022 30.9817 32.7865 32.1828 32.7614 32.45C32.7126 33.0113 32.4957 33.4452 32.079 33.7581C31.7253 34.0269 31.1766 34.1857 30.6563 34.1857C30.2774 34.1857 29.7601 34.1354 29.4253 34.0127C29.0385 33.8713 28.6848 33.5474 28.4914 33.1088C28.3562 32.8148 28.3248 32.3557 28.3248 31.4549V29.8356Z" fill="#F8F8F8"/>
<path d="M41.1912 32.0853C41.1912 31.4753 41.1849 31.1373 41.1676 30.7946C41.1581 30.5273 41.1188 29.856 41.0937 29.7523C41.045 29.5793 40.8516 29.4834 40.6692 29.4834H40.4114C40.3721 29.4834 40.3626 29.463 40.3626 29.4237V29.2507C40.3626 29.2193 40.3721 29.202 40.4334 29.202C40.523 29.202 40.7808 29.2224 41.3751 29.2224C41.8593 29.2224 42.0511 29.202 42.1407 29.202C42.2115 29.202 42.2209 29.2177 42.2209 29.2586V29.4237C42.2209 29.4551 42.2115 29.4834 42.18 29.4834H41.9568C41.82 29.4834 41.7398 29.6029 41.7147 29.8466C41.6597 30.3088 41.5292 31.8573 41.5292 32.7629V33.9341C41.5292 34.0395 41.5229 34.1621 41.4081 34.1621C41.2871 34.1621 41.1849 34.1259 41.0953 34.0505C40.9601 33.9404 40.5654 33.5804 40.0812 33.0915L38.7056 31.7001C38.5704 31.5634 37.4589 30.3827 37.275 30.1563H37.2105V31.5398C37.2105 32.1105 37.2813 32.9531 37.2907 33.2141C37.3064 33.6118 37.4511 33.8194 37.7891 33.8194H37.9903C38.0453 33.8194 38.0547 33.8398 38.0547 33.8791V34.0458C38.0547 34.0866 38.0453 34.1008 37.9903 34.1008C37.9101 34.1008 37.429 34.0803 37.0486 34.0803C36.8002 34.0803 36.2452 34.1008 36.165 34.1008C36.1336 34.1008 36.1257 34.0866 36.1257 34.0395V33.8618C36.1257 33.8414 36.132 33.8209 36.1713 33.8209H36.4543C36.6304 33.8209 36.7609 33.5993 36.7986 33.1402C36.808 33.0097 36.8725 31.9108 36.8725 30.8968V30.2805C36.8725 29.8765 36.5817 29.4897 36.1808 29.4834L35.9795 29.4787C35.9387 29.4787 35.9308 29.452 35.9308 29.43V29.2445C35.9308 29.2177 35.9371 29.2004 35.9795 29.2004C36.022 29.2004 36.0849 29.2067 36.2374 29.2067C36.3977 29.2162 36.6555 29.2209 37.0737 29.2209C37.3473 29.2209 37.5878 29.2067 37.6853 29.2067C37.7828 29.2067 37.8519 29.2335 37.918 29.2963L39.7825 31.2474L41.1581 32.7063H41.1896V32.0822L41.1912 32.0853Z" fill="#F8F8F8"/>
<path d="M47.0095 31.9344C47.0095 32.0507 47.0095 33.5317 47.0315 33.8052H47.4906C47.8679 33.8052 48.2279 33.8052 48.665 33.7738C49.0989 33.7392 49.6444 32.9154 49.7655 32.6607C49.7906 32.6198 49.8142 32.5994 49.8614 32.6198L50.0233 32.6749C50.0469 32.689 50.0469 32.6953 50.039 32.7362C50.0154 32.7849 49.6916 33.9153 49.6444 34.1024C49.4369 34.0882 47.1211 34.0819 46.3807 34.0819C45.5836 34.0819 45.2959 34.1024 45.1906 34.1024C45.134 34.1024 45.1261 34.0882 45.1261 34.041V33.8697C45.1261 33.8335 45.1324 33.8209 45.1811 33.8209H45.4295C45.7282 33.8209 45.777 33.725 45.777 33.648C45.777 33.5175 45.799 31.8118 45.799 31.392V31.0084C45.799 30.5698 45.7833 29.8434 45.777 29.7318C45.7612 29.5542 45.7204 29.4881 45.5349 29.4881H45.2377C45.189 29.4881 45.1811 29.452 45.1811 29.419V29.2523C45.1811 29.2209 45.1906 29.2036 45.2377 29.2036C45.3273 29.2036 45.615 29.224 46.3461 29.224C47.2894 29.224 47.6274 29.2036 47.7013 29.2036C47.7626 29.2036 47.772 29.224 47.772 29.2728V29.43C47.772 29.4646 47.7563 29.4866 47.6918 29.4866H47.3129C47.0645 29.4866 47.0315 29.5526 47.0315 29.7397C47.0315 29.8293 47.0095 30.8638 47.0095 31.3433V31.9344Z" fill="#F8F8F8"/>
<path d="M54.5369 31.4533C54.9064 31.4533 55.2585 31.4329 55.3576 31.414C55.4943 31.3873 55.606 31.3228 55.727 31.1986C55.8166 31.0964 55.9125 30.9046 55.9125 30.7741C55.9125 30.7254 55.9361 30.7128 55.9738 30.7128L56.1924 30.7333C56.2317 30.7396 56.2647 30.7474 56.2568 30.7883C56.2317 30.9046 56.2317 31.2631 56.2317 31.5005C56.2317 31.8118 56.2663 32.1403 56.2804 32.2834C56.2898 32.3243 56.2584 32.3321 56.2159 32.3384L56.0241 32.373C55.9927 32.3793 55.9738 32.3667 55.9581 32.318C55.9267 32.2079 55.8465 32.0507 55.8009 31.969C55.7097 31.8369 55.5179 31.7473 55.3576 31.7269C55.139 31.7017 54.8891 31.686 54.5369 31.686V32.0995C54.5369 32.4689 54.5762 33.1339 54.5762 33.2581C54.5762 33.6166 54.6658 33.7408 54.7712 33.7785C54.8906 33.8225 55.0431 33.8398 55.4472 33.8398C55.5839 33.8398 55.9204 33.8335 56.0886 33.8209C56.249 33.8068 56.4911 33.7392 56.6986 33.5946C56.9093 33.4483 57.3589 33.0239 57.5208 32.8588C57.5523 32.8321 57.5758 32.8242 57.601 32.8384L57.7378 32.9075C57.7692 32.9217 57.7786 32.9421 57.7692 32.9626L57.4061 34.0002C57.3825 34.0615 57.3259 34.1024 57.23 34.1024C57.1907 34.1024 57.013 34.0961 56.4974 34.0866C55.9738 34.0866 55.1249 34.0819 53.732 34.0819C53.4348 34.0819 53.2116 34.0866 53.0497 34.0866C52.8814 34.0961 52.7761 34.1024 52.7054 34.1024C52.6488 34.1024 52.633 34.0819 52.633 34.0253V33.8807C52.633 33.8398 52.6582 33.8209 52.7132 33.8209H52.9553C53.3248 33.8209 53.3578 33.7706 53.3578 33.5332V31.2332C53.3578 30.6641 53.3421 29.8214 53.3326 29.7538C53.3012 29.5353 53.221 29.4866 53.0041 29.4866H52.6912C52.6598 29.4866 52.6503 29.463 52.6503 29.4174V29.2523C52.6503 29.2319 52.6598 29.202 52.7069 29.202C52.883 29.202 53.1644 29.2224 53.897 29.2224L56.7175 29.2162C56.8479 29.2162 57.0004 29.202 57.0397 29.202C57.0806 29.202 57.0963 29.2162 57.1058 29.2366C57.1356 29.3356 57.3998 30.2742 57.4343 30.3418C57.4501 30.3764 57.4501 30.3905 57.4092 30.411L57.2819 30.466C57.2504 30.4802 57.2095 30.4723 57.186 30.4393C57.1451 30.3843 56.4203 29.7648 56.2364 29.6721C56.0682 29.5825 55.8433 29.4913 55.6264 29.4866L54.5636 29.4598L54.5416 31.4533H54.5369Z" fill="#F8F8F8"/>
<path d="M61.904 32.2016C61.8395 32.3463 61.4465 33.2864 61.4465 33.5034C61.4465 33.6543 61.5172 33.8209 61.7578 33.8209H62.0407C62.1209 33.8209 62.1272 33.8477 62.1272 33.8728V34.0237C62.1272 34.0803 62.1209 34.1008 62.0565 34.1008C61.9511 34.1008 61.6226 34.0803 60.9623 34.0803C60.3759 34.0803 60.1998 34.1008 60.0866 34.1008C60.0363 34.1008 60.0268 34.0599 60.0268 34.0096V33.8791C60.0268 33.8382 60.0363 33.8194 60.0866 33.8194H60.2941C60.4859 33.8194 60.6777 33.7235 60.8396 33.5159C60.9513 33.3713 61.5219 32.1796 61.7876 31.5743C61.8537 31.4391 62.5045 29.9645 62.5784 29.779C62.602 29.7098 62.6429 29.6186 62.5847 29.5463C62.5611 29.5164 62.5281 29.4818 62.5281 29.4567C62.5281 29.4347 62.547 29.4064 62.6099 29.3954C62.8661 29.3466 63.3881 29.1674 63.5091 29.0511C63.55 29.0165 63.5752 28.9913 63.6145 28.9913C63.6632 28.9913 63.6789 29.0306 63.7041 29.1061C63.855 29.5384 64.4823 31.0744 64.6363 31.5162C64.8219 32.0507 65.3438 33.3273 65.457 33.5096C65.5938 33.7376 65.8013 33.8209 65.9255 33.8209H66.1975C66.2462 33.8209 66.2525 33.8477 66.2525 33.8807V34.0112C66.2525 34.052 66.2462 34.1023 66.1818 34.1023C66.0293 34.1023 65.8595 34.0819 64.8297 34.0819C64.1631 34.0819 63.8801 34.1023 63.7214 34.1023C63.6412 34.1023 63.6318 34.0615 63.6318 34.0112V33.8807C63.6318 33.8492 63.6412 33.8209 63.6805 33.8209H63.9037C64.1223 33.8209 64.1946 33.7502 64.1458 33.5741C64.0735 33.3273 63.7622 32.4485 63.6632 32.2016H61.9024H61.904ZM63.5924 31.9281L62.9887 30.1107C62.9573 30.0085 62.94 29.9598 62.8991 29.9598C62.8504 29.9598 62.8284 29.9865 62.8032 30.0494C62.7624 30.139 62.0722 31.7583 62.0077 31.9297H63.5909L63.5924 31.9281Z" fill="#F8F8F8"/>
<path d="M70.2144 29.5384H69.9314C69.6751 29.5384 69.1909 29.5479 68.8561 29.6485C68.6784 29.7601 68.3247 30.1783 68.1234 30.4251C68.0999 30.4597 68.0747 30.4801 68.0433 30.4738L67.8656 30.4188C67.8342 30.4125 67.8263 30.378 67.8342 30.3575C67.9238 30.0698 68.1879 29.1627 68.2209 29.0259C68.2461 28.9363 68.2854 28.9096 68.342 28.9096C68.3986 28.9096 68.4237 28.9363 68.4945 29.0149C68.5841 29.1092 68.7366 29.1705 69.0243 29.1847C69.4519 29.2051 69.7899 29.2256 70.6247 29.2256H71.0901C71.9673 29.2256 72.3148 29.1988 72.6496 29.1847C72.8273 29.1784 73.1401 29.0982 73.236 29.0149C73.3178 28.9442 73.3634 28.9096 73.4215 28.9096C73.4797 28.9096 73.5017 28.9363 73.5174 29.0196L73.7595 30.3858C73.7658 30.4125 73.7533 30.4408 73.7281 30.4471L73.5599 30.5021C73.5284 30.5084 73.5111 30.488 73.4797 30.4408C73.3036 30.194 72.9892 29.8371 72.788 29.6736C72.5867 29.5683 71.8714 29.5416 71.6875 29.5416H71.4202V31.4281C71.4202 31.524 71.4202 33.4468 71.4296 33.5474C71.4454 33.7187 71.5098 33.8241 71.7032 33.8241H72.0648C72.1371 33.8241 72.145 33.8429 72.145 33.8901V34.0473C72.145 34.0819 72.1387 34.1039 72.0648 34.1039C71.9846 34.1039 71.7283 34.0803 70.8338 34.0803C69.9393 34.0803 69.6468 34.1039 69.5321 34.1039C69.4676 34.1039 69.4598 34.0772 69.4598 34.019V33.8885C69.4598 33.8398 69.4692 33.8225 69.5164 33.8225H69.9282C70.0886 33.8225 70.1845 33.7407 70.2018 33.615C70.2175 33.4703 70.2175 31.3652 70.2175 31.2348V29.54L70.2144 29.5384Z" fill="#F8F8F8"/>
<path d="M77.2826 31.3794C77.2826 30.9518 77.2669 30.0274 77.2669 29.9315C77.2669 29.5825 77.2103 29.4866 76.9933 29.4866H76.6647C76.5751 29.4866 76.5673 29.4567 76.5673 29.4174V29.2853C76.5673 29.2445 76.5767 29.2036 76.6569 29.2036C76.7937 29.2036 77.0515 29.224 77.8564 29.224C78.6614 29.224 78.9349 29.2036 79.0685 29.2036C79.1582 29.2036 79.1676 29.224 79.1676 29.279V29.4253C79.1676 29.4646 79.1582 29.4866 79.0685 29.4866H78.8767C78.5859 29.4866 78.5482 29.6029 78.523 29.8639C78.5136 29.9598 78.4743 30.8638 78.4743 31.2474V31.3495C78.4743 31.3841 78.4963 31.4046 78.6016 31.4046H81.007C81.1265 31.4046 81.1673 31.3904 81.1673 31.315V31.2458C81.1673 30.8559 81.1107 29.9032 81.1107 29.834C81.1045 29.6155 81.0714 29.485 80.9252 29.485H80.5967C80.5259 29.485 80.5165 29.4614 80.5165 29.4158V29.2633C80.5165 29.2224 80.5259 29.202 80.5888 29.202C80.7334 29.202 81.0777 29.2224 81.7632 29.2224C82.4486 29.2224 82.7678 29.202 82.8731 29.202C82.969 29.202 82.9753 29.2224 82.9753 29.2775V29.408C82.9753 29.4567 82.969 29.485 82.8731 29.485H82.631C82.3983 29.485 82.3732 29.6013 82.3732 29.834C82.3732 29.9299 82.359 31.0886 82.359 31.3417V31.5744C82.359 31.796 82.3732 33.0978 82.3826 33.4751C82.3826 33.7235 82.4644 33.8194 82.7049 33.8194H82.9769C83.0429 33.8194 83.0508 33.8398 83.0508 33.8791V34.0316C83.0508 34.0662 83.0445 34.1008 82.9611 34.1008C82.8338 34.1008 82.5587 34.0772 81.8371 34.0772C81.0148 34.0772 80.7586 34.1008 80.5746 34.1008C80.485 34.1008 80.4693 34.0662 80.4693 34.0316V33.8791C80.4693 33.8398 80.4756 33.8194 80.5589 33.8194H80.9127C81.1045 33.8194 81.128 33.6873 81.1359 33.5159C81.1548 33.1937 81.1673 32.09 81.1673 31.8684V31.7882C81.1673 31.7127 81.0872 31.7033 80.9913 31.7033H78.5859C78.4963 31.7033 78.4743 31.7237 78.4743 31.7882V31.8904C78.4743 32.0586 78.5057 33.1166 78.5293 33.5836C78.5387 33.7486 78.6189 33.8194 78.7966 33.8194H79.0198C79.0858 33.8194 79.0937 33.8304 79.0937 33.8713V34.0363C79.0937 34.0772 79.0874 34.1008 79.0198 34.1008C78.8752 34.1008 78.5953 34.0772 77.9193 34.0772C77.0672 34.0772 76.8251 34.1008 76.6647 34.1008C76.5924 34.1008 76.583 34.0772 76.583 34.0253V33.8791C76.583 33.8304 76.5924 33.8194 76.6647 33.8194H77.0342C77.2323 33.8194 77.2606 33.6543 77.2606 33.5018C77.2669 33.1795 77.2842 31.8511 77.2842 31.6703V31.3778L77.2826 31.3794Z" fill="#F8F8F8"/>
<path d="M88.0109 31.4533C88.3803 31.4533 88.7341 31.4329 88.8315 31.414C88.9683 31.3873 89.0831 31.3228 89.201 31.1986C89.2906 31.0964 89.3865 30.9046 89.3865 30.7741C89.3865 30.7254 89.4101 30.7128 89.451 30.7128L89.6679 30.7333C89.7088 30.7396 89.7402 30.7474 89.7339 30.7883C89.7088 30.9046 89.7088 31.2631 89.7088 31.5005C89.7088 31.8118 89.7402 32.1403 89.7575 32.2834C89.7669 32.3243 89.7339 32.3321 89.6931 32.3384L89.4981 32.373C89.4667 32.3793 89.4494 32.3667 89.4337 32.318C89.4022 32.2079 89.322 32.0507 89.2733 31.969C89.1837 31.8369 88.9903 31.7473 88.83 31.7269C88.613 31.7017 88.3646 31.686 88.0093 31.686V32.0995C88.0093 32.4689 88.0502 33.1339 88.0502 33.2581C88.0502 33.6166 88.1366 33.7408 88.242 33.7785C88.363 33.8225 88.5155 33.8398 88.918 33.8398C89.0548 33.8398 89.3928 33.8335 89.5594 33.8209C89.7214 33.8068 89.9619 33.7392 90.171 33.5946C90.3817 33.4483 90.8281 33.0239 90.9916 32.8588C91.0231 32.8321 91.0467 32.8242 91.0718 32.8384L91.2086 32.9075C91.24 32.9217 91.2495 32.9421 91.24 32.9626L90.8784 34.0002C90.8533 34.0615 90.7983 34.1024 90.7008 34.1024C90.6615 34.1024 90.4838 34.0961 89.9698 34.0866C89.4462 34.0866 88.5941 34.0819 87.2044 34.0819C86.9057 34.0819 86.684 34.0866 86.5221 34.0866C86.3523 34.0961 86.2485 34.1024 86.1746 34.1024C86.1196 34.1024 86.1039 34.0819 86.1039 34.0253V33.8807C86.1039 33.8398 86.1275 33.8209 86.1809 33.8209H86.423C86.7925 33.8209 86.8255 33.7706 86.8255 33.5332V31.2332C86.8255 30.6641 86.8098 29.8214 86.8019 29.7538C86.7705 29.5353 86.6871 29.4866 86.4733 29.4866H86.1589C86.1275 29.4866 86.1196 29.463 86.1196 29.4174V29.2523C86.1196 29.2319 86.1259 29.202 86.1746 29.202C86.3523 29.202 86.6337 29.2224 87.3663 29.2224L90.1867 29.2162C90.3141 29.2162 90.4697 29.202 90.509 29.202C90.5483 29.202 90.5656 29.2162 90.575 29.2366C90.6049 29.3356 90.8722 30.2742 90.9036 30.3418C90.9178 30.3764 90.9178 30.3905 90.8784 30.411L90.748 30.466C90.7181 30.4802 90.6772 30.4723 90.6521 30.4393C90.6112 30.3843 89.8896 29.7648 89.7041 29.6721C89.5343 29.5825 89.3095 29.4913 89.0925 29.4866L88.0297 29.4598L88.0077 31.4533H88.0109Z" fill="#F8F8F8"/>
<path d="M94.6877 30.9597C94.6877 30.4519 94.6877 30.0148 94.6814 29.8293C94.672 29.6029 94.5666 29.4866 94.455 29.4866H94.1327C94.0918 29.4866 94.0824 29.4661 94.0824 29.4378V29.2523C94.0824 29.2162 94.0918 29.2036 94.1327 29.2036C94.2035 29.2036 94.455 29.224 95.3323 29.224C95.7819 29.224 96.4878 29.2036 96.8195 29.2036C97.4452 29.2036 97.9121 29.3938 98.2423 29.6564C98.5316 29.8827 98.7013 30.15 98.7013 30.4031C98.7013 31.2741 97.9357 31.664 97.2283 31.719V31.7677C97.4767 31.8369 97.6071 31.969 97.7612 32.1325C97.8634 32.2425 98.3067 32.8525 98.3712 32.9343C98.4199 32.9956 98.8538 33.516 99.0158 33.6763C99.1117 33.7628 99.4182 33.8209 99.6022 33.8209C99.6588 33.8209 99.6666 33.8461 99.6666 33.8728V34.0395C99.6666 34.0788 99.6604 34.0992 99.6022 34.0992C99.5362 34.0992 99.3286 34.0788 98.7108 34.0788C98.475 34.0788 98.1763 34.0929 97.9436 34.0992C97.703 33.942 97.2062 33.1465 97.0695 32.9138C96.7959 32.4485 96.4658 31.9407 96.0806 31.9407H95.807V32.2897C95.807 32.6937 95.8306 33.4641 95.8479 33.5505C95.8636 33.6952 95.9281 33.8194 96.0492 33.8194H96.3777C96.4328 33.8194 96.4422 33.8382 96.4422 33.8713V34.0379C96.4422 34.0835 96.4328 34.0976 96.3148 34.0976C96.3086 34.0976 96.1042 34.0772 95.2599 34.0772C94.4157 34.0772 94.2223 34.0976 94.1359 34.0976C94.0714 34.0976 94.0714 34.0772 94.0714 34.0316V33.8713C94.0714 33.8367 94.0714 33.8194 94.1123 33.8194H94.3528C94.5289 33.8194 94.6751 33.7691 94.6751 33.5977C94.6908 32.9201 94.6908 32.2755 94.6908 31.6247V30.9581L94.6877 30.9597ZM95.8133 31.7017C95.9643 31.7064 96.0617 31.7064 96.1356 31.7064C97.1952 31.7064 97.4436 30.8433 97.4436 30.521C97.4436 30.1987 97.3163 29.9048 97.1371 29.7538C96.8494 29.5353 96.4862 29.452 96.2457 29.452C96.1089 29.452 96.0036 29.4661 95.9391 29.5133C95.8904 29.5384 95.8684 29.6139 95.8495 29.6988L95.8102 31.7017H95.8133Z" fill="#F8F8F8"/>
</svg>
