<?xml version="1.0" encoding="utf-8"?>
<!-- Generator: Adobe Illustrator 27.0.0, SVG Export Plug-In . SVG Version: 6.00 Build 0)  -->
<svg version="1.1" id="Layer_1" xmlns="http://www.w3.org/2000/svg" xmlns:xlink="http://www.w3.org/1999/xlink" x="0px" y="0px"
	 viewBox="0 0 195.4 195.4" style="enable-background:new 0 0 195.4 195.4;" xml:space="preserve">
<style type="text/css">
	.st0{fill:url(#SVGID_1_);}
	.st1{fill:url(#SVGID_00000044899409221676755800000001304551025852732567_);}
	.st2{fill:url(#SVGID_00000041999498271867015520000009511327685576526214_);}
	.st3{clip-path:url(#SVGID_00000179646414224127770050000001721239993161533352_);}
	.st4{fill:url(#SVGID_00000092431601301965385770000009948743050674154371_);}
</style>
<g>
	<g>
		
			<linearGradient id="SVGID_1_" gradientUnits="userSpaceOnUse" x1="-53.9128" y1="723.2446" x2="167.6346" y2="660.134" gradientTransform="matrix(1 0 0 -1 0 777.7678)">
			<stop  offset="0.2693" style="stop-color:#FFFFFF;stop-opacity:0.47"/>
			<stop  offset="1" style="stop-color:#FFFFFF;stop-opacity:0"/>
		</linearGradient>
		<path class="st0" d="M193.7,97.7c0,53-42.9,96-96,96c-53,0-96-42.9-96-96c0-53,43-96,96-96S193.7,44.8,193.7,97.7z"/>
		
			<linearGradient id="SVGID_00000005262979727435578940000011051469899130578092_" gradientUnits="userSpaceOnUse" x1="-78.9445" y1="884.007" x2="142.6029" y2="820.8964" gradientTransform="matrix(0.9626 0.2709 0.2709 -0.9626 -200.0318 887.3956)">
			<stop  offset="0.3653" style="stop-color:#FFFFFF;stop-opacity:0.47"/>
			<stop  offset="1" style="stop-color:#FFFFFF;stop-opacity:0"/>
		</linearGradient>
		<path style="fill:url(#SVGID_00000005262979727435578940000011051469899130578092_);" d="M190.1,123.7
			c-14.3,51-67.3,80.8-118.4,66.4C20.8,175.8-9,122.8,5.3,71.7C19.7,20.7,72.8-9,123.7,5.3S204.5,72.7,190.1,123.7z"/>
		
			<linearGradient id="SVGID_00000037692728339282333360000001846503988963408554_" gradientUnits="userSpaceOnUse" x1="-119.8047" y1="985.2679" x2="101.7427" y2="922.1574" gradientTransform="matrix(0.8969 0.4423 0.4423 -0.8969 -347.481 928.5654)">
			<stop  offset="0" style="stop-color:#FFFFFF;stop-opacity:0.47"/>
			<stop  offset="0.8399" style="stop-color:#FFFFFF;stop-opacity:0"/>
		</linearGradient>
		<path style="fill:url(#SVGID_00000037692728339282333360000001846503988963408554_);" d="M183.8,140.2
			c-23.4,47.5-81,67.1-128.5,43.6c-47.5-23.4-67.1-81-43.6-128.5c23.4-47.5,81-67.1,128.5-43.6S207.2,92.7,183.8,140.2z"/>
	</g>
	<g>
		<defs>
			<path id="SVGID_00000083768081960397275440000008799748644109592732_" d="M193.7,97.7c0,53-42.9,96-96,96c-53,0-96-42.9-96-96
				c0-53,43-96,96-96S193.7,44.8,193.7,97.7z"/>
		</defs>
		<clipPath id="SVGID_00000177469771956250438740000012913303119683882116_">
			<use xlink:href="#SVGID_00000083768081960397275440000008799748644109592732_"  style="overflow:visible;"/>
		</clipPath>
		<g style="clip-path:url(#SVGID_00000177469771956250438740000012913303119683882116_);">
			
				<radialGradient id="SVGID_00000173126478282548165080000012544791296234151843_" cx="97.7201" cy="680.0477" r="121.7482" gradientTransform="matrix(1 0 0 -1 0 777.7678)" gradientUnits="userSpaceOnUse">
				<stop  offset="0.5647" style="stop-color:#FFFFFF;stop-opacity:0"/>
				<stop  offset="1" style="stop-color:#FFFFFF;stop-opacity:0.47"/>
			</radialGradient>
			<path style="fill:url(#SVGID_00000173126478282548165080000012544791296234151843_);" d="M193.7,97.7c0,53-42.9,96-96,96
				c-53,0-96-42.9-96-96c0-53,43-96,96-96S193.7,44.8,193.7,97.7z"/>
			<g>
				
					<image style="overflow:visible;" width="265" height="265" xlink:href="16252D478AF7C2A4.png"  transform="matrix(1 0 0 1 -34.8375 -34.661)">
				</image>
			</g>
			<g>
				
					<image style="overflow:visible;" width="265" height="265" xlink:href="16252D478AF7C2A5.png"  transform="matrix(1 0 0 1 -34.8375 -34.661)">
				</image>
			</g>
			<g>
				
					<image style="overflow:visible;" width="265" height="265" xlink:href="16252D478AF7C2AA.png"  transform="matrix(1 0 0 1 -34.8375 -34.661)">
				</image>
			</g>
			<g>
				
					<image style="overflow:visible;" width="265" height="265" xlink:href="16252D478AF7C2AB.png"  transform="matrix(1 0 0 1 -34.8375 -34.661)">
				</image>
			</g>
		</g>
	</g>
</g>
</svg>
