<svg width="328" height="313" viewBox="0 0 328 313" fill="none" xmlns="http://www.w3.org/2000/svg">
<path d="M80.7715 156.756C127.594 156.756 156.176 128.127 156.176 81.3516C156.176 128.174 184.805 156.756 231.581 156.756C184.759 156.756 156.176 185.339 156.176 232.161C156.176 185.339 127.594 156.756 80.7715 156.756Z" fill="#131313"/>
<mask id="mask0_99_1194" style="mask-type:alpha" maskUnits="userSpaceOnUse" x="80" y="81" width="77" height="152">
<path d="M80.7715 156.756C127.594 156.756 156.176 128.127 156.176 81.3516C156.176 190.946 156.176 122.564 156.176 232.161C156.176 185.339 127.594 156.756 80.7715 156.756Z" fill="#131313"/>
</mask>
<g mask="url(#mask0_99_1194)">
<path d="M156.175 69.8616H78.6768V243.65H156.175V69.8616Z" fill="url(#paint0_linear_99_1194)"/>
<path d="M156.175 69.8616H78.6768V243.65H156.175V69.8616Z" fill="url(#paint1_linear_99_1194)" fill-opacity="0.58"/>
</g>
<g filter="url(#filter0_dddddd_99_1194)">
<path d="M178.965 156.756C164.815 156.756 156.177 165.408 156.177 179.544C156.177 165.394 147.525 156.756 133.39 156.756C147.539 156.756 156.177 148.118 156.177 133.969C156.177 148.118 164.815 156.756 178.965 156.756Z" fill="#F8F8F8"/>
</g>
<defs>
<filter id="filter0_dddddd_99_1194" x="94.7706" y="95.35" width="122.813" height="122.813" filterUnits="userSpaceOnUse" color-interpolation-filters="sRGB">
<feFlood flood-opacity="0" result="BackgroundImageFix"/>
<feColorMatrix in="SourceAlpha" type="matrix" values="0 0 0 0 0 0 0 0 0 0 0 0 0 0 0 0 0 0 127 0" result="hardAlpha"/>
<feOffset/>
<feGaussianBlur stdDeviation="0.459749"/>
<feColorMatrix type="matrix" values="0 0 0 0 1 0 0 0 0 1 0 0 0 0 1 0 0 0 1 0"/>
<feBlend mode="normal" in2="BackgroundImageFix" result="effect1_dropShadow_99_1194"/>
<feColorMatrix in="SourceAlpha" type="matrix" values="0 0 0 0 0 0 0 0 0 0 0 0 0 0 0 0 0 0 127 0" result="hardAlpha"/>
<feOffset/>
<feGaussianBlur stdDeviation="0.919498"/>
<feColorMatrix type="matrix" values="0 0 0 0 1 0 0 0 0 1 0 0 0 0 1 0 0 0 1 0"/>
<feBlend mode="normal" in2="effect1_dropShadow_99_1194" result="effect2_dropShadow_99_1194"/>
<feColorMatrix in="SourceAlpha" type="matrix" values="0 0 0 0 0 0 0 0 0 0 0 0 0 0 0 0 0 0 127 0" result="hardAlpha"/>
<feOffset/>
<feGaussianBlur stdDeviation="3.21824"/>
<feColorMatrix type="matrix" values="0 0 0 0 1 0 0 0 0 1 0 0 0 0 1 0 0 0 1 0"/>
<feBlend mode="normal" in2="effect2_dropShadow_99_1194" result="effect3_dropShadow_99_1194"/>
<feColorMatrix in="SourceAlpha" type="matrix" values="0 0 0 0 0 0 0 0 0 0 0 0 0 0 0 0 0 0 127 0" result="hardAlpha"/>
<feOffset/>
<feGaussianBlur stdDeviation="6.43649"/>
<feColorMatrix type="matrix" values="0 0 0 0 1 0 0 0 0 1 0 0 0 0 1 0 0 0 1 0"/>
<feBlend mode="normal" in2="effect3_dropShadow_99_1194" result="effect4_dropShadow_99_1194"/>
<feColorMatrix in="SourceAlpha" type="matrix" values="0 0 0 0 0 0 0 0 0 0 0 0 0 0 0 0 0 0 127 0" result="hardAlpha"/>
<feOffset/>
<feGaussianBlur stdDeviation="11.034"/>
<feColorMatrix type="matrix" values="0 0 0 0 1 0 0 0 0 1 0 0 0 0 1 0 0 0 1 0"/>
<feBlend mode="normal" in2="effect4_dropShadow_99_1194" result="effect5_dropShadow_99_1194"/>
<feColorMatrix in="SourceAlpha" type="matrix" values="0 0 0 0 0 0 0 0 0 0 0 0 0 0 0 0 0 0 127 0" result="hardAlpha"/>
<feOffset/>
<feGaussianBlur stdDeviation="19.3095"/>
<feColorMatrix type="matrix" values="0 0 0 0 1 0 0 0 0 1 0 0 0 0 1 0 0 0 1 0"/>
<feBlend mode="normal" in2="effect5_dropShadow_99_1194" result="effect6_dropShadow_99_1194"/>
<feBlend mode="normal" in="SourceGraphic" in2="effect6_dropShadow_99_1194" result="shape"/>
</filter>
<linearGradient id="paint0_linear_99_1194" x1="73.5233" y1="41.21" x2="189.1" y2="55.1498" gradientUnits="userSpaceOnUse">
<stop stop-color="white" stop-opacity="0.47"/>
<stop offset="1" stop-color="white" stop-opacity="0"/>
</linearGradient>
<linearGradient id="paint1_linear_99_1194" x1="73.5233" y1="41.21" x2="189.1" y2="55.1498" gradientUnits="userSpaceOnUse">
<stop stop-color="white" stop-opacity="0.47"/>
<stop offset="1" stop-color="white" stop-opacity="0"/>
</linearGradient>
</defs>
</svg>
