<svg width="17" height="11" viewBox="0 0 17 11" fill="none" xmlns="http://www.w3.org/2000/svg">
<g clip-path="url(#clip0_30_348)">
<path d="M8.68457 10.0107C8.4665 10.011 8.2509 9.96474 8.0521 9.87507C7.85337 9.78541 7.67597 9.65441 7.5319 9.49074L0.991208 2.05607C0.784481 1.80971 0.682348 1.49224 0.706647 1.17155C0.730947 0.850861 0.879751 0.552408 1.12124 0.340008C1.36273 0.127601 1.67774 0.018108 1.9989 0.0349413C2.32008 0.0517747 2.62191 0.193595 2.83988 0.430075L8.55924 6.93141C8.57484 6.94927 8.5941 6.96354 8.61577 6.97334C8.63737 6.98314 8.66084 6.98821 8.68457 6.98821C8.7083 6.98821 8.7317 6.98314 8.75337 6.97334C8.77497 6.96354 8.79424 6.94927 8.8099 6.93141L14.5292 0.430075C14.6347 0.304361 14.7642 0.201001 14.9102 0.126068C15.0562 0.0511411 15.2158 0.0061547 15.3794 -0.0062453C15.543 -0.0186453 15.7076 0.00178797 15.8632 0.053868C16.0188 0.105941 16.1624 0.188595 16.2857 0.296981C16.4089 0.405368 16.5092 0.537295 16.5808 0.685008C16.6522 0.832721 16.6935 0.993235 16.7021 1.15712C16.7107 1.32101 16.6864 1.48496 16.6308 1.63933C16.5751 1.79371 16.4891 1.9354 16.3779 2.05607L9.83924 9.48807C9.69484 9.65214 9.51724 9.78361 9.31817 9.87367C9.11904 9.96381 8.9031 10.0105 8.68457 10.0107Z" fill="#131313"/>
</g>
<defs>
<clipPath id="clip0_30_348">
<rect width="16.0007" height="10.0205" fill="white" transform="translate(0.703125 -0.00976562)"/>
</clipPath>
</defs>
</svg>
