<svg width="158" height="37" viewBox="0 0 158 37" fill="none" xmlns="http://www.w3.org/2000/svg">
<path d="M34.4084 4.48852L39.8158 19.0268L39.8331 19.0615C39.8505 19.1136 39.9026 19.1483 39.9546 19.1483H40.3018C40.3539 19.1483 40.406 19.1136 40.4233 19.0702L45.171 7.04898L49.6757 19.0615C49.6931 19.1136 49.7452 19.1483 49.7972 19.1483H50.1184C50.1705 19.1483 50.2225 19.1136 50.2399 19.0615L54.7967 6.51085C56.2114 2.44014 56.385 2.18843 57.8779 1.9888L58.3466 1.93673C58.39 1.93673 58.4247 1.90201 58.4508 1.86729L58.5549 1.6503C58.5549 1.6503 58.5896 1.6069 58.5983 1.57219C58.6157 1.51143 58.5723 1.45067 58.5202 1.42463C58.4855 1.40727 58.4508 1.40727 58.416 1.42463H52.4271C52.3838 1.42463 52.3403 1.45067 52.3143 1.48539C52.2883 1.52011 52.2883 1.57219 52.3143 1.61558L52.4532 1.89333C52.4532 1.89333 52.5139 1.96277 52.5573 1.96277L53.1562 2.01484C54.2932 2.119 54.8227 2.28391 55.031 2.61373C55.3174 3.06507 55.0657 3.95906 54.4929 5.46063L50.8561 15.5983L46.3254 3.3081C46.1345 2.76996 46.0911 2.44014 46.1952 2.27523C46.3254 2.08428 46.7073 2.01484 47.2368 1.98012L48.1134 1.95409C48.1568 1.95409 48.2002 1.92805 48.2262 1.88465L48.3651 1.6069C48.3651 1.6069 48.3825 1.52011 48.3651 1.47671C48.3478 1.43331 48.2957 1.41595 48.2523 1.41595H41.0309C40.9875 1.41595 40.9441 1.44199 40.9181 1.47671C40.892 1.51143 40.892 1.56351 40.9181 1.6069L41.0569 1.88465C41.0569 1.88465 41.1177 1.95409 41.1611 1.95409L41.9509 2.01484C43.2181 2.08428 43.4178 2.50958 44.1816 4.50587L44.8325 6.25914L41.0916 15.6765L36.587 3.31678C36.396 2.78732 36.37 2.44014 36.4915 2.26655C36.613 2.09296 36.9255 2.00616 37.5244 1.9888L38.427 1.96277C38.4704 1.96277 38.5138 1.93673 38.5399 1.89333L38.6787 1.61558C38.6787 1.61558 38.6961 1.52879 38.6787 1.48539C38.6614 1.44199 38.6093 1.42463 38.5659 1.42463H31.3272C31.3272 1.42463 31.249 1.44199 31.223 1.47671C31.197 1.51143 31.1883 1.55483 31.2056 1.59822L31.2924 1.87597C31.3098 1.92805 31.3532 1.96277 31.4053 1.96277L32.2298 2.02352C33.3929 2.09296 33.5925 2.32731 34.4084 4.51455V4.48852Z" fill="#F8F8F8"/>
<path d="M63.32 19.0875C63.32 19.0875 63.346 19.0007 63.32 18.9573L63.1898 18.6883C63.1638 18.6362 63.103 18.6015 63.0422 18.6188L62.669 18.5928C62.3479 18.5754 61.5841 18.5234 61.506 18.4366V10.3038C62.3826 9.47058 63.3807 9.05396 64.457 9.05396C65.8891 9.05396 66.5488 9.73097 66.5488 11.1718V18.3932C66.5488 18.3932 66.5488 18.5234 65.6201 18.6015L65.1167 18.6275C65.0733 18.6275 65.0299 18.6622 65.0038 18.6969L64.8736 18.966C64.8736 18.966 64.8563 19.0528 64.8736 19.0962C64.891 19.1396 64.9431 19.157 64.9865 19.157H70.3938C70.4372 19.157 70.4806 19.1309 70.5067 19.0962C70.5327 19.0615 70.5327 19.0094 70.5067 18.966L70.3765 18.6969C70.3765 18.6969 70.3157 18.6275 70.2723 18.6275L69.873 18.6015C68.8836 18.5407 68.7534 18.4452 68.736 18.4192V10.7985C68.736 9.66153 68.4409 8.77621 67.842 8.15997C67.3126 7.63051 66.6356 7.37013 65.7763 7.37013C64.1098 7.37013 62.8079 8.45507 61.749 9.3317C61.6622 9.40982 61.5754 9.47926 61.4886 9.54869V2.59637C61.4886 2.59637 61.4712 2.51826 61.4365 2.49222C61.4018 2.46618 61.3584 2.4575 61.3237 2.46618L57.7998 3.34281L57.7651 3.35149C57.7217 3.36885 57.687 3.40357 57.6783 3.44697L57.6262 3.6466C57.6262 3.6466 57.6262 3.71604 57.6436 3.75075C57.6609 3.78547 57.6956 3.80283 57.7304 3.81151L58.3813 3.92434C59.1798 4.08926 59.2753 4.22813 59.2753 5.23496V18.3932C59.2753 18.4973 59.2232 18.5234 58.5462 18.5841L57.9039 18.6275C57.8605 18.6275 57.8172 18.6622 57.7998 18.6969L57.6696 18.966C57.6696 18.966 57.6522 19.0528 57.6696 19.0962C57.687 19.1396 57.739 19.157 57.7824 19.157H63.1638C63.2072 19.157 63.2505 19.1309 63.2766 19.0962L63.32 19.0875Z" fill="#F8F8F8"/>
<path d="M71.3139 8.80225L71.9822 8.92377C72.7373 9.02792 72.8935 9.19283 72.8935 10.7291C72.8935 10.7465 72.8849 10.7638 72.8849 10.7725V18.3845C72.8849 18.4886 72.8241 18.5147 72.1384 18.5754L71.4614 18.6188C71.418 18.6188 71.3746 18.6535 71.3486 18.6883L71.2184 18.9573C71.2184 18.9573 71.201 19.0441 71.2184 19.0875C71.2357 19.1309 71.2878 19.1483 71.3312 19.1483H76.7386C76.782 19.1483 76.8254 19.1222 76.8514 19.0875C76.8774 19.0528 76.8774 19.0007 76.8514 18.9573L76.7212 18.6883C76.7212 18.6883 76.6605 18.6188 76.6171 18.6188L76.2178 18.5928C75.8967 18.5754 75.1589 18.5234 75.0808 18.4366V7.54372C75.0808 7.54372 75.0634 7.4656 75.0287 7.43956C74.994 7.41352 74.9593 7.40485 74.9159 7.41352L71.3659 8.35092L71.3312 8.3596C71.2878 8.37695 71.2531 8.41167 71.2444 8.45507L71.1923 8.64602C71.1923 8.64602 71.1923 8.71546 71.2097 8.75018C71.2271 8.78489 71.2618 8.80225 71.2965 8.81093L71.3139 8.80225Z" fill="#F8F8F8"/>
<path d="M73.7528 5.41723C74.8204 5.41723 75.2197 4.51455 75.2197 3.95038C75.2197 3.38621 74.8204 2.4575 73.7528 2.4575C72.6852 2.4575 72.2599 3.36885 72.2599 3.95038C72.2599 4.55795 72.7199 5.41723 73.7528 5.41723Z" fill="#F8F8F8"/>
<path d="M77.4069 9.02792L79.3338 9.05396L79.1775 16.7701C79.1775 16.7701 79.1775 16.8048 79.1862 16.8222C79.2036 19.0268 80.6183 19.4955 81.8074 19.4955C83.2135 19.4955 84.2637 18.5581 85.3921 17.4297L85.4442 17.3777C85.4442 17.3777 85.4876 17.3082 85.4789 17.2735C85.4789 17.2301 85.4528 17.1954 85.4181 17.178L85.2011 17.0565L85.1577 17.0391C85.1143 17.0218 85.0709 17.0391 85.0362 17.0652L85.0015 17.0999C84.4287 17.5773 83.8298 18.0633 82.8837 18.0633C82.3976 18.0633 82.0071 17.9245 81.7467 17.6641C81.495 17.4124 81.3821 17.0478 81.3908 16.5705L81.5731 9.01056H84.8019C84.854 9.01056 84.906 8.97584 84.9234 8.93245L85.3313 7.90826C85.3313 7.90826 85.34 7.82146 85.314 7.78674C85.2879 7.75203 85.2532 7.72599 85.2098 7.72599H81.5731L81.5991 5.53006C81.5991 5.46062 81.547 5.39987 81.4776 5.39987L80.6357 5.36515C80.6357 5.36515 80.5489 5.38251 80.5229 5.42591L79.0734 7.64787L77.5892 8.13393C77.5892 8.13393 77.5197 8.17732 77.5024 8.22072L77.2854 8.87169C77.2854 8.87169 77.2854 8.95848 77.3027 8.98452C77.3288 9.01924 77.3635 9.0366 77.4069 9.0366V9.02792Z" fill="#F8F8F8"/>
<path d="M95.7381 15.7112C95.6774 15.6851 95.6166 15.7112 95.5819 15.7546L95.5645 15.7806C95.5645 15.7806 95.5645 15.7893 95.5558 15.798C94.6011 17.2648 93.6637 17.8029 92.0753 17.8029C89.8013 17.8029 88.1522 15.7199 88.1522 12.8556C88.1522 12.5084 88.1695 12.005 88.2303 11.6318L95.5819 11.6578H95.634C95.6947 11.6578 95.7468 11.6144 95.7642 11.5537V11.5016C95.7815 11.4408 95.7902 11.3888 95.7989 11.328C95.8076 11.2586 95.8249 11.1978 95.8249 11.111C95.8249 8.85433 94.089 7.34409 91.5112 7.34409C88.2563 7.34409 85.8087 10.0695 85.8087 13.6715C85.8087 16.9263 88.1782 19.4781 91.1987 19.4781C93.221 19.4781 94.7226 18.4279 96.0679 16.067L96.1027 16.015C96.1027 16.015 96.1287 15.9455 96.1113 15.9108C96.1027 15.8761 96.0766 15.85 96.0419 15.8327L95.7555 15.7112H95.7381ZM88.3518 11.0416C88.8205 9.28831 90.0704 7.98637 91.3115 7.98637C91.3202 7.98637 91.3376 7.98637 91.3463 7.98637C92.8044 8.00373 93.3599 9.52266 93.4033 10.9982L88.3605 11.0503L88.3518 11.0416Z" fill="#F8F8F8"/>
<path d="M115.311 13.7062H115.05C114.998 13.7062 114.955 13.7322 114.929 13.7843L114.772 14.1228C114.772 14.1228 114.755 14.1489 114.746 14.1575C113.609 16.8742 112.767 18.5407 109.851 18.5407L106.943 18.4192V2.00616C106.943 2.00616 107.048 1.84125 108.028 1.75446L109.625 1.64162C109.669 1.64162 109.712 1.6069 109.73 1.57219L109.86 1.30312C109.86 1.30312 109.877 1.21632 109.86 1.17293C109.842 1.12953 109.79 1.11217 109.747 1.11217H102.326C102.282 1.11217 102.239 1.13821 102.213 1.17293C102.187 1.20764 102.187 1.25972 102.213 1.30312L102.343 1.56351C102.343 1.56351 102.404 1.63294 102.447 1.63294L103.194 1.71974C103.992 1.78049 104.435 1.84125 104.487 1.90201V18.2803C104.487 18.2803 104.409 18.4366 103.454 18.5234L102.43 18.6275C102.387 18.6275 102.343 18.6622 102.326 18.6969L102.196 18.9573C102.196 18.9573 102.178 19.0441 102.196 19.0875C102.222 19.1222 102.265 19.1483 102.309 19.1483H114.269C114.33 19.1483 114.382 19.1049 114.399 19.0441L115.441 13.8624C115.441 13.8624 115.441 13.7843 115.415 13.7583C115.389 13.7322 115.354 13.7149 115.311 13.7149V13.7062Z" fill="#F8F8F8"/>
<path d="M127.115 17.2995C127.063 17.2648 126.993 17.2735 126.958 17.3169C126.958 17.3169 126.932 17.3343 126.924 17.3429C126.594 17.6728 126.238 17.9939 125.874 17.9939C125.63 17.9939 125.457 17.9331 125.344 17.8203C125.205 17.6728 125.153 17.395 125.188 17.0044L125.448 11.354C125.518 9.79172 125.266 8.77621 124.667 8.14261C124.138 7.58711 123.348 7.34409 122.124 7.34409C120.032 7.34409 116.942 8.95848 116.942 10.408C116.942 11.1284 117.472 11.6144 118.253 11.6144C119.103 11.6144 119.563 10.9895 119.563 10.408C119.563 9.87852 119.251 9.5053 119.043 9.24491C118.965 9.14943 118.921 9.09736 118.913 9.09736C118.947 8.91509 119.928 8.30752 120.9 8.30752C121.621 8.30752 122.185 8.51583 122.593 8.94113C123.096 9.4619 123.313 10.3125 123.261 11.4756L123.235 12.4824C118.131 13.7322 117.081 15.0949 117.081 16.7614C117.081 18.2543 118.288 19.3826 119.885 19.3826C121.065 19.3826 122.124 18.6188 123.096 17.7509C123.287 18.7664 123.964 19.4087 124.884 19.4087C125.917 19.4087 126.698 18.4366 127.141 17.8984C127.21 17.8116 127.271 17.7335 127.332 17.6728L127.375 17.6207C127.375 17.6207 127.41 17.5512 127.41 17.5165C127.41 17.4818 127.384 17.4471 127.349 17.421L127.123 17.2822L127.115 17.2995ZM123.218 13.1333L123.07 16.9697C122.41 17.612 121.681 17.9331 120.9 17.9331C119.963 17.9331 119.312 17.2127 119.312 16.1799C119.312 14.9127 119.971 13.9579 123.218 13.1247V13.1333Z" fill="#F8F8F8"/>
<path d="M134.631 7.509C132.895 7.509 131.611 8.5679 130.656 9.57473V1.25972C130.656 1.25972 130.639 1.18161 130.604 1.15557C130.569 1.12953 130.534 1.12085 130.491 1.12953L126.932 2.01484C126.88 2.02352 126.846 2.06692 126.837 2.119L126.794 2.33599C126.794 2.33599 126.794 2.40542 126.811 2.43146C126.828 2.4575 126.863 2.48354 126.898 2.48354L127.557 2.59637C128.339 2.70921 128.469 2.90016 128.469 3.88095V19.5128C128.469 19.5823 128.529 19.643 128.599 19.643H128.833C128.833 19.643 128.894 19.6343 128.92 19.6083L130.083 18.5928C130.916 19.0268 132.244 19.4781 133.581 19.4781C136.402 19.4781 139.44 17.0391 139.44 13.0986C139.44 9.85248 137.417 7.50032 134.623 7.50032L134.631 7.509ZM133.876 18.8098C133.876 18.8098 133.859 18.8098 133.841 18.8098C132.557 18.8098 131.281 17.8984 130.656 16.5531V10.4687C131.324 9.79172 132.244 9.0366 133.503 9.0366C135.534 9.0366 137.009 11.0242 137.009 13.7756C137.009 16.7788 135.751 18.8011 133.876 18.8271V18.8098Z" fill="#F8F8F8"/>
<path d="M150.549 15.7112C150.489 15.6851 150.428 15.7112 150.393 15.7546L150.376 15.7806C150.376 15.7806 150.376 15.7893 150.367 15.798C149.412 17.2648 148.475 17.8029 146.887 17.8029C144.613 17.8029 142.964 15.7199 142.964 12.8556C142.964 12.5084 142.981 12.005 143.042 11.6318L150.393 11.6578H150.445C150.506 11.6578 150.558 11.6144 150.576 11.5537V11.5016C150.576 11.5016 150.593 11.4408 150.602 11.4148C150.602 11.3888 150.61 11.3627 150.619 11.3193C150.628 11.2586 150.645 11.1978 150.645 11.111C150.645 8.85433 148.909 7.34409 146.331 7.34409C143.076 7.34409 140.629 10.0695 140.629 13.6715C140.629 16.9263 142.998 19.4781 146.019 19.4781C148.041 19.4781 149.543 18.4279 150.888 16.0584L150.914 16.0063C150.914 16.0063 150.94 15.9368 150.923 15.9021C150.914 15.8674 150.888 15.8414 150.853 15.824L150.567 15.7025L150.549 15.7112ZM143.163 11.0416C143.632 9.28831 144.882 7.98637 146.123 7.98637C147.598 7.98637 148.171 9.51398 148.206 10.9982L143.163 11.0503V11.0416Z" fill="#F8F8F8"/>
<path d="M152.554 18.7056L151.895 18.7577L151.808 19.0268H157.155L157.024 18.7577L156.625 18.7317C155.427 18.6535 155.367 18.5928 155.367 18.4452V1.28576L151.843 2.1624H151.808L151.756 2.36202L152.39 2.47486C153.249 2.67449 153.422 2.85676 153.422 4.48852V18.3845C153.422 18.6188 153.24 18.6449 152.554 18.7056Z" fill="#F8F8F8"/>
<path d="M42.1766 23.1062H41.0049C40.9354 23.1062 40.8747 23.1669 40.8747 23.2363V23.2884C40.8747 23.3926 40.892 25.1719 40.9094 27.1855C40.9267 29.1645 40.9441 31.3604 40.9528 32.3933L34.5646 23.1843C34.5646 23.1843 34.5473 23.1582 34.5386 23.1582C34.5126 23.1322 34.4778 23.1148 34.4344 23.1148H33.2887C33.2193 23.1148 33.1585 23.1756 33.1585 23.245V34.6934C33.1585 34.7628 33.2193 34.8235 33.2887 34.8235H34.4605C34.5299 34.8235 34.5907 34.7628 34.5907 34.6934V25.441L40.9181 34.7628C40.9181 34.7628 40.9788 34.8235 41.0222 34.8235H42.1679C42.2374 34.8235 42.2981 34.7628 42.2981 34.6934V23.245C42.2981 23.1756 42.2374 23.1148 42.1679 23.1148L42.1766 23.1062Z" fill="#F8F8F8"/>
<path d="M50.5524 32.1589C50.4916 32.1416 50.4308 32.1676 50.4048 32.2197L50.3875 32.2544C50.3875 32.2544 50.3875 32.2718 50.3788 32.2804C49.7018 33.6171 48.7297 33.7646 48.0613 33.7646C47.6621 33.7646 45.6745 33.6345 45.6745 31.0306V30.9872H51.4898C51.5592 30.9872 51.6199 30.9264 51.6199 30.857V30.6574C51.6199 28.6871 50.3441 26.5867 47.9832 26.5867C46.1952 26.5867 44.2684 27.8799 44.2684 30.7181C44.2684 31.4298 44.4506 34.9971 48.1134 34.9971C50.5697 34.9971 51.3509 33.2439 51.6026 32.671L51.6286 32.6189C51.6286 32.6189 51.646 32.5408 51.6286 32.5061C51.6113 32.4714 51.5852 32.4454 51.5505 32.4367L50.561 32.1502L50.5524 32.1589ZM45.7092 29.8415C45.8828 28.8781 46.5511 27.8192 47.9572 27.8192C49.5455 27.8192 49.9969 29.1384 50.1184 29.8415H45.7092Z" fill="#F8F8F8"/>
<path d="M56.9318 26.7776H55.3782V23.653C55.3782 23.5922 55.3348 23.5401 55.2827 23.5228C55.2567 23.5228 55.2306 23.5228 55.2046 23.5228H54.2238C54.1544 23.5228 54.0936 23.5835 54.0936 23.653V26.7863H52.6181C52.5487 26.7863 52.4879 26.847 52.4879 26.9165V27.8278C52.4879 27.8973 52.5487 27.958 52.6181 27.958H54.0936V32.8359C54.0936 33.4782 54.137 33.9122 54.2151 34.1465C54.4061 34.6847 54.8748 34.9624 55.6039 34.9624C56.3329 34.9624 56.8016 34.7194 57.01 34.5545C57.0447 34.5284 57.062 34.4937 57.062 34.4503V33.3567C57.062 33.3046 57.036 33.2612 56.9926 33.2439C56.9492 33.2178 56.8971 33.2265 56.8537 33.2526L56.7582 33.322C56.5152 33.4956 56.142 33.7646 55.8122 33.7646C55.4824 33.7646 55.3695 33.565 55.3695 33.0182V27.9667H56.9232C56.9926 27.9667 57.0534 27.9059 57.0534 27.8365V26.9252C57.0534 26.8557 56.9926 26.795 56.9232 26.795L56.9318 26.7776Z" fill="#F8F8F8"/>
<path d="M69.0658 26.7863H68.033C67.9722 26.7863 67.9288 26.821 67.9115 26.8818L66.1669 32.5321L64.4483 26.9165L64.431 26.8818C64.4136 26.8297 64.3615 26.795 64.3095 26.795H63.4241C63.3634 26.795 63.32 26.8297 63.3026 26.8904L61.5841 32.5582L59.7093 26.9165L59.6919 26.8818C59.6746 26.8297 59.6225 26.795 59.5704 26.795H58.5376C58.5376 26.795 58.4594 26.8123 58.4334 26.847C58.4074 26.8818 58.3987 26.9252 58.416 26.9686L61.0286 34.702L61.0459 34.7368C61.0633 34.7888 61.1154 34.8235 61.1675 34.8235H62.0528C62.1135 34.8235 62.1569 34.7888 62.1743 34.7281L63.8842 28.9735L65.6027 34.6847V34.7281C65.6287 34.7888 65.6808 34.8322 65.7416 34.8322H66.6095C66.6703 34.8322 66.7137 34.7975 66.7311 34.7454L69.196 26.9772C69.196 26.9772 69.196 26.8904 69.1787 26.8644C69.1613 26.8384 69.1179 26.8123 69.0745 26.8123L69.0658 26.7863Z" fill="#F8F8F8"/>
<path d="M73.8483 26.5867C71.609 26.5867 70.1595 28.2705 70.1595 30.883C70.1595 33.348 71.6176 35.0058 73.7788 35.0058C75.6189 35.0058 77.485 33.6952 77.485 30.7528C77.4503 28.6784 76.3133 26.5867 73.8483 26.5867ZM76.105 30.7528C76.105 31.4732 75.9401 33.7994 73.7962 33.7994C73.1192 33.7994 71.5395 33.5129 71.5395 30.883C71.5395 28.9301 72.3988 27.7584 73.8309 27.7584C74.5166 27.7584 76.105 28.0535 76.105 30.7528Z" fill="#F8F8F8"/>
<path d="M83.066 26.7082C82.7795 26.6735 82.5105 26.6734 82.3803 26.6734C82.3716 26.6734 82.3542 26.6734 82.3456 26.6734C81.547 26.6734 80.9048 26.9772 80.4621 27.5327V26.9165C80.4621 26.847 80.4013 26.7863 80.3319 26.7863H79.273C79.2036 26.7863 79.1428 26.847 79.1428 26.9165V34.6847C79.1428 34.7541 79.2036 34.8149 79.273 34.8149H80.3319C80.4013 34.8149 80.4621 34.7541 80.4621 34.6847V30.4404C80.4621 28.7131 81.1044 27.8799 82.4324 27.8799C82.6233 27.8799 82.8056 27.8973 83.0139 27.9233H83.0833C83.0833 27.9233 83.1614 27.9233 83.1875 27.8973C83.2135 27.8712 83.2309 27.8365 83.2309 27.8018V26.8384C83.2309 26.7689 83.1701 26.7082 83.1007 26.7082H83.066Z" fill="#F8F8F8"/>
<path d="M88.1435 30.0411L91.3289 27.012C91.3289 27.012 91.381 26.9165 91.3636 26.8731C91.3463 26.821 91.2942 26.795 91.2421 26.795H89.8968C89.8968 26.795 89.8273 26.8036 89.81 26.8297L85.8 30.5879V23.2537C85.8 23.1843 85.7393 23.1235 85.6698 23.1235H84.6283C84.5588 23.1235 84.4981 23.1843 84.4981 23.2537V34.702C84.4981 34.7715 84.5588 34.8322 84.6283 34.8322H85.6698C85.7393 34.8322 85.8 34.7715 85.8 34.702V32.3152L87.2322 30.9612L90.0443 34.7802C90.0443 34.7802 90.1051 34.8322 90.1485 34.8322H91.4417C91.4938 34.8322 91.5372 34.8062 91.5546 34.7628C91.5719 34.7194 91.5719 34.6673 91.5459 34.6239L88.1522 30.0585L88.1435 30.0411Z" fill="#F8F8F8"/>
<path d="M23.5242 0.235535H3.28352C1.58233 0.235535 0.193604 1.49407 0.193604 3.03035V35.9866L12.6661 27.7237C13.0307 27.4806 13.5167 27.4806 13.8899 27.7237L26.6142 36.0126V3.03035C26.6142 1.49407 25.2254 0.235535 23.5242 0.235535ZM2.04235 3.03035C2.04235 2.51826 2.60652 2.08428 3.28352 2.08428H23.5242C24.1926 2.08428 24.7654 2.51826 24.7654 3.03035V32.5929L14.8968 26.17C14.4194 25.8576 13.8552 25.6927 13.2824 25.6927C12.7095 25.6927 12.128 25.8663 11.6419 26.1874L2.04235 32.5495V3.03035Z" fill="#F8F8F8"/>
</svg>
